<?xml version="1.0" encoding="utf-8"?>
<!-- Generator: Adobe Illustrator 18.0.0, SVG Export Plug-In . SVG Version: 6.00 Build 0)  -->
<!DOCTYPE svg PUBLIC "-//W3C//DTD SVG 1.1//EN" "http://www.w3.org/Graphics/SVG/1.1/DTD/svg11.dtd">
<svg version="1.1" id="Layer_1" xmlns="http://www.w3.org/2000/svg" xmlns:xlink="http://www.w3.org/1999/xlink" x="0px" y="0px"
	 viewBox="0 0 100 150" enable-background="new 0 0 100 150" xml:space="preserve">
<g>
	<rect x="1" y="1" fill="#FFFFFF" width="98" height="148"/>
	<path fill="#CCCCCC" d="M98,2v146H2V2H98 M100,0H0v150h100V0L100,0z"/>
</g>
<g>
	<rect x="1" y="50.6" fill="#EAEAEA" width="98" height="27.6"/>
	<path fill="#CCCCCC" d="M98,51.6v25.6H2V51.6H98 M100,49.6H0v29.6h100V49.6L100,49.6z"/>
</g>
<g>
	<g>
		<polyline fill="none" stroke="#BABABA" stroke-width="1.5" stroke-miterlimit="10" points="60.4,138.5 60.4,140 58.9,140 		"/>
		
			<line fill="none" stroke="#BABABA" stroke-width="1.5" stroke-miterlimit="10" stroke-dasharray="2.8068,2.8068,2.8068,2.8068" x1="56.1" y1="140" x2="46.3" y2="140"/>
		
			<line fill="none" stroke="#BABABA" stroke-width="1.5" stroke-miterlimit="10" stroke-dasharray="2.8068,2.8068,2.8068,2.8068,2.8068,2.8068" x1="44.9" y1="140" x2="12.6" y2="140"/>
		<polyline fill="none" stroke="#BABABA" stroke-width="1.5" stroke-miterlimit="10" points="11.2,140 9.7,140 9.7,138.5 		"/>
		
			<line fill="none" stroke="#BABABA" stroke-width="1.5" stroke-miterlimit="10" stroke-dasharray="3.021,3.021,3.021,3.021" x1="9.7" y1="135.5" x2="9.7" y2="124.9"/>
		
			<line fill="none" stroke="#BABABA" stroke-width="1.5" stroke-miterlimit="10" stroke-dasharray="3.021,3.021,3.021,3.021,3.021,3.021" x1="9.7" y1="123.4" x2="9.7" y2="88.6"/>
		<polyline fill="none" stroke="#BABABA" stroke-width="1.5" stroke-miterlimit="10" points="9.7,87.1 9.7,85.6 11.2,85.6 		"/>
		
			<line fill="none" stroke="#BABABA" stroke-width="1.5" stroke-miterlimit="10" stroke-dasharray="2.8068,2.8068,2.8068,2.8068" x1="14" y1="85.6" x2="23.8" y2="85.6"/>
		
			<line fill="none" stroke="#BABABA" stroke-width="1.5" stroke-miterlimit="10" stroke-dasharray="2.8068,2.8068,2.8068,2.8068,2.8068,2.8068" x1="25.3" y1="85.6" x2="57.5" y2="85.6"/>
		<polyline fill="none" stroke="#BABABA" stroke-width="1.5" stroke-miterlimit="10" points="58.9,85.6 60.4,85.6 60.4,87.1 		"/>
		
			<line fill="none" stroke="#BABABA" stroke-width="1.5" stroke-miterlimit="10" stroke-dasharray="3.021,3.021,3.021,3.021" x1="60.4" y1="90.1" x2="60.4" y2="100.7"/>
		
			<line fill="none" stroke="#BABABA" stroke-width="1.5" stroke-miterlimit="10" stroke-dasharray="3.021,3.021,3.021,3.021,3.021,3.021" x1="60.4" y1="102.2" x2="60.4" y2="137"/>
	</g>
</g>
<g>
	<g>
		<polyline fill="none" stroke="#BABABA" stroke-width="1.5" stroke-miterlimit="10" points="90,138.5 90,140 88.5,140 		"/>
		
			<line fill="none" stroke="#BABABA" stroke-width="1.5" stroke-miterlimit="10" stroke-dasharray="3.2595,3.2595,3.2595,3.2595" x1="85.2" y1="140" x2="73.8" y2="140"/>
		<polyline fill="none" stroke="#BABABA" stroke-width="1.5" stroke-miterlimit="10" points="72.2,140 70.7,140 70.7,138.5 		"/>
		
			<line fill="none" stroke="#BABABA" stroke-width="1.5" stroke-miterlimit="10" stroke-dasharray="3.021,3.021,3.021,3.021" x1="70.7" y1="135.5" x2="70.7" y2="124.9"/>
		
			<line fill="none" stroke="#BABABA" stroke-width="1.5" stroke-miterlimit="10" stroke-dasharray="3.021,3.021,3.021,3.021,3.021,3.021" x1="70.7" y1="123.4" x2="70.7" y2="88.6"/>
		<polyline fill="none" stroke="#BABABA" stroke-width="1.5" stroke-miterlimit="10" points="70.7,87.1 70.7,85.6 72.2,85.6 		"/>
		
			<line fill="none" stroke="#BABABA" stroke-width="1.5" stroke-miterlimit="10" stroke-dasharray="3.2595,3.2595,3.2595,3.2595" x1="75.4" y1="85.6" x2="86.8" y2="85.6"/>
		<polyline fill="none" stroke="#BABABA" stroke-width="1.5" stroke-miterlimit="10" points="88.5,85.6 90,85.6 90,87.1 		"/>
		
			<line fill="none" stroke="#BABABA" stroke-width="1.5" stroke-miterlimit="10" stroke-dasharray="3.021,3.021,3.021,3.021" x1="90" y1="90.1" x2="90" y2="100.7"/>
		
			<line fill="none" stroke="#BABABA" stroke-width="1.5" stroke-miterlimit="10" stroke-dasharray="3.021,3.021,3.021,3.021,3.021,3.021" x1="90" y1="102.2" x2="90" y2="137"/>
	</g>
</g>
<g>
	<g>
		<polyline fill="none" stroke="#BABABA" stroke-width="1.5" stroke-miterlimit="10" points="49.9,43.3 49.9,44.8 48.4,44.8 		"/>
		
			<line fill="none" stroke="#BABABA" stroke-width="1.5" stroke-miterlimit="10" stroke-dasharray="2.8618,2.8618" x1="45.6" y1="44.8" x2="12.6" y2="44.8"/>
		<polyline fill="none" stroke="#BABABA" stroke-width="1.5" stroke-miterlimit="10" points="11.2,44.8 9.7,44.8 9.7,43.3 		"/>
		
			<line fill="none" stroke="#BABABA" stroke-width="1.5" stroke-miterlimit="10" stroke-dasharray="3.4697,3.4697" x1="9.7" y1="39.9" x2="9.7" y2="27.7"/>
		<polyline fill="none" stroke="#BABABA" stroke-width="1.5" stroke-miterlimit="10" points="9.7,26 9.7,24.5 11.2,24.5 		"/>
		
			<line fill="none" stroke="#BABABA" stroke-width="1.5" stroke-miterlimit="10" stroke-dasharray="2.8618,2.8618" x1="14.1" y1="24.5" x2="47" y2="24.5"/>
		<polyline fill="none" stroke="#BABABA" stroke-width="1.5" stroke-miterlimit="10" points="48.4,24.5 49.9,24.5 49.9,26 		"/>
		
			<line fill="none" stroke="#BABABA" stroke-width="1.5" stroke-miterlimit="10" stroke-dasharray="3.4697,3.4697" x1="49.9" y1="29.5" x2="49.9" y2="41.6"/>
	</g>
</g>
<g>
	<g>
		<polyline fill="none" stroke="#BABABA" stroke-width="1.5" stroke-miterlimit="10" points="90,43.3 90,44.8 88.5,44.8 		"/>
		
			<line fill="none" stroke="#BABABA" stroke-width="1.5" stroke-miterlimit="10" stroke-dasharray="3.1908,3.1908" x1="85.3" y1="44.8" x2="61.3" y2="44.8"/>
		<polyline fill="none" stroke="#BABABA" stroke-width="1.5" stroke-miterlimit="10" points="59.7,44.8 58.2,44.8 58.2,43.3 		"/>
		
			<line fill="none" stroke="#BABABA" stroke-width="1.5" stroke-miterlimit="10" stroke-dasharray="3.4697,3.4697" x1="58.2" y1="39.9" x2="58.2" y2="27.7"/>
		<polyline fill="none" stroke="#BABABA" stroke-width="1.5" stroke-miterlimit="10" points="58.2,26 58.2,24.5 59.7,24.5 		"/>
		
			<line fill="none" stroke="#BABABA" stroke-width="1.5" stroke-miterlimit="10" stroke-dasharray="3.1908,3.1908" x1="62.9" y1="24.5" x2="86.9" y2="24.5"/>
		<polyline fill="none" stroke="#BABABA" stroke-width="1.5" stroke-miterlimit="10" points="88.5,24.5 90,24.5 90,26 		"/>
		
			<line fill="none" stroke="#BABABA" stroke-width="1.5" stroke-miterlimit="10" stroke-dasharray="3.4697,3.4697" x1="90" y1="29.5" x2="90" y2="41.6"/>
	</g>
</g>
<rect x="8.7" y="8.3" fill="#BABABA" width="69.2" height="2.5"/>
<rect x="8.7" y="14.3" fill="#BABABA" width="38.5" height="2.5"/>
<g>
	<rect x="10.2" y="57.8" fill="none" stroke="#BABABA" stroke-width="1.5" stroke-miterlimit="10" width="19.7" height="13.7"/>
	<path id="picture_2_" fill="#BABABA" d="M24.3,60.7h-8.6c-0.5,0-1,0.4-1,1v5.9c0,0.5,0.4,1,1,1h8.6c0.5,0,1-0.4,1-1v-5.9
		C25.3,61.1,24.9,60.7,24.3,60.7z M22.3,67.1c-0.1,0.1-0.2,0.2-0.3,0.2h-5.3c-0.1,0-0.2-0.1-0.3-0.2c-0.1-0.1-0.1-0.2,0-0.3l2-3.9
		c0.1-0.1,0.2-0.2,0.4-0.2c0.2,0,0.3,0.1,0.4,0.2l0.8,1.8l0.3-0.5c0.1-0.1,0.2-0.2,0.3-0.2c0.1,0,0.2,0.1,0.4,0.2c0,0,0,0,0.1,0.1
		l1.3,2.5C22.4,66.9,22.4,67,22.3,67.1z M22.7,64.6c-0.7,0-1.3-0.6-1.3-1.3s0.6-1.3,1.3-1.3s1.3,0.6,1.3,1.3S23.4,64.6,22.7,64.6z"
		/>
</g>
<g>
	<rect x="35.7" y="57" fill="#BABABA" width="5.5" height="1.5"/>
	<rect x="35.7" y="60.9" fill="#BABABA" width="22.7" height="1.5"/>
	<rect x="35.7" y="65" fill="#BABABA" width="55.2" height="0.8"/>
	<rect x="35.7" y="68.2" fill="#BABABA" width="55.2" height="0.8"/>
	<rect x="35.7" y="71.3" fill="#BABABA" width="42.6" height="0.8"/>
</g>
</svg>
