<?xml version="1.0" encoding="utf-8"?>
<!-- Generator: Adobe Illustrator 18.0.0, SVG Export Plug-In . SVG Version: 6.00 Build 0)  -->
<!DOCTYPE svg PUBLIC "-//W3C//DTD SVG 1.1//EN" "http://www.w3.org/Graphics/SVG/1.1/DTD/svg11.dtd">
<svg version="1.1" id="Layer_1" xmlns="http://www.w3.org/2000/svg" xmlns:xlink="http://www.w3.org/1999/xlink" x="0px" y="0px"
	 viewBox="0 0 100 150" enable-background="new 0 0 100 150" xml:space="preserve">
<g>
	<rect x="1" y="1" fill="#FFFFFF" width="98" height="148"/>
	<path fill="#CCCCCC" d="M98,2v146H2V2H98 M100,0H0v150h100V0L100,0z"/>
</g>
<g>
	<g>
		<polyline fill="none" stroke="#BABABA" stroke-width="1.5" stroke-miterlimit="10" points="60.4,138.5 60.4,140 58.9,140 		"/>
		
			<line fill="none" stroke="#BABABA" stroke-width="1.5" stroke-miterlimit="10" stroke-dasharray="2.8068,2.8068,2.8068,2.8068" x1="56.1" y1="140" x2="46.3" y2="140"/>
		
			<line fill="none" stroke="#BABABA" stroke-width="1.5" stroke-miterlimit="10" stroke-dasharray="2.8068,2.8068,2.8068,2.8068,2.8068,2.8068" x1="44.9" y1="140" x2="12.6" y2="140"/>
		<polyline fill="none" stroke="#BABABA" stroke-width="1.5" stroke-miterlimit="10" points="11.2,140 9.7,140 9.7,138.5 		"/>
		
			<line fill="none" stroke="#BABABA" stroke-width="1.5" stroke-miterlimit="10" stroke-dasharray="3.2343,3.2343,3.2343,3.2343" x1="9.7" y1="135.2" x2="9.7" y2="123.9"/>
		
			<line fill="none" stroke="#BABABA" stroke-width="1.5" stroke-miterlimit="10" stroke-dasharray="3.2343,3.2343,3.2343,3.2343,3.2343,3.2343" x1="9.7" y1="122.3" x2="9.7" y2="65.7"/>
		<polyline fill="none" stroke="#BABABA" stroke-width="1.5" stroke-miterlimit="10" points="9.7,64.1 9.7,62.6 11.2,62.6 		"/>
		
			<line fill="none" stroke="#BABABA" stroke-width="1.5" stroke-miterlimit="10" stroke-dasharray="2.8068,2.8068,2.8068,2.8068" x1="14" y1="62.6" x2="23.8" y2="62.6"/>
		
			<line fill="none" stroke="#BABABA" stroke-width="1.5" stroke-miterlimit="10" stroke-dasharray="2.8068,2.8068,2.8068,2.8068,2.8068,2.8068" x1="25.3" y1="62.6" x2="57.5" y2="62.6"/>
		<polyline fill="none" stroke="#BABABA" stroke-width="1.5" stroke-miterlimit="10" points="58.9,62.6 60.4,62.6 60.4,64.1 		"/>
		
			<line fill="none" stroke="#BABABA" stroke-width="1.5" stroke-miterlimit="10" stroke-dasharray="3.2343,3.2343,3.2343,3.2343" x1="60.4" y1="67.3" x2="60.4" y2="78.6"/>
		
			<line fill="none" stroke="#BABABA" stroke-width="1.5" stroke-miterlimit="10" stroke-dasharray="3.2343,3.2343,3.2343,3.2343,3.2343,3.2343" x1="60.4" y1="80.3" x2="60.4" y2="136.9"/>
	</g>
</g>
<g>
	<g>
		<polyline fill="none" stroke="#BABABA" stroke-width="1.5" stroke-miterlimit="10" points="90,138.5 90,140 88.5,140 		"/>
		
			<line fill="none" stroke="#BABABA" stroke-width="1.5" stroke-miterlimit="10" stroke-dasharray="3.2595,3.2595,3.2595,3.2595" x1="85.2" y1="140" x2="73.8" y2="140"/>
		<polyline fill="none" stroke="#BABABA" stroke-width="1.5" stroke-miterlimit="10" points="72.2,140 70.7,140 70.7,138.5 		"/>
		
			<line fill="none" stroke="#BABABA" stroke-width="1.5" stroke-miterlimit="10" stroke-dasharray="3.2239,3.2239,3.2239,3.2239" x1="70.7" y1="135.3" x2="70.7" y2="124"/>
		
			<line fill="none" stroke="#BABABA" stroke-width="1.5" stroke-miterlimit="10" stroke-dasharray="3.2239,3.2239,3.2239,3.2239,3.2239,3.2239" x1="70.7" y1="122.4" x2="70.7" y2="27.3"/>
		<polyline fill="none" stroke="#BABABA" stroke-width="1.5" stroke-miterlimit="10" points="70.7,25.6 70.7,24.1 72.2,24.1 		"/>
		
			<line fill="none" stroke="#BABABA" stroke-width="1.5" stroke-miterlimit="10" stroke-dasharray="3.2595,3.2595,3.2595,3.2595" x1="75.4" y1="24.1" x2="86.8" y2="24.1"/>
		<polyline fill="none" stroke="#BABABA" stroke-width="1.5" stroke-miterlimit="10" points="88.5,24.1 90,24.1 90,25.6 		"/>
		
			<line fill="none" stroke="#BABABA" stroke-width="1.5" stroke-miterlimit="10" stroke-dasharray="3.2239,3.2239,3.2239,3.2239" x1="90" y1="28.9" x2="90" y2="40.2"/>
		
			<line fill="none" stroke="#BABABA" stroke-width="1.5" stroke-miterlimit="10" stroke-dasharray="3.2239,3.2239,3.2239,3.2239,3.2239,3.2239" x1="90" y1="41.8" x2="90" y2="136.9"/>
	</g>
</g>
<rect x="9.7" y="24.5" fill="none" stroke="#BABABA" stroke-width="1.5" stroke-miterlimit="10" width="50.7" height="28.8"/>
<rect x="8.7" y="8.3" fill="#BABABA" width="69.2" height="2.5"/>
<rect x="8.7" y="14.3" fill="#BABABA" width="38.5" height="2.5"/>
<path id="picture" fill="#BABABA" d="M45.2,29.6H25c-1.3,0-2.3,1-2.3,2.3v14c0,1.3,1,2.3,2.3,2.3h20.2c1.3,0,2.3-1,2.3-2.3v-14
	C47.5,30.6,46.5,29.6,45.2,29.6z M40.4,44.7c-0.1,0.2-0.4,0.4-0.7,0.4H27.4c-0.3,0-0.5-0.1-0.7-0.4c-0.1-0.2-0.2-0.5,0-0.8l4.6-9.2
	c0.2-0.3,0.5-0.5,0.9-0.5c0.4,0,0.7,0.2,0.9,0.6l2,4.3l0.6-1.2c0.1-0.3,0.5-0.5,0.8-0.5c0.3,0,0.6,0.1,0.8,0.4
	c0.1,0.1,0.1,0.1,0.1,0.2l3.1,5.9C40.6,44.2,40.5,44.5,40.4,44.7z M41.3,38.9c-1.7,0-3.1-1.4-3.1-3.1c0-1.7,1.4-3.1,3.1-3.1
	c1.7,0,3.1,1.4,3.1,3.1C44.4,37.5,43,38.9,41.3,38.9z"/>
</svg>
