<?xml version="1.0" encoding="utf-8"?>
<!-- Generator: Adobe Illustrator 18.0.0, SVG Export Plug-In . SVG Version: 6.00 Build 0)  -->
<!DOCTYPE svg PUBLIC "-//W3C//DTD SVG 1.1//EN" "http://www.w3.org/Graphics/SVG/1.1/DTD/svg11.dtd">
<svg version="1.1" id="Layer_1" xmlns="http://www.w3.org/2000/svg" xmlns:xlink="http://www.w3.org/1999/xlink" x="0px" y="0px"
	 viewBox="0 0 100 150" enable-background="new 0 0 100 150" xml:space="preserve">
<g>
	<rect x="1" y="1" fill="#FFFFFF" width="98" height="148"/>
	<path fill="#CCCCCC" d="M98,2v146H2V2H98 M100,0H0v150h100V0L100,0z"/>
</g>
<g>
	<rect x="1" y="1" fill="#EAEAEA" width="98" height="53.3"/>
	<path fill="#CCCCCC" d="M98,2v51.3H2V2H98 M100,0H0v55.3h100V0L100,0z"/>
</g>
<g>
	<g>
		<polyline fill="none" stroke="#BABABA" stroke-width="1.5" stroke-miterlimit="10" points="60.4,142.6 60.4,144.1 58.9,144.1 		
			"/>
		
			<line fill="none" stroke="#BABABA" stroke-width="1.5" stroke-miterlimit="10" stroke-dasharray="2.8068,2.8068,2.8068,2.8068" x1="56.1" y1="144.1" x2="46.3" y2="144.1"/>
		
			<line fill="none" stroke="#BABABA" stroke-width="1.5" stroke-miterlimit="10" stroke-dasharray="2.8068,2.8068,2.8068,2.8068,2.8068,2.8068" x1="44.9" y1="144.1" x2="12.6" y2="144.1"/>
		<polyline fill="none" stroke="#BABABA" stroke-width="1.5" stroke-miterlimit="10" points="11.2,144.1 9.7,144.1 9.7,142.6 		"/>
		
			<line fill="none" stroke="#BABABA" stroke-width="1.5" stroke-miterlimit="10" stroke-dasharray="3.3529,3.3529,3.3529,3.3529" x1="9.7" y1="139.2" x2="9.7" y2="127.5"/>
		
			<line fill="none" stroke="#BABABA" stroke-width="1.5" stroke-miterlimit="10" stroke-dasharray="3.3529,3.3529,3.3529,3.3529,3.3529,3.3529" x1="9.7" y1="125.8" x2="9.7" y2="67.1"/>
		<polyline fill="none" stroke="#BABABA" stroke-width="1.5" stroke-miterlimit="10" points="9.7,65.4 9.7,63.9 11.2,63.9 		"/>
		
			<line fill="none" stroke="#BABABA" stroke-width="1.5" stroke-miterlimit="10" stroke-dasharray="2.8068,2.8068,2.8068,2.8068" x1="14" y1="63.9" x2="23.8" y2="63.9"/>
		
			<line fill="none" stroke="#BABABA" stroke-width="1.5" stroke-miterlimit="10" stroke-dasharray="2.8068,2.8068,2.8068,2.8068,2.8068,2.8068" x1="25.3" y1="63.9" x2="57.5" y2="63.9"/>
		<polyline fill="none" stroke="#BABABA" stroke-width="1.5" stroke-miterlimit="10" points="58.9,63.9 60.4,63.9 60.4,65.4 		"/>
		
			<line fill="none" stroke="#BABABA" stroke-width="1.5" stroke-miterlimit="10" stroke-dasharray="3.3529,3.3529,3.3529,3.3529" x1="60.4" y1="68.8" x2="60.4" y2="80.5"/>
		
			<line fill="none" stroke="#BABABA" stroke-width="1.5" stroke-miterlimit="10" stroke-dasharray="3.3529,3.3529,3.3529,3.3529,3.3529,3.3529" x1="60.4" y1="82.2" x2="60.4" y2="140.9"/>
	</g>
</g>
<g>
	<g>
		<polyline fill="none" stroke="#BABABA" stroke-width="1.5" stroke-miterlimit="10" points="90,142.6 90,144.1 88.5,144.1 		"/>
		
			<line fill="none" stroke="#BABABA" stroke-width="1.5" stroke-miterlimit="10" stroke-dasharray="3.2595,3.2595,3.2595,3.2595" x1="85.2" y1="144.1" x2="73.8" y2="144.1"/>
		<polyline fill="none" stroke="#BABABA" stroke-width="1.5" stroke-miterlimit="10" points="72.2,144.1 70.7,144.1 70.7,142.6 		
			"/>
		
			<line fill="none" stroke="#BABABA" stroke-width="1.5" stroke-miterlimit="10" stroke-dasharray="3.3529,3.3529,3.3529,3.3529" x1="70.7" y1="139.2" x2="70.7" y2="127.5"/>
		
			<line fill="none" stroke="#BABABA" stroke-width="1.5" stroke-miterlimit="10" stroke-dasharray="3.3529,3.3529,3.3529,3.3529,3.3529,3.3529" x1="70.7" y1="125.8" x2="70.7" y2="67.1"/>
		<polyline fill="none" stroke="#BABABA" stroke-width="1.5" stroke-miterlimit="10" points="70.7,65.4 70.7,63.9 72.2,63.9 		"/>
		
			<line fill="none" stroke="#BABABA" stroke-width="1.5" stroke-miterlimit="10" stroke-dasharray="3.2595,3.2595,3.2595,3.2595" x1="75.4" y1="63.9" x2="86.8" y2="63.9"/>
		<polyline fill="none" stroke="#BABABA" stroke-width="1.5" stroke-miterlimit="10" points="88.5,63.9 90,63.9 90,65.4 		"/>
		
			<line fill="none" stroke="#BABABA" stroke-width="1.5" stroke-miterlimit="10" stroke-dasharray="3.3529,3.3529,3.3529,3.3529" x1="90" y1="68.8" x2="90" y2="80.5"/>
		
			<line fill="none" stroke="#BABABA" stroke-width="1.5" stroke-miterlimit="10" stroke-dasharray="3.3529,3.3529,3.3529,3.3529,3.3529,3.3529" x1="90" y1="82.2" x2="90" y2="140.9"/>
	</g>
</g>
<g>
	<g>
		<polyline fill="none" stroke="#BABABA" stroke-width="1.5" stroke-miterlimit="10" points="60.4,43.3 60.4,44.8 58.9,44.8 		"/>
		
			<line fill="none" stroke="#BABABA" stroke-width="1.5" stroke-miterlimit="10" stroke-dasharray="3.1811,3.1811" x1="55.8" y1="44.8" x2="12.8" y2="44.8"/>
		<polyline fill="none" stroke="#BABABA" stroke-width="1.5" stroke-miterlimit="10" points="11.2,44.8 9.7,44.8 9.7,43.3 		"/>
		
			<line fill="none" stroke="#BABABA" stroke-width="1.5" stroke-miterlimit="10" stroke-dasharray="3.4697,3.4697" x1="9.7" y1="39.9" x2="9.7" y2="27.7"/>
		<polyline fill="none" stroke="#BABABA" stroke-width="1.5" stroke-miterlimit="10" points="9.7,26 9.7,24.5 11.2,24.5 		"/>
		
			<line fill="none" stroke="#BABABA" stroke-width="1.5" stroke-miterlimit="10" stroke-dasharray="3.1811,3.1811" x1="14.4" y1="24.5" x2="57.3" y2="24.5"/>
		<polyline fill="none" stroke="#BABABA" stroke-width="1.5" stroke-miterlimit="10" points="58.9,24.5 60.4,24.5 60.4,26 		"/>
		
			<line fill="none" stroke="#BABABA" stroke-width="1.5" stroke-miterlimit="10" stroke-dasharray="3.4697,3.4697" x1="60.4" y1="29.5" x2="60.4" y2="41.6"/>
	</g>
</g>
<g>
	<g>
		<polyline fill="none" stroke="#BABABA" stroke-width="1.5" stroke-miterlimit="10" points="90,43.3 90,44.8 88.5,44.8 		"/>
		
			<line fill="none" stroke="#BABABA" stroke-width="1.5" stroke-miterlimit="10" stroke-dasharray="3.2595,3.2595" x1="85.2" y1="44.8" x2="73.8" y2="44.8"/>
		<polyline fill="none" stroke="#BABABA" stroke-width="1.5" stroke-miterlimit="10" points="72.2,44.8 70.7,44.8 70.7,43.3 		"/>
		
			<line fill="none" stroke="#BABABA" stroke-width="1.5" stroke-miterlimit="10" stroke-dasharray="3.4697,3.4697" x1="70.7" y1="39.9" x2="70.7" y2="27.7"/>
		<polyline fill="none" stroke="#BABABA" stroke-width="1.5" stroke-miterlimit="10" points="70.7,26 70.7,24.5 72.2,24.5 		"/>
		
			<line fill="none" stroke="#BABABA" stroke-width="1.5" stroke-miterlimit="10" stroke-dasharray="3.2595,3.2595" x1="75.4" y1="24.5" x2="86.8" y2="24.5"/>
		<polyline fill="none" stroke="#BABABA" stroke-width="1.5" stroke-miterlimit="10" points="88.5,24.5 90,24.5 90,26 		"/>
		
			<line fill="none" stroke="#BABABA" stroke-width="1.5" stroke-miterlimit="10" stroke-dasharray="3.4697,3.4697" x1="90" y1="29.5" x2="90" y2="41.6"/>
	</g>
</g>
<rect x="8.7" y="8.3" fill="#BABABA" width="69.2" height="2.5"/>
<rect x="8.7" y="14.3" fill="#BABABA" width="38.5" height="2.5"/>
<g>
	<rect x="1" y="1" fill="#FFFFFF" width="98" height="148"/>
	<path fill="#CCCCCC" d="M98,2v146H2V2H98 M100,0H0v150h100V0L100,0z"/>
</g>
<g>
	<g>
		<polyline fill="none" stroke="#BABABA" stroke-width="1.5" stroke-miterlimit="10" points="60.4,138.5 60.4,140 58.9,140 		"/>
		
			<line fill="none" stroke="#BABABA" stroke-width="1.5" stroke-miterlimit="10" stroke-dasharray="2.8068,2.8068,2.8068,2.8068" x1="56.1" y1="140" x2="46.3" y2="140"/>
		
			<line fill="none" stroke="#BABABA" stroke-width="1.5" stroke-miterlimit="10" stroke-dasharray="2.8068,2.8068,2.8068,2.8068,2.8068,2.8068" x1="44.9" y1="140" x2="12.6" y2="140"/>
		<polyline fill="none" stroke="#BABABA" stroke-width="1.5" stroke-miterlimit="10" points="11.2,140 9.7,140 9.7,138.5 		"/>
		
			<line fill="none" stroke="#BABABA" stroke-width="1.5" stroke-miterlimit="10" stroke-dasharray="3.2042,3.2042,3.2042,3.2042" x1="9.7" y1="135.3" x2="9.7" y2="124.1"/>
		
			<line fill="none" stroke="#BABABA" stroke-width="1.5" stroke-miterlimit="10" stroke-dasharray="3.2042,3.2042,3.2042,3.2042,3.2042,3.2042" x1="9.7" y1="122.5" x2="9.7" y2="27.9"/>
		<polyline fill="none" stroke="#BABABA" stroke-width="1.5" stroke-miterlimit="10" points="9.7,26.3 9.7,24.8 11.2,24.8 		"/>
		
			<line fill="none" stroke="#BABABA" stroke-width="1.5" stroke-miterlimit="10" stroke-dasharray="2.8068,2.8068,2.8068,2.8068" x1="14" y1="24.8" x2="23.8" y2="24.8"/>
		
			<line fill="none" stroke="#BABABA" stroke-width="1.5" stroke-miterlimit="10" stroke-dasharray="2.8068,2.8068,2.8068,2.8068,2.8068,2.8068" x1="25.3" y1="24.8" x2="57.5" y2="24.8"/>
		<polyline fill="none" stroke="#BABABA" stroke-width="1.5" stroke-miterlimit="10" points="58.9,24.8 60.4,24.8 60.4,26.3 		"/>
		
			<line fill="none" stroke="#BABABA" stroke-width="1.5" stroke-miterlimit="10" stroke-dasharray="3.2042,3.2042,3.2042,3.2042" x1="60.4" y1="29.5" x2="60.4" y2="40.8"/>
		
			<line fill="none" stroke="#BABABA" stroke-width="1.5" stroke-miterlimit="10" stroke-dasharray="3.2042,3.2042,3.2042,3.2042,3.2042,3.2042" x1="60.4" y1="42.4" x2="60.4" y2="136.9"/>
	</g>
</g>
<g>
	<g>
		<polyline fill="none" stroke="#BABABA" stroke-width="1.5" stroke-miterlimit="10" points="90,138.5 90,140 88.5,140 		"/>
		
			<line fill="none" stroke="#BABABA" stroke-width="1.5" stroke-miterlimit="10" stroke-dasharray="3.2595,3.2595,3.2595,3.2595" x1="85.2" y1="140" x2="73.8" y2="140"/>
		<polyline fill="none" stroke="#BABABA" stroke-width="1.5" stroke-miterlimit="10" points="72.2,140 70.7,140 70.7,138.5 		"/>
		
			<line fill="none" stroke="#BABABA" stroke-width="1.5" stroke-miterlimit="10" stroke-dasharray="3.2239,3.2239,3.2239,3.2239" x1="70.7" y1="135.3" x2="70.7" y2="124"/>
		
			<line fill="none" stroke="#BABABA" stroke-width="1.5" stroke-miterlimit="10" stroke-dasharray="3.2239,3.2239,3.2239,3.2239,3.2239,3.2239" x1="70.7" y1="122.4" x2="70.7" y2="27.3"/>
		<polyline fill="none" stroke="#BABABA" stroke-width="1.5" stroke-miterlimit="10" points="70.7,25.6 70.7,24.1 72.2,24.1 		"/>
		
			<line fill="none" stroke="#BABABA" stroke-width="1.5" stroke-miterlimit="10" stroke-dasharray="3.2595,3.2595,3.2595,3.2595" x1="75.4" y1="24.1" x2="86.8" y2="24.1"/>
		<polyline fill="none" stroke="#BABABA" stroke-width="1.5" stroke-miterlimit="10" points="88.5,24.1 90,24.1 90,25.6 		"/>
		
			<line fill="none" stroke="#BABABA" stroke-width="1.5" stroke-miterlimit="10" stroke-dasharray="3.2239,3.2239,3.2239,3.2239" x1="90" y1="28.9" x2="90" y2="40.2"/>
		
			<line fill="none" stroke="#BABABA" stroke-width="1.5" stroke-miterlimit="10" stroke-dasharray="3.2239,3.2239,3.2239,3.2239,3.2239,3.2239" x1="90" y1="41.8" x2="90" y2="136.9"/>
	</g>
</g>
<rect x="8.7" y="8.3" fill="#BABABA" width="69.2" height="2.5"/>
<rect x="8.7" y="14.3" fill="#BABABA" width="38.5" height="2.5"/>
</svg>
