<?xml version="1.0" encoding="utf-8"?>
<!-- Generator: Adobe Illustrator 16.0.4, SVG Export Plug-In . SVG Version: 6.00 Build 0)  -->
<svg version="1.2" baseProfile="tiny" id="Layer_1" xmlns="http://www.w3.org/2000/svg" xmlns:xlink="http://www.w3.org/1999/xlink"
	 x="0px" y="0px" width="1030px" height="230px" viewBox="0 0 1020 227" xml:space="preserve">
<g>
	<g>
		<polygon fill="#FFFFFF" points="87.217,75.18 87.41,75.18 87.41,75.113 87.217,75.113 87.217,75.18 		"/>
		<path fill="#FFFFFF" d="M109.929,56.244c-4.75-0.723-9.235-1.416-13.29-1.416c-2.175,0-4.08,0.214-5.778,0.62l-0.948-26.499
			v-4.395c1.871-0.785,4.136-1.15,7.026-1.15c3.697,0,7.941,0.62,12.418,1.276c3.943,0.579,7.998,1.149,12.15,1.421l1.142,31.674
			C118.386,57.541,114.097,56.896,109.929,56.244L109.929,56.244z M64.698,56.244c-4.169,0.652-8.458,1.297-12.722,1.531
			l1.136-31.674c4.161-0.271,8.212-0.842,12.156-1.421c4.481-0.656,8.717-1.276,12.418-1.276c2.881,0,5.155,0.365,7.026,1.15v4.395
			l-0.944,26.499c-1.703-0.406-3.599-0.62-5.778-0.62C73.928,54.828,69.447,55.521,64.698,56.244L64.698,56.244z M132.027,37.555
			v-6.023h-3.718V21.238h-2.508c-5.319,0-10.601-0.771-15.714-1.523c-4.669-0.681-9.078-1.334-13.148-1.334
			c-3.834,0-6.994,0.604-9.624,1.839c-2.631-1.235-5.8-1.839-9.628-1.839c-4.071,0-8.479,0.653-13.145,1.334
			c-5.113,0.752-10.404,1.523-15.718,1.523h-2.508v10.293h-3.713v6.023h3.713v8.154h-3.673v6.025h3.673v11.171h2.508
			c5.685,0,11.253-0.862,16.642-1.695c4.551-0.697,8.852-1.366,12.525-1.366c2.955,0,5.183,0.43,6.903,1.325l0,0h4.838l0,0
			c1.724-0.896,3.948-1.325,6.907-1.325c3.673,0,7.97,0.669,12.521,1.366c5.388,0.833,10.965,1.695,16.642,1.695h2.508V51.734h3.668
			v-6.025h-3.668v-8.154H132.027L132.027,37.555z"/>
		<path fill="#FFFFFF" d="M65.384,29.232c-0.251,0.033-0.493,0.074-0.743,0.106c-2.359,0.349-4.756,0.702-7.177,0.977l-0.14,4.063
			c2.68-0.291,5.307-0.686,7.9-1.067c0.054-0.009,0.107-0.017,0.16-0.024V29.232L65.384,29.232z"/>
		<path fill="#FFFFFF" d="M68.396,28.801v4.055c4.267-0.595,8.191-1.018,11.589-0.738l0.143-3.996
			C76.501,27.841,72.529,28.238,68.396,28.801L68.396,28.801z"/>
		<path fill="#FFFFFF" d="M65.384,47.61c-0.251,0.036-0.493,0.068-0.743,0.11c-2.572,0.378-5.191,0.76-7.838,1.051l-0.148,4.055
			c2.911-0.309,5.767-0.725,8.569-1.133c0.054-0.009,0.107-0.018,0.16-0.025V47.61L65.384,47.61z"/>
		<path fill="#FFFFFF" d="M68.396,47.183v4.055c3.997-0.554,7.686-0.968,10.929-0.788l0.148-3.996
			C76.021,46.271,72.282,46.653,68.396,47.183L68.396,47.183z"/>
		<path fill="#FFFFFF" d="M64.76,38.516v4.062c0.156-0.024,0.307-0.049,0.464-0.074c5.368-0.783,10.276-1.506,14.434-1.23
			l0.14-3.989C75.204,37.002,70.07,37.731,64.76,38.516L64.76,38.516z"/>
		<path fill="#FFFFFF" d="M61.748,38.946c-1.527,0.218-3.066,0.423-4.617,0.604l-0.143,4.055c1.604-0.173,3.192-0.386,4.76-0.604
			V38.946L61.748,38.946z"/>
		<path fill="#FFFFFF" d="M104.4,28.567c-3.476-0.423-6.817-0.685-9.903-0.446l0.144,3.996c2.901-0.238,6.202,0.041,9.76,0.497
			V28.567L104.4,28.567z"/>
		<path fill="#FFFFFF" d="M117.163,30.315c-2.421-0.274-4.818-0.628-7.183-0.977c-0.862-0.123-1.715-0.25-2.568-0.365v4.055
			c0.656,0.091,1.317,0.185,1.995,0.283c2.584,0.382,5.219,0.776,7.904,1.067L117.163,30.315L117.163,30.315z"/>
		<path fill="#FFFFFF" d="M103.575,37.657c-3.062-0.349-6-0.541-8.75-0.373l0.148,3.989c2.593-0.168,5.481,0.041,8.601,0.422V37.657
			L103.575,37.657z"/>
		<path fill="#FFFFFF" d="M117.491,39.55c-2.533-0.288-5.044-0.653-7.511-1.018c-1.136-0.165-2.273-0.337-3.394-0.489v4.056
			c0.919,0.126,1.855,0.267,2.82,0.405c2.691,0.398,5.441,0.797,8.232,1.101L117.491,39.55L117.491,39.55z"/>
		<path fill="#FFFFFF" d="M109.599,51.717c2.738,0.406,5.528,0.81,8.368,1.109l-0.139-4.055c-2.652-0.291-5.27-0.673-7.848-1.051
			c-0.126-0.025-0.25-0.042-0.381-0.059V51.717L109.599,51.717z"/>
		<path fill="#FFFFFF" d="M106.587,47.232c-4.014-0.555-7.879-0.961-11.438-0.779l0.148,3.996c3.34-0.18,7.152,0.25,11.29,0.838
			V47.232L106.587,47.232z"/>
		<path fill="#FFFFFF" d="M82.09,112.049l5.225-13.066l5.224,13.066l14.048,0.936l-10.818,9.013l3.459,13.638l-11.913-7.506
			l-11.906,7.506l3.451-13.638l-10.813-9.013L82.09,112.049L82.09,112.049z M50.265,107.412v0.008l22.703,16.498l-8.75,26.894
			c0.008,0.049,0.033,0.099,0.074,0.131c0.041,0.033,0.09,0.033,0.14,0.033l22.884-16.642l22.875,16.634
			c0.049,0.008,0.103,0,0.14-0.025c0.074-0.057,0.086-0.155,0.045-0.246l-8.705-26.786l22.699-16.49l-0.008-0.008
			c0.11-0.041,0.168-0.148,0.135-0.255c-0.029-0.099-0.143-0.147-0.25-0.114v-0.009H96.184l-8.667-26.684h-0.013
			c0-0.114-0.077-0.214-0.188-0.214c-0.107,0-0.194,0.1-0.194,0.214h-0.012l-8.663,26.684H50.388l-0.008,0.017
			c-0.107-0.041-0.222,0.016-0.255,0.115C50.097,107.264,50.149,107.379,50.265,107.412L50.265,107.412z"/>
		<path fill="#FFFFFF" d="M143.649,141.139c-2.043,2.26-4.703,3.83-7.641,4.535c0.414-3.005,1.715-5.815,3.759-8.061
			c2.064-2.271,4.719-3.85,7.645-4.543C146.999,136.065,145.702,138.881,143.649,141.139L143.649,141.139z M132.671,123.486
			c-0.39-3.036,0.14-6.079,1.498-8.781c2.003,2.26,3.292,5.064,3.689,8.102c0.407,3.02-0.123,6.064-1.486,8.757
			C134.362,129.311,133.07,126.5,132.671,123.486L132.671,123.486z M138.75,100.514c-0.566-3.014-0.226-6.078,0.969-8.857
			c2.133,2.135,3.595,4.859,4.169,7.863c0.583,2.996,0.242,6.066-0.965,8.854C140.786,106.23,139.329,103.5,138.75,100.514
			L138.75,100.514z M153.253,107.215c0.208,3.029-0.48,6.041-2.02,8.68c-1.539,2.635-3.809,4.72-6.538,6.021
			c-0.214-3.024,0.472-6.036,2.011-8.675C148.254,110.592,150.523,108.516,153.253,107.215L153.253,107.215z M131.018,164.271
			c-2.466,1.789-5.364,2.766-8.409,2.864c1.026-2.864,2.873-5.335,5.338-7.114c2.483-1.808,5.385-2.784,8.418-2.866
			C135.344,160.012,133.492,162.482,131.018,164.271L131.018,164.271z M123.917,144.737c0.247-3.062,1.396-5.918,3.284-8.282
			c1.498,2.615,2.179,5.627,1.937,8.674c-0.23,3.045-1.375,5.924-3.271,8.284C124.37,150.787,123.684,147.783,123.917,144.737
			L123.917,144.737z M115.993,165.191c-0.854,2.922-2.569,5.499-4.908,7.42c-0.923-2.873-0.977-5.959-0.119-8.89
			c0.875-2.938,2.589-5.517,4.925-7.428C116.814,159.158,116.859,162.253,115.993,165.191L115.993,165.191z M120.585,178.438
			c-1.597,2.577-3.915,4.62-6.71,5.86c-1.941,0.87-3.993,1.313-6.11,1.313l0,0c-0.907,0-1.815-0.082-2.709-0.246
			c1.597-2.577,3.915-4.612,6.706-5.86C114.548,178.258,117.623,177.906,120.585,178.438L120.585,178.438z M94.378,179.629
			c1.465-2.7,3.668-4.867,6.349-6.255c0.308,2.996-0.278,6.024-1.736,8.725c-1.44,2.693-3.644,4.854-6.336,6.255
			C92.347,185.341,92.929,182.312,94.378,179.629L94.378,179.629z M60.459,184.299c-2.791-1.24-5.114-3.283-6.71-5.86
			c2.963-0.532,6.033-0.181,8.827,1.067c2.787,1.248,5.105,3.283,6.702,5.86C66.311,185.916,63.237,185.547,60.459,184.299
			L60.459,184.299z M58.341,165.183c-0.861-2.93-0.812-6.024,0.111-8.889c2.327,1.911,4.047,4.481,4.917,7.42
			c0.857,2.938,0.808,6.024-0.119,8.897C60.911,170.69,59.195,168.113,58.341,165.183L58.341,165.183z M73.616,173.374
			c2.672,1.388,4.88,3.555,6.345,6.238c1.445,2.7,2.036,5.729,1.719,8.741c-2.688-1.4-4.896-3.562-6.336-6.255
			C73.896,179.398,73.3,176.37,73.616,173.374L73.616,173.374z M43.321,164.271c-2.475-1.789-4.321-4.26-5.352-7.116
			c3.037,0.082,5.938,1.059,8.413,2.866c2.474,1.779,4.321,4.25,5.347,7.114C48.685,167.037,45.787,166.061,43.321,164.271
			L43.321,164.271z M47.137,136.455c1.893,2.364,3.029,5.221,3.284,8.273c0.233,3.055-0.456,6.059-1.953,8.685
			c-1.896-2.36-3.037-5.239-3.275-8.292C44.959,142.082,45.639,139.07,47.137,136.455L47.137,136.455z M30.685,141.139
			c-2.04-2.258-3.345-5.073-3.759-8.068c2.926,0.693,5.586,2.272,7.642,4.543c2.048,2.245,3.345,5.056,3.759,8.061
			C35.388,144.969,32.729,143.398,30.685,141.139L30.685,141.139z M29.647,121.915c-2.729-1.301-5.002-3.386-6.542-6.021
			c-1.539-2.639-2.225-5.65-2.016-8.68c2.721,1.301,4.999,3.377,6.546,6.025C29.166,115.879,29.856,118.891,29.647,121.915
			L29.647,121.915z M30.447,99.512c0.579-3.004,2.04-5.721,4.174-7.855c1.194,2.779,1.534,5.844,0.969,8.849
			c-0.579,2.995-2.036,5.726-4.178,7.868C30.205,105.586,29.864,102.516,30.447,99.512L30.447,99.512z M36.476,122.798
			c0.398-3.028,1.687-5.833,3.693-8.093c1.363,2.702,1.893,5.745,1.498,8.773c-0.398,3.021-1.687,5.832-3.697,8.085
			C36.603,128.871,36.078,125.826,36.476,122.798L36.476,122.798z M143.658,126.598c4.673-1.407,8.602-4.485,11.044-8.685
			c2.442-4.193,3.197-9.134,2.121-13.907l-0.472-2.089l-2.061,0.606c-2.368,0.711-4.538,1.852-6.435,3.357
			c0.44-2.339,0.44-4.748-0.029-7.115c-0.915-4.785-3.59-9.005-7.534-11.877l-1.741-1.272l-1.145,1.827
			c-2.585,4.115-3.509,9.031-2.601,13.82c0.919,4.752,3.574,8.947,7.485,11.828c-0.727,1.638-1.219,3.353-1.457,5.113
			c-1.162-3.177-3.14-6.024-5.804-8.225l-1.662-1.375l-1.251,1.754c-2.832,3.955-4.055,8.807-3.427,13.641
			c0.628,4.814,3.053,9.193,6.812,12.312l0.09,0.053c-1.108,1.506-1.978,3.144-2.598,4.889c-0.48-3.35-1.822-6.538-3.981-9.252
			l-1.342-1.682l-1.588,1.457c-3.583,3.287-5.773,7.772-6.172,12.64c-0.374,4.843,1.095,9.62,4.128,13.444l0.082,0.099
			c-1.399,1.223-2.586,2.659-3.558,4.227c0.23-3.38-0.431-6.788-1.979-9.883l-0.964-1.92l-1.851,1.1
			c-4.195,2.488-7.269,6.428-8.656,11.098c-1.366,4.67-0.919,9.636,1.273,14.011l0.044,0.106c-1.617,0.92-3.073,2.069-4.346,3.405
			c0.919-3.257,0.977-6.729,0.099-10.07l-0.546-2.076l-2.043,0.682c-4.609,1.559-8.426,4.784-10.752,9.078
			c-2.229,4.146-2.836,8.93-1.749,13.501c-0.611,0.428-1.256,0.861-1.929,1.321c-0.675-0.46-1.312-0.894-1.929-1.321
			c1.088-4.571,0.484-9.355-1.748-13.509c-2.328-4.286-6.144-7.512-10.753-9.07l-2.04-0.682l-0.546,2.076
			c-0.878,3.341-0.821,6.813,0.099,10.07c-1.272-1.336-2.729-2.485-4.35-3.405l0.054-0.106c2.183-4.375,2.63-9.341,1.264-14.011
			c-1.387-4.67-4.461-8.609-8.651-11.098l-1.852-1.1l-0.964,1.92c-1.555,3.095-2.203,6.503-1.978,9.883
			c-0.977-1.575-2.167-3.004-3.558-4.227l0.074-0.099c3.045-3.824,4.51-8.602,4.129-13.453c-0.39-4.858-2.582-9.344-6.173-12.631
			l-1.588-1.457l-1.333,1.682c-2.159,2.714-3.505,5.902-3.981,9.252c-0.624-1.745-1.494-3.383-2.602-4.889l0.091-0.053
			c3.768-3.119,6.189-7.498,6.816-12.312c0.624-4.834-0.59-9.686-3.426-13.641l-1.251-1.754l-1.658,1.375
			c-2.671,2.2-4.65,5.048-5.803,8.232c-0.242-1.769-0.73-3.483-1.461-5.121c3.911-2.881,6.571-7.076,7.486-11.828
			c0.907-4.795-0.017-9.705-2.606-13.82l-1.145-1.827l-1.736,1.272c-3.944,2.872-6.624,7.092-7.543,11.868
			c-0.456,2.376-0.464,4.785-0.025,7.124c-1.892-1.506-4.067-2.646-6.435-3.357l-2.061-0.606l-0.472,2.089
			c-1.075,4.773-0.315,9.714,2.126,13.907c2.441,4.199,6.361,7.277,11.039,8.685l1.818,0.546c0.184,1.522,0.57,3.028,1.12,4.478
			c-2.593-1.662-5.557-2.672-8.684-2.922l-2.139-0.181l-0.033,2.159c-0.065,4.883,1.696,9.549,4.946,13.148
			c3.259,3.604,7.736,5.812,12.603,6.223l1.888,0.154c0.497,1.461,1.182,2.854,2.019,4.137c-2.113-0.787-4.354-1.206-6.656-1.206
			c-0.817,0-1.634,0.049-2.438,0.147l-2.134,0.279l0.415,2.102c0.948,4.801,3.632,9.012,7.563,11.868
			c3.267,2.381,7.149,3.627,11.211,3.627c0.801,0,1.605-0.05,2.397-0.149l1.879-0.235c0.796,1.321,1.744,2.536,2.84,3.637
			c-3.049-0.452-6.181-0.19-9.127,0.836l-2.035,0.716l0.85,1.978c1.912,4.489,5.413,8.051,9.841,10.03
			c2.462,1.099,5.069,1.657,7.748,1.657c2.143,0,4.26-0.362,6.292-1.059l1.498-0.526c2.508,2.127,5.331,4.244,9.205,6.902
			c-1.764,1.166-3.726,2.447-5.917,3.851l3.78,2.339c2.129-1.369,4.021-2.609,5.741-3.759c1.725,1.149,3.612,2.39,5.746,3.759
			l3.775-2.339c-2.192-1.403-4.149-2.685-5.914-3.851c3.87-2.658,6.693-4.775,9.201-6.902l1.498,0.526
			c2.035,0.696,4.153,1.059,6.292,1.059l0,0c2.679,0,5.286-0.559,7.748-1.65c4.436-1.986,7.933-5.548,9.85-10.037l0.837-1.978
			l-2.027-0.716c-2.947-1.026-6.082-1.288-9.127-0.828c1.092-1.101,2.044-2.323,2.84-3.645l1.879,0.235
			c0.792,0.1,1.601,0.149,2.397,0.149l0,0c4.062,0,7.937-1.246,11.208-3.627c3.936-2.856,6.62-7.067,7.563-11.868l0.414-2.102
			l-2.129-0.279c-0.809-0.099-1.629-0.147-2.438-0.147c-2.302,0-4.543,0.419-6.657,1.206c0.837-1.283,1.515-2.676,2.019-4.137
			l1.883-0.154c4.871-0.411,9.345-2.619,12.6-6.223c3.258-3.6,5.015-8.266,4.949-13.148l-0.025-2.159l-2.15,0.181
			c-3.114,0.25-6.081,1.26-8.675,2.922c0.554-1.449,0.931-2.955,1.119-4.478L143.658,126.598L143.658,126.598z"/>
		<path fill="#FFFFFF" d="M144.175,169.032c-4.092,5.983-8.775,11.54-14.417,16.942c-17.405,15.986-36.956,24.828-42.463,27.117
			c-5.508-2.289-25.055-11.131-42.468-27.117c-5.643-5.402-10.321-10.959-14.413-16.942c-19.772-28.953-22.37-62.527-22.387-88.616
			h0.024l79.264-4.402l79.247,4.395C166.542,106.496,163.947,140.079,144.175,169.032L144.175,169.032z M12.254,13.043
			c14.738-1.639,47.864-4.934,75.062-4.934c27.188,0,60.319,3.295,75.052,4.934l4.125,58.057H87.315H8.134L12.254,13.043
			L12.254,13.043z M174.597,6.324l-3.513-0.439C170.617,5.828,123.803,0,87.34,0c-0.008,0-0.016,0-0.024,0s-0.021,0-0.029,0
			C50.827,0,4.014,5.828,3.55,5.885L0.033,6.324V71.1H0v9.037c0,27.292,2.705,62.557,23.786,93.435
			c4.347,6.361,9.284,12.23,15.197,17.935l-0.004,0.008c0.041,0.033,0.078,0.065,0.119,0.099
			c11.438,11.007,26.552,21.381,48.176,33.431v0.032c0.008-0.017,0.012-0.017,0.021-0.017s0.012,0,0.021,0.017v-0.032
			c21.618-12.05,36.738-22.424,48.175-33.431c0.041-0.033,0.078-0.065,0.115-0.099v-0.008c5.914-5.704,10.846-11.573,15.202-17.935
			c21.077-30.878,23.786-66.143,23.786-93.435v-1.283h0.004V6.324L174.597,6.324z"/>
	</g>
	<g>
		<polygon fill="#FFFFFF" points="222.018,13.399 222.018,59.133 232.089,59.133 243.982,26.318 282.74,25.797 282.74,182.395 
			251.73,185.761 253.022,194.806 296.434,194.024 338.294,194.806 339.588,185.761 309.87,182.395 309.87,25.797 348.633,26.318 
			360.521,59.133 370.602,59.133 370.602,13.399 296.18,14.176 		"/>
		<polygon fill="#FFFFFF" points="506.266,181.887 435.209,182.657 435.209,105.13 471.384,106.164 481.727,133.3 490.771,133.3 
			488.182,98.416 490.771,66.109 481.727,66.109 471.384,93.245 435.209,94.279 435.209,25.539 503.691,26.318 518.15,59.909 
			526.951,59.909 524.356,13.399 421.772,14.176 386.114,13.399 384.816,22.444 408.074,25.797 408.074,182.395 384.816,185.761 
			386.114,194.806 421.772,194.024 524.356,194.806 533.401,146.996 523.585,146.996 		"/>
		<path fill="#FFFFFF" d="M806.295,11.072l-15.504,4.396l-64.088,167.453l-12.442,1.674l-12.369-1.938l-57.364-84.504l52.963-72.869
			l20.16-2.84l-1.279-9.045l-30.238,0.776l-30.238-0.776l-1.295,9.045l22.488,3.353L636.064,86.08l-36.499-60.541l21.964-3.354
			l-1.29-9.045l-36.696,1.035l-36.951-1.035l-1.297,9.045l20.158,2.84l53.489,80.881l-55.813,76.751l-20.16,2.84l1.299,9.309
			l28.941-0.781l30.229,0.781l1.296-9.309l-21.191-3.103l44.053-64.443l40.185,64.188l-21.965,3.357l1.297,9.309l36.952-0.781
			l30.196,0.642l21.225-0.642l31.01,0.781l1.297-9.045l-22.493-3.366l16.814-48.324h63.824l17.572,48.324l-21.973,3.366l1.298,9.045
			l34.108-0.781l35.666,0.781l1.285-9.045l-20.155-2.84L806.295,11.072z M766.248,121.924l26.8-77.482l28.234,77.482H766.248z"/>
		<path fill="#FFFFFF" d="M981.509,93.245l-29.731-12.919c-14.197-6.205-24.276-14.987-24.276-29.203
			c0-17.314,12.147-28.429,32.552-28.429c15.514,0,23.778,5.692,30.496,12.669l7.49,23.512h12.919V23.992
			c-12.919-9.559-31.01-14.988-47.278-14.988c-35.924,7.498-61.773,24.033-61.773,52.197c0,22.999,15.252,34.884,33.857,42.895
			l31.266,13.695c15.514,6.722,26.872,16.801,26.872,34.365c0,18.869-12.919,32.824-35.138,32.824
			c-14.469,0-28.686-6.723-36.434-16.275l-9.045-21.965h-18.091l5.679,34.884c13.709,10.85,29.73,17.563,53.501,17.563
			c48.573-10.071,65.12-33.586,65.12-57.877C1019.749,114.946,1001.913,102.027,981.509,93.245z"/>
	</g>
</g>
</svg>
