<?xml version="1.0" encoding="utf-8"?>
<!-- Generator: Adobe Illustrator 18.0.0, SVG Export Plug-In . SVG Version: 6.00 Build 0)  -->
<!DOCTYPE svg PUBLIC "-//W3C//DTD SVG 1.1//EN" "http://www.w3.org/Graphics/SVG/1.1/DTD/svg11.dtd">
<svg version="1.1" id="Layer_1" xmlns="http://www.w3.org/2000/svg" xmlns:xlink="http://www.w3.org/1999/xlink" x="0px" y="0px"
	 viewBox="2.5 263.2 609 265.6" enable-background="new 2.5 263.2 609 265.6" xml:space="preserve">
<g>
	<path fill="#FFFFFF" d="M545.6,509.8l63.6,0.6c0,0,0.6,0.2,0.6,0.8c0,0.5-0.6,0.8-0.6,0.8l-63.6,0.6l-63.6,0.6c0,0-1.6-0.4-1.6-2.1
		s1.6-2.1,1.6-2.1L545.6,509.8z"/>
	<path fill="#FFFFFF" d="M74.4,512.6L10.8,512c0,0-0.6-0.2-0.6-0.8c0-0.5,0.6-0.7,0.6-0.7l63.6-0.6l63.6-0.6c0,0,1.6,0.4,1.6,2.1
		s-1.6,2.1-1.6,2.1L74.4,512.6z"/>
	<path fill="#FFFFFF" d="M21.6,266.8l-7.3,0.1c-2.8,0-4,0.4-4.7,1.5c-0.5,0.7-0.6,1.3-0.7,1.7c-0.1,0.4-0.2,0.6-0.6,0.6
		c-0.4,0-0.5-0.2-0.5-0.7c0-0.8,1-5.3,1.1-5.7c0.1-0.6,0.2-0.8,0.6-0.8c0.4,0,0.8,0.4,2.1,0.6c1.5,0.1,3.3,0.2,4.8,0.2H36
		c1.6,0,2.5-0.1,3.3-0.2c0.7-0.1,1.2-0.2,1.3-0.2c0.4,0,0.4,0.2,0.4,1c0,1-0.1,4.5-0.1,5.7c0,0.5-0.1,0.7-0.5,0.7s-0.5-0.2-0.6-1
		v-0.5c-0.1-1.2-1.3-2.7-5.7-2.7L28,267v18.9c0,4.2,0,8,0.2,10.1c0.1,1.3,0.5,2.2,1.8,2.4c0.6,0.1,1.8,0.1,2.4,0.1
		c0.6,0,0.7,0.2,0.7,0.5c0,0.4-0.4,0.5-1,0.5c-3.2,0-6.4-0.1-7.9-0.1c-1.1,0-4.4,0.1-6.3,0.1c-0.6,0-1-0.1-1-0.5
		c0-0.2,0.1-0.5,0.7-0.5c0.7,0,1.3,0,1.7-0.1c1-0.2,1.2-1.1,1.5-2.4c0.2-1.9,0.2-5.7,0.2-9.9v-19.1H21.6z"/>
	<path fill="#FFFFFF" d="M76.7,279.3c0.1,0,0.2,0,0.2-0.4v-1c0-7.1,0-8.8-0.1-10.3c0-1.6-0.5-2.2-2.1-2.5c-0.4-0.1-1.2-0.1-1.8-0.1
		s-0.8-0.1-0.8-0.5s0.4-0.5,1.1-0.5c2.5,0,6.1,0.1,7.3,0.1c1.2,0,4.4-0.1,6.2-0.1c0.7,0,1.1,0.1,1.1,0.5s-0.4,0.5-0.8,0.5
		c-0.4,0-0.8,0-1.5,0.1c-1.2,0.2-1.7,0.8-1.8,2.5c-0.1,1.5-0.1,2.8-0.1,9.9v8.2c0,4.4,0,8,0.2,10.1c0.1,1.3,0.5,2.2,1.9,2.4
		c0.6,0.1,1.7,0.1,2.4,0.1c0.5,0,0.7,0.2,0.7,0.5c0,0.4-0.4,0.5-1,0.5c-3.2,0-6.3-0.1-7.6-0.1c-1.1,0-4.5,0.1-6.4,0.1
		c-0.6,0-1.1-0.1-1.1-0.5c0-0.2,0.2-0.5,0.7-0.5c0.7,0,1.3,0,1.8-0.1c1-0.2,1.2-1.1,1.5-2.4c0.2-1.9,0.2-5.6,0.2-9.8v-3.6
		c0-0.1-0.1-0.2-0.2-0.2H58.4c-0.1,0-0.4,0-0.4,0.2v3.6c0,4.2,0,7.9,0.2,9.9c0.1,1.3,0.5,2.2,1.8,2.4c0.6,0.1,1.8,0.1,2.4,0.1
		c0.6,0,0.7,0.2,0.7,0.5c0,0.4-0.4,0.5-1,0.5c-3.2,0-6.5-0.1-7.9-0.1c-1.1,0-4.2,0.1-6.2,0.1c-0.6,0-1-0.1-1-0.5
		c0-0.2,0.1-0.5,0.7-0.5c0.7,0,1.2,0,1.7-0.1c1-0.2,1.2-1.1,1.5-2.4c0.2-1.9,0.2-5.7,0.2-9.9v-8.5c0-7.1,0-8.5,0-9.9
		c-0.1-1.6-0.6-2.1-2.1-2.5c-0.4-0.1-1.2-0.1-1.9-0.1c-0.5,0-0.8-0.1-0.8-0.5s0.4-0.5,1.1-0.5c2.5,0,5.8,0.1,7.1,0.1
		c1.2,0,4.5-0.1,6.4-0.1c0.6,0,1,0.1,1,0.5s-0.2,0.5-0.8,0.5c-0.4,0-0.8,0-1.3,0.1c-1.3,0.2-1.7,0.8-1.8,2.5c0,1.5,0,3.2,0,10.3v1
		c0,0.2,0.1,0.4,0.4,0.4C58.5,279.3,76.7,279.3,76.7,279.3z"/>
	<path fill="#FFFFFF" d="M100,277.6c0-7.1,0-8.5,0-9.9c-0.2-1.6-0.6-2.2-2.2-2.5c-0.4-0.1-1.2-0.1-1.9-0.1c-0.5,0-0.8-0.1-0.8-0.5
		s0.4-0.5,1.1-0.5c2.5,0,5.6,0.1,7,0.1c1.6,0,12.2,0,13.2,0c0.8,0,1.7-0.2,2.1-0.2c0.2,0,0.6-0.2,0.7-0.2c0.2,0,0.4,0.2,0.4,0.5
		c0,0.4-0.2,0.8-0.4,3c0,0.5-0.1,2.5-0.2,3c0,0.2-0.1,0.7-0.6,0.7c-0.4,0-0.4-0.2-0.4-0.6s0-1.2-0.4-1.7c-0.4-0.8-0.7-1.5-3.2-1.7
		c-0.8-0.1-6.7-0.2-7.6-0.2c-0.2,0-0.4,0.1-0.4,0.5v11.5c0,0.2,0,0.5,0.4,0.5c1.1,0,7.4,0,8.5-0.1c1.2-0.1,1.8-0.2,2.3-0.7
		c0.4-0.4,0.6-0.6,0.7-0.6c0.2,0,0.4,0.2,0.4,0.5c0,0.2-0.1,1.1-0.4,3.4c-0.1,1-0.2,2.8-0.2,3.2s0,1.1-0.5,1.1
		c-0.4,0-0.5-0.1-0.5-0.4c0-0.5,0-1.1-0.1-1.7c-0.2-1-0.8-1.7-2.7-1.8c-0.8-0.1-6.4-0.2-7.6-0.2c-0.2,0-0.2,0.2-0.2,0.5v3.8
		c0,1.6,0,5.6,0,6.9c0.1,3.2,1.6,3.9,6.5,3.9c1.2,0,3.3,0,4.6-0.6c1.2-0.6,1.8-1.6,2.1-3.5c0.1-0.5,0.2-0.7,0.6-0.7
		c0.4,0,0.5,0.6,0.5,1.1c0,1.1-0.4,4.2-0.6,5.2c-0.4,1.2-0.7,1.2-2.5,1.2c-3.6,0-6.5,0-9-0.1c-2.4,0-4.2-0.1-5.6-0.1
		c-0.6,0-1.6,0-2.8,0c-1.2,0-2.4,0.1-3.4,0.1c-0.6,0-1-0.1-1-0.5c0-0.2,0.1-0.5,0.7-0.5c0.7,0,1.2,0,1.7-0.1c1-0.2,1.2-1.1,1.5-2.4
		c0.2-1.9,0.2-5.7,0.2-9.9C100,285.9,100,277.6,100,277.6z"/>
	<path fill="#FFFFFF" d="M151.8,277.6c0-7.1,0-8.5,0-9.9c-0.1-1.7-0.6-2.1-2.1-2.5c-0.4-0.1-1.2-0.1-1.8-0.1s-0.8-0.1-0.8-0.5
		s0.4-0.5,1.1-0.5c2.5,0,5.8,0.1,7.3,0.1c1.2,0,4.5-0.1,6.2-0.1c0.7,0,1.1,0.1,1.1,0.5s-0.2,0.5-0.7,0.5c-0.6,0-0.8,0-1.5,0.1
		c-1.2,0.2-1.7,0.8-1.8,2.5c-0.1,1.5-0.1,2.8-0.1,9.9v6.5c0,6.8,1.3,9.5,3.6,11.4c2.2,1.7,4.5,1.8,6.1,1.8c2.1,0,4.6-0.6,6.5-2.4
		c2.7-2.5,2.8-6.7,2.8-11.4v-5.9c0-7.1,0-8.5-0.1-9.9c-0.1-1.6-0.5-2.1-2.1-2.5c-0.4-0.1-1.2-0.1-1.8-0.1s-0.8-0.1-0.8-0.5
		s0.4-0.5,1-0.5c2.4,0,5.7,0.1,5.8,0.1c0.6,0,3.8-0.1,5.7-0.1c0.6,0,1,0.1,1,0.5s-0.2,0.5-0.8,0.5s-0.8,0-1.5,0.1
		c-1.3,0.2-1.7,0.8-1.8,2.5c0,1.5-0.1,2.8-0.1,9.9v5c0,5.2-0.6,10.8-4.6,14.1c-3.4,2.9-7.1,3.4-10.3,3.4c-2.5,0-7.5-0.1-11-3.2
		c-2.4-2.2-4.4-5.6-4.4-12.4v-6.9H151.8z"/>
	<path fill="#FFFFFF" d="M200.2,293c0.1,3.6,0.7,4.7,1.7,5.1c0.8,0.2,1.8,0.4,2.5,0.4c0.6,0,0.8,0.2,0.8,0.5c0,0.4-0.5,0.5-1.1,0.5
		c-3.2,0-5.5-0.1-6.3-0.1c-0.5,0-2.8,0.1-5.2,0.1c-0.6,0-1.1,0-1.1-0.5c0-0.2,0.4-0.5,0.7-0.5c0.6,0,1.6,0,2.2-0.2
		c1.2-0.4,1.5-1.6,1.5-5.7l0.5-27.7c0-1,0.4-1.6,0.8-1.6c0.6,0,1.2,0.7,2.1,1.6c0.6,0.6,7.9,8,14.9,14.9c3.3,3.3,9.8,9.8,10.4,10.5
		h0.2l-0.5-20.8c0-2.9-0.5-3.6-1.7-4.1c-0.7-0.2-1.8-0.2-2.5-0.2c-0.6,0-0.7-0.2-0.7-0.5c0-0.4,0.5-0.5,1.2-0.5
		c2.5,0,5.1,0.1,6.2,0.1c0.6,0,2.4-0.1,4.7-0.1c0.6,0,1.1,0,1.1,0.5c0,0.2-0.2,0.5-0.8,0.5c-0.5,0-0.8,0-1.5,0.1
		c-1.3,0.4-1.7,1.2-1.8,3.9l-0.6,29.6c0,1.1-0.4,1.5-0.7,1.5c-0.8,0-1.5-0.5-1.9-1c-3-2.8-9.1-8.6-14.2-13.4
		c-5.3-5.1-10.4-10.8-11.4-11.6h-0.1L200.2,293z"/>
	<path fill="#FFFFFF" d="M246.1,277.6c0-7.1,0-8.5,0-9.9c-0.1-1.6-0.6-2.2-1.7-2.4c-0.6-0.1-1.2-0.2-1.8-0.2c-0.5,0-0.7-0.1-0.7-0.6
		c0-0.2,0.4-0.4,1.2-0.4c1.8,0,5.1,0.1,6.5,0.1c1.2,0,4.4-0.1,6.2-0.1c0.6,0,1,0.1,1,0.4c0,0.5-0.2,0.6-0.7,0.6
		c-0.5,0-0.8,0-1.5,0.1c-1.3,0.2-1.7,0.8-1.8,2.5c-0.1,1.5-0.1,2.8-0.1,9.9v8.2c0,4.5,0,8.2,0.2,10.3c0.1,1.2,0.5,1.9,1.9,2.2
		c0.6,0.1,1.8,0.1,2.4,0.1c0.6,0,0.7,0.2,0.7,0.5c0,0.4-0.4,0.5-1,0.5c-3.2,0-6.5-0.1-7.9-0.1c-1.1,0-4.4,0.1-6.3,0.1
		c-0.6,0-1-0.1-1-0.5c0-0.2,0.1-0.5,0.7-0.5c0.7,0,1.2,0,1.7-0.1c1-0.2,1.2-0.8,1.5-2.3c0.2-1.9,0.2-5.7,0.2-10.2v-8.2H246.1z"/>
	<path fill="#FFFFFF" d="M269.1,268.7c-1.1-2.5-1.8-3-3.6-3.5c-0.7-0.1-1.5-0.1-1.9-0.1c-0.5,0-0.6-0.2-0.6-0.5
		c0-0.4,0.5-0.5,1.2-0.5c2.5,0,5.3,0.1,7,0.1c1.2,0,3.8-0.1,6.2-0.1c0.6,0,1.2,0.1,1.2,0.5s-0.4,0.5-0.7,0.5c-0.7,0-1.5,0-1.8,0.4
		c-0.4,0.2-0.5,0.5-0.5,1c0,0.6,0.5,1.8,1.1,3.5l8.1,21h0.1c2.1-4.8,8.4-20,9.5-23c0.2-0.6,0.5-1.3,0.5-1.7c0-0.5-0.2-0.6-0.6-0.8
		c-0.6-0.1-1.3-0.2-1.9-0.2c-0.5,0-0.8-0.1-0.8-0.5s0.5-0.5,1.3-0.5c2.4,0,4.6,0.1,5.2,0.1c0.8,0,3-0.1,4.6-0.1c0.6,0,1,0.1,1,0.5
		s-0.2,0.5-0.7,0.5s-1.6,0-2.4,0.6c-0.6,0.5-1.2,1.2-2.5,4.1c-1.9,4.4-3.2,6.9-5.8,12.7c-3,6.8-5.3,12-6.4,14.3
		c-1.2,2.7-1.7,3.4-2.3,3.4c-0.6,0-1.1-0.6-1.9-2.8L269.1,268.7z"/>
	<path fill="#FFFFFF" d="M312.6,277.6c0-7.1,0-8.5,0-9.9c-0.1-1.6-0.6-2.1-2.1-2.5c-0.4-0.1-1.2-0.1-1.9-0.1c-0.5,0-0.8-0.1-0.8-0.5
		s0.4-0.5,1.1-0.5c2.5,0,5.6,0.1,7,0.1c1.6,0,12.2,0,13.2,0c0.8,0,1.7-0.2,2.1-0.2c0.2,0,0.6-0.2,0.7-0.2c0.2,0,0.4,0.2,0.4,0.5
		c0,0.4-0.2,0.8-0.4,3c0,0.5-0.1,2.5-0.2,3c0,0.2-0.1,0.7-0.6,0.7c-0.4,0-0.4-0.2-0.4-0.6s0-1.2-0.4-1.7c-0.4-0.8-0.7-1.5-3.2-1.7
		c-0.8-0.1-6.7-0.2-7.6-0.2c-0.2,0-0.4,0.1-0.4,0.5v11.5c0,0.2,0,0.5,0.4,0.5c1.1,0,7.4,0,8.5-0.1c1.2-0.1,1.8-0.2,2.3-0.7
		c0.4-0.4,0.6-0.6,0.7-0.6c0.2,0,0.4,0.2,0.4,0.5s-0.1,1.1-0.4,3.4c-0.1,1-0.2,2.8-0.2,3.2s0,1.1-0.5,1.1c-0.4,0-0.5-0.1-0.5-0.4
		c0-0.5,0-1.1-0.1-1.7c-0.2-1-0.8-1.7-2.7-1.8c-0.8-0.1-6.4-0.2-7.6-0.2c-0.2,0-0.2,0.2-0.2,0.5v3.8c0,1.6,0,5.6,0,6.9
		c0.1,3.2,1.6,3.9,6.5,3.9c1.2,0,3.3,0,4.6-0.6c1.2-0.6,1.8-1.6,2.1-3.5c0.1-0.5,0.2-0.7,0.6-0.7s0.5,0.6,0.5,1.1
		c0,1.1-0.4,4.2-0.6,5.2c-0.4,1.2-0.7,1.2-2.5,1.2c-3.6,0-6.5,0-9-0.1c-2.4,0-4.2-0.1-5.6-0.1c-0.6,0-1.6,0-2.8,0
		c-1.2,0-2.4,0.1-3.4,0.1c-0.6,0-1-0.1-1-0.5c0-0.2,0.1-0.5,0.7-0.5c0.7,0,1.2,0,1.7-0.1c1-0.2,1.2-1.1,1.5-2.4
		c0.2-1.9,0.2-5.7,0.2-9.9v-8.2H312.6z"/>
	<path fill="#FFFFFF" d="M347,277.6c0-7.1,0-8.5,0-9.9c-0.1-1.6-0.6-2.1-2.1-2.5c-0.4-0.1-1.2-0.1-1.9-0.1c-0.5,0-0.8-0.1-0.8-0.5
		s0.4-0.5,1.1-0.5c2.5,0,5.6,0.1,6.7,0.1c1.7,0,6.1-0.1,7.5-0.1c3,0,6.7,0.2,9.2,1.9c1.3,1,3.4,3.3,3.4,6.4c0,3.5-1.9,6.5-6.7,10.4
		c4.2,5.3,7.8,9.6,10.7,12.5c2.7,2.7,4.4,2.9,5.2,3c0.5,0.1,0.7,0.1,1.2,0.1c0.4,0,0.6,0.2,0.6,0.5c0,0.4-0.4,0.5-1,0.5h-4.6
		c-2.7,0-4-0.2-5.3-1c-2.1-1.1-3.9-3.3-6.7-6.9c-1.9-2.5-4-5.7-4.6-6.4c-0.2-0.2-0.6-0.4-0.8-0.4l-4.4-0.1c-0.2,0-0.4,0.1-0.4,0.4
		v0.6c0,4.4,0,8,0.2,9.9c0.1,1.3,0.4,2.3,1.8,2.4c0.7,0.1,1.8,0.1,2.4,0.1c0.4,0,0.6,0.2,0.6,0.5c0,0.4-0.4,0.5-1,0.5
		c-2.8,0-6.8-0.1-7.5-0.1c-1,0-4,0.1-5.9,0.1c-0.6,0-1-0.1-1-0.5c0-0.2,0.1-0.5,0.7-0.5c0.7,0,1.2,0,1.7-0.1c1-0.2,1.2-1.1,1.5-2.4
		c0.2-1.9,0.2-5.7,0.2-9.9v-8H347z M353.2,281.3c0,0.5,0.1,0.6,0.5,0.8c1.1,0.4,2.4,0.5,3.6,0.5c1.9,0,2.5-0.1,3.4-0.7
		c1.5-1.1,3.2-3,3.2-6.9c0-6.7-4.5-8.4-7.4-8.4c-1.2,0-2.4,0-2.9,0.1c-0.4,0.1-0.5,0.2-0.5,0.6v13.9H353.2z"/>
	<path fill="#FFFFFF" d="M384.5,298.8c-0.7-0.4-1-0.6-1-1.6c0-2.5,0.2-5.5,0.2-6.2c0-0.7,0.2-1.2,0.6-1.2c0.5,0,0.5,0.5,0.5,0.7
		c0,0.6,0.1,1.6,0.5,2.4c1.1,3.5,4.7,4.6,7.8,4.6c4.2,0,6.8-2.7,6.8-5.9c0-2.1-0.5-4.1-4.8-6.7l-2.8-1.7c-5.7-3.4-7.6-6.5-7.6-10.7
		c0-5.7,5.6-9.5,12.2-9.5c3.2,0,5.6,0.5,6.9,0.7c0.5,0.1,0.6,0.2,0.6,0.6c0,0.6-0.1,1.9-0.1,5.6c0,1-0.2,1.5-0.6,1.5
		c-0.4,0-0.5-0.2-0.5-0.8c0-0.5-0.2-1.8-1.2-3c-0.7-0.8-2.3-2.2-5.5-2.2c-3.5,0-6.7,1.8-6.7,5c0,2.1,0.7,3.8,5.1,6.2l1.9,1.1
		c6.4,3.5,8.4,7.1,8.4,11.4c0,3.5-1.3,6.3-4.8,8.7c-2.3,1.7-5.5,1.9-8.1,1.9C389.5,300,386.6,299.8,384.5,298.8"/>
	<path fill="#FFFFFF" d="M419.5,277.6c0-7.1,0-8.5,0-9.9c-0.1-1.6-0.6-2.2-1.7-2.4c-0.6-0.1-1.2-0.2-1.8-0.2c-0.5,0-0.7-0.1-0.7-0.6
		c0-0.2,0.4-0.4,1.2-0.4c1.8,0,5.1,0.1,6.5,0.1c1.2,0,4.4-0.1,6.2-0.1c0.6,0,1,0.1,1,0.4c0,0.5-0.2,0.6-0.7,0.6s-0.8,0-1.5,0.1
		c-1.3,0.2-1.7,0.8-1.8,2.5c-0.1,1.5-0.1,2.8-0.1,9.9v8.2c0,4.5,0,8.2,0.2,10.3c0.1,1.2,0.5,1.9,1.9,2.2c0.6,0.1,1.8,0.1,2.4,0.1
		c0.6,0,0.7,0.2,0.7,0.5c0,0.4-0.4,0.5-1,0.5c-3.2,0-6.5-0.1-7.9-0.1c-1.1,0-4.4,0.1-6.3,0.1c-0.6,0-1-0.1-1-0.5
		c0-0.2,0.1-0.5,0.7-0.5c0.7,0,1.2,0,1.7-0.1c1-0.2,1.2-0.8,1.5-2.3c0.2-1.9,0.2-5.7,0.2-10.2v-8.2H419.5z"/>
	<path fill="#FFFFFF" d="M450.6,266.8l-7.3,0.1c-2.8,0-4,0.4-4.7,1.5c-0.5,0.6-0.7,1.2-0.8,1.6c-0.1,0.4-0.2,0.6-0.6,0.6
		s-0.5-0.2-0.5-0.7c0-0.7,1-5.3,1.1-5.7c0.1-0.6,0.2-0.8,0.6-0.8c0.4,0,0.8,0.4,2.1,0.6c1.5,0.1,3.3,0.2,4.8,0.2h19.6
		c1.6,0,2.5-0.1,3.3-0.2s1.2-0.2,1.3-0.2c0.4,0,0.4,0.2,0.4,1c0,1-0.1,4.5-0.1,5.7c0,0.5-0.1,0.7-0.5,0.7c-0.4,0-0.5-0.2-0.6-1v-0.5
		c-0.1-1.2-1.3-2.7-5.7-2.7l-6.2-0.1v18.9c0,4.2,0,8,0.2,10.1c0.1,1.3,0.5,2.2,1.8,2.4c0.6,0.1,1.8,0.1,2.4,0.1
		c0.6,0,0.7,0.2,0.7,0.5c0,0.4-0.4,0.5-1,0.5c-3.2,0-6.4-0.1-7.9-0.1c-1.1,0-4.4,0.1-6.3,0.1c-0.6,0-1-0.1-1-0.5
		c0-0.2,0.1-0.5,0.7-0.5c0.7,0,1.3,0,1.7-0.1c1-0.2,1.3-1.1,1.5-2.4c0.2-1.9,0.2-5.7,0.2-9.9v-19H450.6z"/>
	<path fill="#FFFFFF" d="M489.5,287.3c0-2.5-0.5-3.5-1.1-4.8c-0.4-0.7-6.9-11-8.6-13.4c-1.2-1.7-2.2-2.8-3.2-3.3
		c-0.6-0.4-1.5-0.6-2.1-0.6c-0.4,0-0.7-0.1-0.7-0.5s0.4-0.5,1-0.5c0.8,0,4.5,0.1,6.1,0.1c1.1,0,3.3-0.1,5.6-0.1
		c0.5,0,0.7,0.1,0.7,0.5s-0.4,0.4-1.1,0.6c-0.4,0.1-0.6,0.4-0.6,0.7s0.2,1,0.6,1.6c0.8,1.5,7.3,12.4,8,13.7
		c0.6-1.1,6.5-11.1,7.3-12.6c0.5-1.1,0.7-1.8,0.7-2.4c0-0.5-0.2-0.8-1.1-1.1c-0.5-0.1-0.8-0.1-0.8-0.6c0-0.4,0.2-0.5,0.8-0.5
		c1.6,0,3.3,0.1,4.7,0.1c1.1,0,4.2-0.1,5.2-0.1c0.6,0,0.8,0.1,0.8,0.4c0,0.4-0.4,0.6-1,0.6c-0.5,0-1.3,0.2-2.1,0.6
		c-1.1,0.5-1.5,1-2.5,2.2c-1.6,1.8-8.5,13-9.5,15c-0.7,1.7-0.6,3.2-0.6,4.7v3.8c0,0.7,0,2.7,0.1,4.7c0.1,1.3,0.6,2.3,1.9,2.4
		c0.7,0.1,1.8,0.1,2.4,0.1c0.6,0,0.8,0.2,0.8,0.5c0,0.4-0.4,0.5-1.1,0.5c-3,0-6.3-0.1-7.6-0.1c-1.2,0-4.5,0.1-6.3,0.1
		c-0.6,0-1.1-0.1-1.1-0.5c0-0.2,0.2-0.5,0.7-0.5c0.7,0,1.3,0,1.7-0.1c1-0.2,1.3-1.1,1.5-2.4c0.1-1.9,0.1-3.9,0.1-4.7v-4H489.5z"/>
	<path fill="#FFFFFF" d="M532.8,281.7c0-8,5.6-18.3,20.4-18.3c12.2,0,19.9,6.8,19.9,17.6s-7.9,19.1-20.4,19.1
		C538.6,300,532.8,290,532.8,281.7 M565.7,282.6c0-10.4-6.2-16.7-14.1-16.7c-5.5,0-11.8,2.9-11.8,14.4c0,9.7,5.6,17.2,14.7,17.2
		C558.1,297.5,565.7,295.9,565.7,282.6"/>
	<path fill="#FFFFFF" d="M589.5,286c0,4.5,0,7.9,0.2,9.8c0.1,1.3,0.5,2.3,1.9,2.4c0.6,0.1,1.7,0.1,2.4,0.1c0.6,0,0.8,0.2,0.8,0.5
		c0,0.4-0.4,0.5-1.1,0.5c-3,0-6.5-0.1-7.8-0.1c-1.2,0-4.4,0.1-6.2,0.1c-0.6,0-1-0.1-1-0.5c0-0.2,0.1-0.5,0.7-0.5
		c0.7,0,1.2,0,1.7-0.1c1-0.2,1.2-1.1,1.5-2.4c0.2-1.9,0.2-5.5,0.2-9.9v-8.2c0-7.1,0-8.5,0-9.9c-0.1-1.6-0.6-2.2-2.1-2.5
		c-0.4-0.1-1.2-0.1-1.9-0.1c-0.5,0-0.8-0.1-0.8-0.5s0.4-0.5,1.2-0.5c2.4,0,5.6,0.1,6.9,0.1c1.8,0,12.6,0,13.8,0
		c0.8,0,1.5-0.1,1.9-0.2c0.2,0,0.5-0.2,0.7-0.2c0.1,0,0.4,0.2,0.4,0.5c0,0.4-0.2,0.8-0.4,2.1c0,0.5-0.1,3.3-0.2,3.8
		c0,0.4-0.1,1-0.5,1s-0.6-0.2-0.6-0.7c0-0.4,0-1.1-0.2-1.8c-0.4-0.6-1.2-1.3-3.2-1.5l-8.1-0.2c-0.2,0-0.5,0.1-0.5,0.6v11.5
		c0,0.2,0,0.5,0.4,0.5h6.8c0.8,0,1.5,0,2.2,0c0.8,0,1.6-0.2,2.1-0.8c0.2-0.2,0.4-0.5,0.6-0.5c0.1,0,0.2,0.1,0.2,0.5
		c0,0.2-0.2,1.6-0.4,3c-0.1,1-0.1,3-0.1,3.4s0,1.1-0.6,1.1c-0.2,0-0.5-0.4-0.5-0.6c0-0.4-0.1-0.8-0.4-1.5c-0.2-0.6-0.8-1.6-2.3-1.7
		c-1.2-0.1-6.9-0.1-7.8-0.1c-0.2,0-0.4,0-0.4,0.4v3.5H589.5z"/>
	<path fill="#FFFFFF" d="M52.9,342.2l-26.5,0.6c-10.3,0.2-14.5,1.3-17.2,5.1c-1.8,2.3-2.7,4.5-3,5.7c-0.4,1.3-0.8,2.2-2.1,2.2
		s-1.6-1-1.6-2.8c0-2.8,3.4-18.9,3.9-20.2c0.4-2.2,1-3.2,2.1-3.2c1.5,0,3.3,1.3,7.8,1.9c5.2,0.6,12,0.7,17.8,0.7h73.8
		c5.7,0,9.6-0.4,12.1-0.7c2.8-0.4,4.2-0.8,4.8-0.8c1.2,0,1.5,1,1.5,3.5c0,3.5-0.4,15.9-0.4,20.2c-0.2,1.8-0.6,2.8-1.6,2.8
		c-1.5,0-1.8-0.8-2.1-3.4L122,352c-0.4-4.4-6.5-9.5-22.5-9.7L76.9,342v67.6c0,15.4,0.2,28.5,1,35.7c0.6,4.7,1.6,7.9,6.9,8.6
		c2.4,0.4,6.5,0.6,9.1,0.6c2.1,0,2.8,1,2.8,1.8c0,1.2-1.5,1.8-3.4,1.8c-11.8,0-23.7-0.6-28.8-0.6c-4,0-16.2,0.6-23.3,0.6
		c-2.2,0-3.4-0.6-3.4-1.8c0-0.7,0.6-1.8,2.8-1.8c2.7,0,4.8-0.2,6.3-0.6c3.6-0.7,4.6-3.9,5.3-8.8c0.8-7,0.8-20.2,0.8-35.6v-67.2H52.9
		z"/>
	<path fill="#FFFFFF" d="M152.8,380.2c0-25.3,0-30-0.2-35.4c-0.4-5.7-2.1-7.5-7.8-9.1c-1.5-0.4-4.5-0.6-7.1-0.6c-1.8,0-3-0.6-3-1.8
		s1.5-1.6,4-1.6c9.3,0,20.7,0.4,25.7,0.4c5.7,0,47.7,0.2,51.1,0c3.3-0.2,6.1-0.7,7.5-1c1-0.2,2.1-0.7,2.8-0.7c1,0,1.2,0.7,1.2,1.6
		c0,1.2-1,3.2-1.5,10.8c-0.2,1.8-0.6,9.1-1,11c-0.2,0.8-0.6,2.8-2.1,2.8c-1.2,0-1.5-0.8-1.5-2.2c0-1.2-0.2-4.1-1.2-6.1
		c-1.5-2.9-2.8-5.3-11.8-6.1c-3-0.4-26.8-0.7-30.4-0.7c-0.8,0-1.2,0.6-1.2,1.6v41.3c0,1,0.2,1.8,1.2,1.8c4,0,29.7,0,33.7-0.4
		c4.2-0.4,6.9-0.7,8.5-2.5c1.5-1.2,2.1-2.2,2.8-2.2c0.8,0,1.5,0.8,1.5,1.8c0,1-0.4,3.8-1.5,12.2c-0.4,3.4-0.8,10.1-0.8,11.3
		c0,1.3-0.2,3.8-1.8,3.8c-1.2,0-1.6-0.6-1.6-1.3c-0.2-1.8-0.2-3.9-0.6-6.1c-1-3.4-3.3-5.9-9.9-6.5c-3.3-0.4-26.1-0.8-30.4-0.8
		c-0.8,0-1,0.8-1,1.8v13.3c0,5.7-0.2,19.9,0,24.8c0.4,11.4,8.4,13.9,26.7,13.9c4.6,0,12.1-0.2,16.8-2.2c4.5-1.9,6.5-5.5,7.8-12.4
		c0.4-1.8,0.8-2.5,2.1-2.5c1.5,0,1.6,2.2,1.6,3.9c0,3.8-1.5,15.1-2.4,18.5c-1.2,4.4-2.8,4.4-9.6,4.4c-13.3,0-26.7-0.2-35.4-0.6
		c-8.7-0.2-15.4-0.4-20.7-0.4c-2.1,0-5.9,0.2-10.2,0.2c-4.2,0.2-8.7,0.4-12.4,0.4c-2.2,0-3.4-0.6-3.4-1.8c0-0.7,0.6-1.8,2.8-1.8
		c2.7,0,4.6-0.2,6.3-0.6c3.6-0.8,4.6-3.9,5.3-8.8c0.8-7,0.8-20.2,0.8-35.6v-29.8H152.8z"/>
	<path fill="#FFFFFF" d="M514.6,454.8c-2.1,0-4-0.2-6.7-0.6c-3.3-0.6-8.4-2.8-15.1-17.9c-11.4-25.3-41.2-93.8-45.4-103
		c-1.8-3.8-3.4-4.1-5.2-4.1c-1.5,0.1-3.3,0.7-5.2,5.5l-46.8,105.3c-3.5,8.2-7.9,13.3-13.4,13.4c-2.2,0-2.3,0.1-4.5-0.1
		c-3.6-0.4-5.7-2.3-8.7-6.1c-4.5-5.3-34-50.8-39.7-59l29.6-39.1c5.5-7.3,8.7-11.8,12.7-12.7c2.4-0.6,4.7-1,6.5-1
		c1.8,0,2.8-0.7,2.8-1.8c0-1.2-1.2-1.6-3.3-1.6c-6.7,0-13.9,0.4-17.4,0.4c-3.4,0-11.8-0.4-18.7-0.4c-2.7,0-3.9,0.4-3.9,1.6
		s1.2,1.8,2.2,1.8c1.5,0,3.9,0,5.7,0.6c1.8,0.4,3,1.6,3,2.8c0,1.3-0.6,3.8-2.1,6.1c-3,4.7-18.9,27.4-24.1,34.8
		c-7.1-11.4-14.4-23-22.3-36.3c-1-1.8-1.8-3.9-1.8-5c0-1,0.8-1.9,2.4-2.3c1.5-0.4,3.3-0.6,4.2-0.6c1.6,0,2.8-0.6,2.8-1.8
		s-1.2-1.6-3.6-1.6c-6.7,0-17.7,0.4-20.1,0.4c-8.5,0-22.9-0.4-27.1-0.4c-2.2,0-3.6,0.4-3.6,1.3c0,1.2,0.8,1.9,1.8,1.9
		c1.8,0,4.6,0.4,7.5,1.2c6.3,1.9,9.9,5.5,14.4,12.2l31.4,47.6l-34.9,45.6c-6.1,8.1-9,10.8-14.2,12.2c-2.7,0.6-5.2,0.7-6.5,0.7
		c-1.5,0-2.4,1-2.4,1.9c0,1,0.8,1.6,2.7,1.6h3c2.8,0,11.5-0.6,15-0.6c4.5,0,16.2,0.6,17.2,0.6h3.3c2.4,0,3.6-0.4,3.6-1.6
		c0-1-1.2-1.9-2.2-1.9c-1.5,0-2.8-0.2-3.9-0.2c-1.6,0-3.3-1-3.4-2.5c-0.2-1.8,0.8-4.4,2.7-7l26.2-39.4c8.1,12.7,17.8,28.5,28.1,44.8
		c1.5,2.2,0.2,3.4-0.6,3.5c-1.6,0.4-2.4,1.2-2.4,2.2c0,1.6,0.4,1.8,6.3,1.8c12.7-0.2,28.7-0.1,28.7-0.1c0.1,0,7.8,0.1,10.1,0.1
		c2.3,0.1,11.4,0.1,12.6,0.1c5.7,0,12.1,0.4,18.1,0.4c1.8,0,2.8-0.4,2.8-1.8c0-1-0.4-1.8-2.7-1.8h-0.7c-5.5,0-7.1-1.8-7.1-4.7
		c0-1.9,0.8-6.1,2.7-10.2l9.6-22.4c0.4-1,0.6-1.2,1.6-1.2H458c0.8,0,1.5,0.2,1.8,1.2l13.8,33.7c0.8,1.9-0.4,3.5-1.6,3.8
		c-1.8,0.2-2.2,0.8-2.2,1.8c0,1.2,2.1,1.2,5.2,1.3c15,0.4,28,0.4,34.3,0.4c6.7,0,7.8-0.4,7.8-1.8C517,455.4,516.2,454.8,514.6,454.8
		 M454.1,407h-34.4c-0.6,0-1-0.4-0.6-1.2l17.2-42.3c0.2-0.6,0.4-1.6,1-1.6c0.4,0,0.6,1,0.8,1.6l16.8,42.5
		C455.2,406.7,455,407,454.1,407z"/>
	<path fill="#FFFFFF" d="M525,450.5c-2.3-1.6-4.5-3.2-4.6-6.3c-0.4-9,0.2-19.9,0.5-22.4c0.2-2.8,0.7-5.7,2.2-5.8
		c1.7-0.1,1.9,0.8,2.1,2.1c0.1,2.2,1.1,6.8,3.6,11.3c6.3,10.9,15.4,20.4,33.9,20.5c19.7,0,27.6-8.8,27.5-21.3
		c-0.1-7.3-2.7-14.2-20.5-23.1l-11.6-5.9c-23.7-12-33.6-22.9-34.7-37.6c-1.5-20.5,18.4-33.9,45.3-33.9c15.8,0,25.1,3.4,30,4.8
		c1.7,0.5,2.7,1.3,2.9,2.7c0.2,2.2-1,4.6,0.4,17.9c0.4,3.5-0.5,5.3-2.1,5.3c-1.3,0-2.1-1-2.2-2.9c-0.1-1.6-1.3-6.7-5.8-11
		c-3.2-3.2-9.6-7.9-22.1-7.9c-13.8,0-25.9,6.5-25.1,17.9c0.6,7.5,4.1,13.3,22.1,22.1l8.2,3.9c26.4,12.6,36.3,25.3,36.3,40.5
		c0,26.2-21.6,39.4-47.5,39.4C538.9,460.7,527.7,452,525,450.5z"/>
	<path fill="#FFFFFF" d="M166,516.4c-0.2,0-0.4,0-0.5,0.4l-2.5,6.3c-0.5,1.2-0.7,2.3-0.7,2.9c0,0.8,0.5,1.3,1.9,1.3h0.7
		c0.6,0,0.7,0.2,0.7,0.5c0,0.4-0.2,0.5-0.7,0.5c-1.6,0-3.9-0.1-5.5-0.1c-0.5,0-3,0.1-5.6,0.1c-0.6,0-0.8-0.1-0.8-0.5
		c0-0.2,0.1-0.5,0.6-0.5c0.5,0,1,0,1.5,0c2.2-0.4,3-1.8,4-4.1l12.7-29.4c0.6-1.3,1-1.8,1.5-1.8c0.7,0,1,0.5,1.5,1.5
		c1.2,2.5,9.2,21.8,12.4,28.8c1.8,4.2,3.3,4.8,4.1,5c0.7,0.1,1.2,0.1,1.8,0.1c0.5,0,0.6,0.1,0.6,0.5c0,0.4-0.2,0.5-2.1,0.5
		c-1.7,0-5.2,0-9.3-0.1c-0.8,0-1.5,0-1.5-0.4c0-0.2,0.1-0.5,0.6-0.5c0.4,0,0.6-0.5,0.5-1.1l-3.8-9.5c-0.1-0.2-0.2-0.4-0.5-0.4H166z
		 M176.3,513.8c0.2,0,0.2-0.1,0.2-0.2l-4.6-11.9c0-0.1-0.1-0.5-0.2-0.5c-0.1,0-0.2,0.2-0.2,0.5l-4.7,11.9c-0.1,0.2,0,0.4,0.1,0.4
		h9.5V513.8z"/>
	<path fill="#FFFFFF" d="M205.4,495.6l-7.3,0.1c-2.8,0-4,0.4-4.7,1.5c-0.5,0.6-0.7,1.2-0.8,1.6c-0.1,0.4-0.2,0.6-0.6,0.6
		s-0.5-0.2-0.5-0.7c0-0.7,1-5.3,1.1-5.7c0.1-0.6,0.2-0.8,0.6-0.8s0.8,0.4,2.1,0.6c1.5,0.1,3.3,0.2,4.8,0.2h19.6
		c1.6,0,2.5-0.1,3.3-0.2c0.7-0.1,1.2-0.2,1.3-0.2c0.4,0,0.4,0.2,0.4,1c0,1-0.1,4.5-0.1,5.7c0,0.5-0.1,0.7-0.5,0.7
		c-0.4,0-0.5-0.2-0.6-1v-0.5c-0.1-1.2-1.3-2.7-5.7-2.7l-6.2-0.1v18.9c0,4.2,0,8,0.2,10.1c0.1,1.3,0.5,2.2,1.8,2.4
		c0.6,0.1,1.8,0.1,2.4,0.1s0.7,0.2,0.7,0.5c0,0.4-0.4,0.5-1,0.5c-3.2,0-6.4-0.1-7.9-0.1c-1.1,0-4.4,0.1-6.3,0.1c-0.6,0-1-0.1-1-0.5
		c0-0.2,0.1-0.5,0.7-0.5c0.7,0,1.3,0,1.7-0.1c1-0.2,1.2-1.1,1.5-2.4c0.2-1.9,0.2-5.7,0.2-9.9v-19H205.4z"/>
	<path fill="#FFFFFF" d="M257.5,516.4c-0.2,0-0.4,0-0.5,0.4l-2.5,6.3c-0.5,1.2-0.7,2.3-0.7,2.9c0,0.8,0.5,1.3,1.9,1.3h0.7
		c0.6,0,0.7,0.2,0.7,0.5c0,0.4-0.2,0.5-0.7,0.5c-1.6,0-3.9-0.1-5.5-0.1c-0.5,0-3,0.1-5.6,0.1c-0.6,0-0.8-0.1-0.8-0.5
		c0-0.2,0.1-0.5,0.6-0.5s1,0,1.5,0c2.2-0.4,3-1.8,4-4.1l12.7-29.4c0.6-1.3,1-1.8,1.5-1.8c0.7,0,1,0.5,1.5,1.5
		c1.2,2.5,9.2,21.8,12.4,28.8c1.8,4.2,3.3,4.8,4.1,5c0.7,0.1,1.2,0.1,1.8,0.1c0.5,0,0.6,0.1,0.6,0.5c0,0.4-0.2,0.5-2.1,0.5
		c-1.7,0-5.2,0-9.3-0.1c-0.8,0-1.5,0-1.5-0.4c0-0.2,0.1-0.5,0.6-0.5c0.4,0,0.6-0.5,0.5-1.1l-3.8-9.5c-0.1-0.2-0.2-0.4-0.5-0.4H257.5
		z M267.9,513.8c0.2,0,0.2-0.1,0.2-0.2l-4.6-11.9c0-0.1-0.1-0.5-0.2-0.5c-0.1,0-0.2,0.2-0.2,0.5l-4.7,11.9c-0.1,0.2,0,0.4,0.1,0.4
		h9.5V513.8z"/>
	<path fill="#FFFFFF" d="M288.9,506.3c0-7.1,0-8.5,0-9.9c-0.1-1.7-0.6-2.1-2.1-2.5c-0.4-0.1-1.2-0.1-1.8-0.1c-0.6,0-0.8-0.1-0.8-0.5
		s0.4-0.5,1.1-0.5c2.5,0,5.8,0.1,7.3,0.1c1.2,0,4.5-0.1,6.2-0.1c0.7,0,1.1,0.1,1.1,0.5c0,0.4-0.2,0.5-0.7,0.5c-0.6,0-0.8,0-1.5,0.1
		c-1.2,0.2-1.7,0.8-1.8,2.5c-0.1,1.5-0.1,2.8-0.1,9.9v6.5c0,6.8,1.3,9.5,3.6,11.4c2.2,1.7,4.5,1.8,6.1,1.8c2.1,0,4.6-0.6,6.5-2.4
		c2.7-2.5,2.8-6.7,2.8-11.4v-5.9c0-7.1,0-8.5-0.1-9.9c-0.1-1.6-0.5-2.1-2.1-2.5c-0.4-0.1-1.2-0.1-1.8-0.1c-0.6,0-0.8-0.1-0.8-0.5
		s0.4-0.5,1-0.5c2.4,0,5.7,0.1,5.8,0.1c0.6,0,3.8-0.1,5.7-0.1c0.6,0,1,0.1,1,0.5c0,0.4-0.2,0.5-0.8,0.5c-0.6,0-0.8,0-1.5,0.1
		c-1.3,0.2-1.7,0.8-1.8,2.5c0,1.5-0.1,2.8-0.1,9.9v5c0,5.2-0.6,10.8-4.6,14.1c-3.4,2.9-7.1,3.4-10.3,3.4c-2.5,0-7.5-0.1-11-3.2
		c-2.4-2.2-4.4-5.6-4.4-12.4v-6.9H288.9z"/>
	<path fill="#FFFFFF" d="M331.7,527.6c-0.7-0.4-1-0.6-1-1.6c0-2.5,0.2-5.5,0.2-6.2s0.2-1.2,0.6-1.2c0.5,0,0.5,0.5,0.5,0.7
		c0,0.6,0.1,1.6,0.5,2.4c1.1,3.5,4.7,4.6,7.8,4.6c4.2,0,6.7-2.7,6.7-5.9c0-2.1-0.5-4.1-4.8-6.7l-2.8-1.7c-5.7-3.4-7.6-6.5-7.6-10.7
		c0-5.7,5.5-9.5,12.2-9.5c3.2,0,5.6,0.5,6.9,0.7c0.5,0.1,0.6,0.2,0.6,0.6c0,0.6-0.1,1.9-0.1,5.6c0,1-0.2,1.5-0.6,1.5
		c-0.4,0-0.5-0.2-0.5-0.8c0-0.5-0.2-1.8-1.2-3c-0.7-0.8-2.3-2.2-5.5-2.2c-3.5,0-6.7,1.8-6.7,5c0,2.1,0.7,3.8,5.1,6.2l1.9,1.1
		c6.4,3.5,8.4,7.1,8.4,11.4c0,3.5-1.3,6.3-4.8,8.7c-2.3,1.7-5.6,1.9-8.1,1.9C336.8,528.8,333.8,528.6,331.7,527.6"/>
	<path fill="#FFFFFF" d="M373.3,495.6l-7.3,0.1c-2.8,0-4,0.4-4.7,1.5c-0.5,0.6-0.7,1.2-0.8,1.6c-0.1,0.4-0.2,0.6-0.6,0.6
		c-0.4,0-0.5-0.2-0.5-0.7c0-0.7,1-5.3,1.1-5.7c0.1-0.6,0.2-0.8,0.6-0.8c0.4,0,0.8,0.4,2.1,0.6c1.5,0.1,3.3,0.2,4.8,0.2h19.6
		c1.6,0,2.5-0.1,3.3-0.2s1.2-0.2,1.3-0.2c0.4,0,0.4,0.2,0.4,1c0,1-0.1,4.5-0.1,5.7c0,0.5-0.1,0.7-0.5,0.7c-0.4,0-0.5-0.2-0.6-1v-0.5
		c-0.1-1.2-1.3-2.7-5.7-2.7l-6.1-0.1v18.9c0,4.2,0,8,0.2,10.1c0.1,1.3,0.5,2.2,1.8,2.4c0.6,0.1,1.8,0.1,2.4,0.1
		c0.6,0,0.7,0.2,0.7,0.5c0,0.4-0.4,0.5-1,0.5c-3.2,0-6.4-0.1-7.9-0.1c-1.1,0-4.4,0.1-6.3,0.1c-0.6,0-1-0.1-1-0.5
		c0-0.2,0.1-0.5,0.7-0.5c0.7,0,1.3,0,1.7-0.1c1-0.2,1.2-1.1,1.5-2.4c0.2-1.9,0.2-5.7,0.2-9.9v-19H373.3z"/>
	<path fill="#FFFFFF" d="M404.1,506.3c0-7.1,0-8.5,0-9.9c-0.1-1.6-0.6-2.2-1.7-2.4c-0.6-0.1-1.2-0.2-1.8-0.2c-0.5,0-0.7-0.1-0.7-0.6
		c0-0.2,0.4-0.4,1.2-0.4c1.8,0,5.1,0.1,6.5,0.1c1.2,0,4.4-0.1,6.2-0.1c0.6,0,1,0.1,1,0.4c0,0.5-0.2,0.6-0.7,0.6s-0.8,0-1.5,0.1
		c-1.3,0.2-1.7,0.8-1.8,2.5c-0.1,1.5-0.1,2.8-0.1,9.9v8.2c0,4.5,0,8.2,0.2,10.3c0.1,1.2,0.5,1.9,1.9,2.2c0.6,0.1,1.8,0.1,2.4,0.1
		c0.6,0,0.7,0.2,0.7,0.5c0,0.4-0.4,0.5-1,0.5c-3.2,0-6.5-0.1-7.9-0.1c-1.1,0-4.4,0.1-6.3,0.1c-0.6,0-1-0.1-1-0.5
		c0-0.2,0.1-0.5,0.7-0.5c0.7,0,1.2,0,1.7-0.1c1-0.2,1.2-0.8,1.5-2.3c0.2-1.9,0.2-5.7,0.2-10.2v-8.2H404.1z"/>
	<path fill="#FFFFFF" d="M431,521.8c0.1,3.6,0.7,4.7,1.7,5.1c0.8,0.2,1.8,0.4,2.5,0.4c0.6,0,0.8,0.2,0.8,0.5c0,0.4-0.5,0.5-1.1,0.5
		c-3.2,0-5.5-0.1-6.3-0.1c-0.5,0-2.8,0.1-5.2,0.1c-0.6,0-1.1,0-1.1-0.5c0-0.2,0.4-0.5,0.7-0.5c0.6,0,1.6,0,2.2-0.2
		c1.2-0.4,1.5-1.6,1.5-5.7l0.5-27.7c0-1,0.4-1.6,0.8-1.6c0.6,0,1.2,0.7,2.1,1.6c0.6,0.6,7.9,8,14.9,14.9c3.3,3.3,9.8,9.8,10.4,10.5
		h0.2l-0.5-20.8c0-2.9-0.5-3.6-1.7-4.1c-0.7-0.2-1.8-0.2-2.5-0.2c-0.6,0-0.7-0.2-0.7-0.5c0-0.4,0.5-0.5,1.2-0.5
		c2.5,0,5.1,0.1,6.2,0.1c0.6,0,2.4-0.1,4.7-0.1c0.6,0,1.1,0,1.1,0.5c0,0.2-0.2,0.5-0.8,0.5c-0.5,0-0.8,0-1.5,0.1
		c-1.3,0.4-1.7,1.2-1.8,3.9l-0.6,29.6c0,1.1-0.4,1.5-0.7,1.5c-0.8,0-1.5-0.5-1.9-1c-3-2.8-9.1-8.6-14.2-13.4
		c-5.3-5.1-10.4-10.8-11.4-11.6h-0.1L431,521.8z"/>
</g>
</svg>
