<?xml version="1.0" encoding="UTF-8" standalone="no"?>
<!-- Created with Inkscape (http://www.inkscape.org/) -->

<svg
   xmlns:dc="http://purl.org/dc/elements/1.1/"
   xmlns:cc="http://creativecommons.org/ns#"
   xmlns:rdf="http://www.w3.org/1999/02/22-rdf-syntax-ns#"
   xmlns:svg="http://www.w3.org/2000/svg"
   xmlns="http://www.w3.org/2000/svg"
   version="1.2"
   width="1208"
   height="194.12399"
   viewBox="0 0 1208 194.12399"
   id="Layer_1"
   xml:space="preserve"><metadata
     id="metadata101"><rdf:RDF><cc:Work
         rdf:about=""><dc:format>image/svg+xml</dc:format><dc:type
           rdf:resource="http://purl.org/dc/dcmitype/StillImage" /><dc:title></dc:title></cc:Work></rdf:RDF></metadata><defs
     id="defs99" /><g
     transform="translate(5,4.9999985)"
     id="g3"><g
       id="g5"><path
         d="m 76.536,58.979 -7.784,0.25 -0.417,-2.903 4.06,-0.825 V 31.808 c 0,-4.306 -1.989,-6.211 -5.301,-6.211 -2.487,0 -5.714,1.824 -8.779,3.725 l -2.487,1.577 V 55.5 l 4.557,0.825 -0.413,2.903 -7.869,-0.25 -8.702,0.25 -0.412,-2.903 4.97,-0.825 V 4.804 L 44.979,5.302 28.165,5.051 V 55.25 l 9.523,1.075 -0.417,2.903 -13.417,-0.25 -13.915,0.25 -0.417,-2.903 9.939,-1.075 V 5.051 L 7.04,5.302 3.231,15.653 H 0 V 0.995 L 23.773,1.16 44.149,0.995 53.014,0 h 2.814 v 26.838 l 12.095,-7.869 c 10.603,0 12.341,3.979 12.341,14.497 V 55.5 l 6.211,0.825 -0.413,2.903 -9.526,-0.249 z"
         id="path7"
         style="fill:#bf5700" /><path
         d="m 98.053,38.023 c 0,9.438 5.051,16.15 13.753,16.15 3.308,0 7.287,-1.577 10.352,-3.478 l 1.326,3.146 c -3.979,2.733 -9.195,5.055 -14.497,6.542 -10.024,0 -19.05,-7.125 -19.05,-20.129 0,-12.257 7.368,-18.804 18.718,-21.287 10.935,0 14.659,6.875 14.659,15.573 v 3.481 H 98.053 z m 16.648,-4.14 c 0,-6.381 -1.241,-10.772 -7.618,-10.772 -5.055,0 -8.282,4.723 -8.945,11.597 l 16.563,-0.825 z"
         id="path9"
         style="fill:#bf5700" /><path
         d="m 180.541,3.975 0.417,-2.895 10.603,0.246 9.692,-0.246 0.413,2.895 -7.044,1.076 v 33.798 c 0,10.772 -4.388,17.979 -20.874,21.787 -16.312,0 -22.111,-8.783 -22.111,-21.949 V 5.051 l -7.457,-1.076 0.413,-2.895 11.432,0.246 11.351,-0.246 0.413,2.895 -7.044,1.076 v 34.873 c 0,10.271 4.391,16.155 13.837,16.155 8.613,0 13.417,-5.799 13.417,-16.402 V 5.051 l -7.458,-1.076 z"
         id="path11"
         style="fill:#bf5700" /><path
         d="m 212.834,58.979 -9.523,0.25 -0.417,-2.903 5.799,-0.825 V 25.266 l -5.799,0.497 -0.413,-2.899 9.939,-2.567 3.562,-0.251 0.417,6.959 12.257,-8.035 c 10.603,0 12.345,3.563 12.345,13.503 V 55.5 l 6.292,0.825 -0.413,2.903 -9.527,-0.25 -7.95,0.25 -0.417,-2.903 4.145,-0.825 V 31.808 c 0,-4.306 -1.909,-6.211 -5.467,-6.211 -2.903,0 -5.799,1.824 -8.617,3.725 L 216.56,30.98 V 55.5 l 4.557,0.825 -0.417,2.903 -7.866,-0.249 z"
         id="path13"
         style="fill:#bf5700" /><path
         d="m 260.292,58.979 -9.527,0.25 -0.412,-2.903 5.798,-0.825 V 25.266 l -5.798,0.497 -0.417,-2.899 9.939,-2.567 4.145,-0.332 V 55.5 l 6.211,0.825 -0.413,2.903 -9.526,-0.249 z m -4.141,-56.99 5.96,-0.416 2.321,0.416 0.413,4.639 -0.91,3.975 -5.883,0.497 -2.232,-0.497 -0.501,-4.638 0.832,-3.976 z"
         id="path15"
         style="fill:#bf5700" /><path
         d="m 293.499,53.843 10.024,-29.988 -3.809,-0.825 0.417,-2.899 7.287,0.246 6.875,-0.246 0.413,2.899 -5.297,0.825 -13.589,34.047 -6.05,2.482 -14.412,-36.53 -5.136,-0.825 0.417,-2.899 9.523,0.246 8.702,-0.246 0.413,2.899 -5.467,0.825 9.026,24.271 0.663,5.718 z"
         id="path17"
         style="fill:#bf5700" /><path
         d="m 322.816,38.023 c 0,9.438 5.055,16.15 13.749,16.15 3.316,0 7.291,-1.577 10.356,-3.478 l 1.322,3.146 c -3.971,2.733 -9.191,5.055 -14.493,6.542 -10.021,0 -19.054,-7.125 -19.054,-20.129 0,-12.257 7.376,-18.804 18.723,-21.287 10.934,0 14.663,6.875 14.663,15.573 v 3.481 h -25.266 z m 16.652,-4.14 c 0,-6.381 -1.246,-10.772 -7.626,-10.772 -5.051,0 -8.282,4.723 -8.945,11.597 l 16.571,-0.825 z"
         id="path19"
         style="fill:#bf5700" /><path
         d="m 366.626,30.979 9.442,-11.598 h 6.627 v 8.285 h -6.13 c -1.99,0.417 -5.633,3.15 -7.869,5.884 l -1.658,1.985 V 55.25 l 8.702,0.829 -0.417,3.149 -12.014,-0.25 -9.276,0.25 -0.413,-2.903 5.799,-0.825 V 25.266 l -5.799,0.497 -0.413,-2.899 9.939,-2.567 3.312,-0.251 0.168,10.933 z"
         id="path21"
         style="fill:#bf5700" /><path
         d="m 408.778,24.849 c -0.825,-0.493 -3.312,-1.819 -6.292,-1.819 -3.235,0 -6.3,1.738 -6.3,4.885 0,2.652 2.074,4.311 5.799,6.211 l 6.381,3.235 c 5.548,2.814 7.788,5.96 7.788,10.684 0,7.456 -6.049,10.271 -15.576,12.341 -5.051,0 -10.433,-2.482 -12.592,-3.728 l -1.569,-9.357 h 5.297 l 2.819,6.874 c 1.739,1.156 4.141,2.07 6.789,2.07 4.392,0 6.632,-2.814 6.632,-6.296 0,-3.23 -1.739,-4.638 -6.049,-6.874 l -6.543,-3.397 c -3.562,-1.823 -6.959,-4.97 -6.959,-9.607 0,-5.799 5.382,-9.029 14.994,-11.101 4.472,0 9.276,1.99 11.678,3.729 v 8.282 h -4.387 l -1.91,-6.132 z"
         id="path23"
         style="fill:#bf5700" /><path
         d="m 431.633,58.979 -9.523,0.25 -0.417,-2.903 5.799,-0.825 V 25.266 l -5.799,0.497 -0.413,-2.899 9.939,-2.567 4.141,-0.332 V 55.5 l 6.211,0.825 -0.412,2.903 -9.526,-0.249 z m -4.14,-56.99 5.964,-0.416 2.321,0.416 0.413,4.639 -0.91,3.975 -5.879,0.497 -2.24,-0.497 -0.494,-4.638 0.825,-3.976 z"
         id="path25"
         style="fill:#bf5700" /><path
         d="m 472.714,78.61 v -8.285 h 7.125 l 8.201,-12.508 -3.312,0.995 -13.918,-34.873 h -12.507 v 25.265 c 0,2.402 0.91,4.97 4.388,4.97 2.402,0 4.974,-1.16 7.291,-2.321 l 1.411,2.819 -10.441,5.713 c -9.276,0 -10.518,-3.312 -10.518,-10.764 V 24.934 h -8.035 v -1.411 l 2.899,-2.896 h 5.382 v -5.386 l 5.386,-5.383 h 2.151 v 10.356 h 26.095 l 0.416,2.814 -5.467,0.825 9.191,24.271 0.663,5.718 10.271,-29.988 -3.809,-0.825 0.417,-2.899 7.287,0.246 6.875,-0.246 0.413,2.899 -5.297,0.825 -13.421,33.882 -9.276,20.874 h -9.861 z"
         id="path27"
         style="fill:#bf5700" /><path
         d="m 565.138,38.849 c 0,12.341 -7.537,19.466 -20.376,21.536 -11.016,0 -18.473,-8.532 -18.473,-19.798 0,-12.422 7.538,-19.467 20.377,-21.618 11.02,0 18.472,8.613 18.472,19.88 z m -18.306,17.476 c 6.627,0 10.02,-6.789 10.02,-15.738 0,-10.518 -5.05,-17.558 -12.256,-17.558 -6.709,0 -10.024,6.793 -10.024,15.819 -10e-4,9.447 4.888,17.477 12.26,17.477 z"
         id="path29"
         style="fill:#bf5700" /><path
         d="m 583.768,21.04 h 10.352 v 3.894 H 583.768 V 55.5 l 9.526,0.579 -0.416,3.149 -12.839,-0.25 -9.527,0.25 -0.412,-2.903 5.799,-0.825 V 24.934 h -7.291 v -1.411 l 2.486,-2.896 h 4.805 v -0.829 c 0,-4.97 1.572,-8.2 4.553,-11.597 l 6.959,-7.869 h 10.438 V 6.959 H 587.08 l -1.573,2.236 c -1.16,1.573 -1.738,3.976 -1.738,9.361 v 2.484 z"
         id="path31"
         style="fill:#bf5700" /><path
         d="m 657.477,59.229 -13.417,-0.25 -13.919,0.25 -0.412,-2.903 9.939,-1.075 v -50.2 l -12.427,0.17 -3.812,10.518 h -3.228 V 1.08 l 23.773,0.246 23.854,-0.246 v 14.658 h -3.227 L 660.788,5.22 648.362,5.05 v 50.2 l 9.526,1.075 -0.411,2.904 z"
         id="path33"
         style="fill:#bf5700" /><path
         d="m 672.212,38.023 c 0,9.438 5.055,16.15 13.749,16.15 3.315,0 7.291,-1.577 10.355,-3.478 l 1.322,3.146 c -3.971,2.733 -9.191,5.055 -14.492,6.542 -10.021,0 -19.055,-7.125 -19.055,-20.129 0,-12.257 7.376,-18.804 18.723,-21.287 10.935,0 14.663,6.875 14.663,15.573 v 3.481 h -25.265 z m 16.652,-4.14 c 0,-6.381 -1.245,-10.772 -7.627,-10.772 -5.05,0 -8.281,4.723 -8.944,11.597 l 16.571,-0.825 z"
         id="path35"
         style="fill:#bf5700" /><path
         d="m 716.354,56.325 -0.412,2.903 -6.462,-0.25 -8.532,0.25 -0.413,-2.903 5.799,-0.825 12.257,-15.074 -12.014,-16.486 -5.136,-0.829 0.416,-2.98 9.527,0.246 7.869,-0.246 0.412,2.98 -3.23,0.829 6.13,9.195 0.663,2.155 7.869,-11.351 -4.06,-0.829 0.416,-2.98 6.458,0.246 8.532,-0.246 0.421,2.98 -5.969,0.829 -10.933,13.251 13.004,18.31 5.136,0.825 -0.412,2.903 -9.527,-0.25 -7.869,0.25 -0.412,-2.903 3.396,-0.825 -7.376,-10.688 -0.663,-1.904 -8.78,12.592 3.895,0.825 z"
         id="path37"
         style="fill:#bf5700" /><path
         d="m 763.31,18.969 c 10.44,0 13.086,2.653 13.086,13.171 v 16.235 c 0,3.562 0.582,4.885 1.407,6.212 h 4.148 l 0.332,2.903 -10.692,2.07 -2.563,-6.381 -9.858,7.205 c -7.125,0 -12.18,-3.975 -12.18,-10.603 0,-2.979 1.083,-5.135 2.903,-7.618 l 18.634,-6.211 v -4.146 c 0,-4.97 -0.413,-7.953 -4.886,-7.953 -2.231,0 -4.965,0.748 -6.793,1.496 l -1.407,6.542 h -7.125 v -6.296 l 14.994,-6.626 z m 5.216,20.296 -12.011,4.97 c -1.237,1.241 -1.657,2.899 -1.657,4.639 0,4.226 2.401,5.714 4.804,5.714 2.321,0 4.311,-1.407 5.387,-2.151 l 3.478,-2.402 v -10.77 z"
         id="path39"
         style="fill:#bf5700" /><path
         d="m 807.952,24.849 c -0.833,-0.493 -3.315,-1.819 -6.3,-1.819 -3.227,0 -6.292,1.738 -6.292,4.885 0,2.652 2.07,4.311 5.799,6.211 l 6.373,3.235 c 5.556,2.814 7.788,5.96 7.788,10.684 0,7.456 -6.05,10.271 -15.568,12.341 -5.055,0 -10.441,-2.482 -12.593,-3.728 l -1.577,-9.357 h 5.306 l 2.814,6.874 c 1.739,1.156 4.141,2.07 6.794,2.07 4.392,0 6.623,-2.814 6.623,-6.296 0,-3.23 -1.738,-4.638 -6.049,-6.874 l -6.543,-3.397 c -3.559,-1.823 -6.955,-4.97 -6.955,-9.607 0,-5.799 5.386,-9.029 14.994,-11.101 4.473,0 9.276,1.99 11.678,3.729 v 8.282 h -4.391 l -1.901,-6.132 z"
         id="path41"
         style="fill:#bf5700" /><path
         d="m 857.06,18.969 c 10.433,0 13.086,2.653 13.086,13.171 v 16.235 c 0,3.562 0.582,4.885 1.407,6.212 h 4.141 l 0.331,2.903 -10.683,2.07 -2.572,-6.381 -9.858,7.205 c -7.117,0 -12.172,-3.975 -12.172,-10.603 0,-2.979 1.075,-5.135 2.896,-7.618 l 18.642,-6.211 v -4.146 c 0,-4.97 -0.413,-7.953 -4.885,-7.953 -2.24,0 -4.974,0.748 -6.794,1.496 l -1.407,6.542 h -7.125 v -6.296 l 14.993,-6.626 z m 5.216,20.296 -12.01,4.97 c -1.246,1.241 -1.658,2.899 -1.658,4.639 0,4.226 2.401,5.714 4.804,5.714 2.321,0 4.311,-1.407 5.387,-2.151 l 3.478,-2.402 v -10.77 z"
         id="path43"
         style="fill:#bf5700" /><path
         d="m 875.604,24.934 v -1.411 l 2.903,-2.896 h 5.378 v -5.386 l 5.387,-5.383 h 2.151 v 11.347 h 12.511 v 3.729 h -12.422 v 24.271 c 0,2.402 0.905,4.97 4.383,4.97 2.402,0 4.23,-0.829 6.551,-1.989 l 1.407,2.818 -9.696,5.382 c -9.276,0 -10.514,-3.312 -10.514,-10.764 V 24.934 h -8.039 z"
         id="path45"
         style="fill:#bf5700" /><path
         d="m 938.881,39.762 -5.387,15.488 7.206,1.075 -0.412,2.903 -9.939,-0.25 -8.864,0.25 -0.412,-2.903 6.454,-0.91 20.542,-53.672 4.974,-1.411 21.618,55.083 6.462,0.91 -0.413,2.903 -11.436,-0.25 -10.926,0.25 -0.421,-2.903 7.044,-1.075 -5.637,-15.488 h -20.453 z m 11.015,-25.763 -0.583,-4.472 -9.114,26.341 h 17.646 l -7.949,-21.869 z"
         id="path47"
         style="fill:#bf5700" /><path
         d="m 1016.311,48.375 c 0,3.562 0.421,4.885 0.995,6.212 h 4.141 l 0.331,2.903 -10.684,2.07 -2.32,-6.713 -12.011,7.537 c -10.934,0 -12.754,-3.89 -12.754,-13.497 V 25.266 l -5.799,0.416 -0.412,-3.234 9.939,-2.151 4.141,-0.332 v 27.582 c 0,4.307 1.82,6.216 5.88,6.216 2.572,0 5.88,-2.07 9.033,-4.141 l 1.65,-1.08 V 25.266 l -4.966,0.416 -0.412,-3.234 9.106,-2.151 4.141,-0.332 v 28.41 z"
         id="path49"
         style="fill:#bf5700" /><path
         d="m 1047.868,24.849 c -0.833,-0.493 -3.316,-1.819 -6.301,-1.819 -3.227,0 -6.292,1.738 -6.292,4.885 0,2.652 2.07,4.311 5.799,6.211 l 6.373,3.235 c 5.557,2.814 7.788,5.96 7.788,10.684 0,7.456 -6.049,10.271 -15.568,12.341 -5.055,0 -10.44,-2.482 -12.592,-3.728 l -1.577,-9.357 h 5.305 l 2.814,6.874 c 1.739,1.156 4.142,2.07 6.794,2.07 4.392,0 6.624,-2.814 6.624,-6.296 0,-3.23 -1.739,-4.638 -6.05,-6.874 l -6.543,-3.397 c -3.559,-1.823 -6.955,-4.97 -6.955,-9.607 0,-5.799 5.387,-9.029 14.994,-11.101 4.473,0 9.276,1.99 11.679,3.729 v 8.282 h -4.392 l -1.9,-6.132 z"
         id="path51"
         style="fill:#bf5700" /><path
         d="m 1057.88,24.934 v -1.411 l 2.903,-2.896 h 5.379 v -5.386 l 5.386,-5.383 h 2.151 v 11.347 h 12.512 v 3.729 h -12.423 v 24.271 c 0,2.402 0.906,4.97 4.384,4.97 2.402,0 4.229,-0.829 6.551,-1.989 l 1.407,2.818 -9.697,5.382 c -9.276,0 -10.514,-3.312 -10.514,-10.764 V 24.934 h -8.039 z"
         id="path53"
         style="fill:#bf5700" /><path
         d="m 1100.865,58.979 -9.527,0.25 -0.412,-2.903 5.799,-0.825 V 25.266 l -5.799,0.497 -0.421,-2.899 9.939,-2.567 4.149,-0.332 V 55.5 l 6.211,0.825 -0.412,2.903 -9.527,-0.249 z m -4.14,-56.99 5.96,-0.416 2.321,0.416 0.412,4.639 -0.913,3.975 -5.88,0.497 -2.232,-0.497 -0.501,-4.638 0.833,-3.976 z"
         id="path55"
         style="fill:#bf5700" /><path
         d="m 1124.465,58.979 -9.527,0.25 -0.412,-2.903 5.799,-0.825 V 25.266 l -5.799,0.497 -0.413,-2.899 9.939,-2.567 3.559,-0.251 0.413,6.959 12.26,-8.035 c 10.604,0 12.342,3.563 12.342,13.503 V 55.5 l 6.301,0.825 -0.421,2.903 -9.52,-0.25 -7.958,0.25 -0.412,-2.903 4.141,-0.825 V 31.808 c 0,-4.306 -1.9,-6.211 -5.467,-6.211 -2.896,0 -5.799,1.824 -8.613,3.725 l -2.482,1.658 V 55.5 l 4.553,0.825 -0.412,2.903 -7.871,-0.249 z"
         id="path57"
         style="fill:#bf5700" /></g><g
       id="g59"><path
         d="m 96.642,136.549 c 0,27.449 -14.038,42.484 -44.72,47.575 -25.092,0 -42.235,-18.759 -42.235,-43.851 0,-27.453 14.038,-42.479 44.72,-47.574 25.091,0 42.235,18.755 42.235,43.85 z m -41.615,40.745 c 19.131,0 27.328,-16.522 27.328,-36.645 0,-18.14 -8.073,-41.116 -30.929,-41.116 -19.131,0 -27.453,16.393 -27.453,36.644 0,18.505 8.322,41.117 31.054,41.117 z"
         id="path61"
         style="fill:#333f48" /><path
         d="m 144.841,177.787 8.696,-1.241 v -45.961 h -26.086 v 45.961 l 10.558,0.869 -0.621,4.594 -15.528,-0.372 -14.285,0.372 -0.621,-4.222 8.694,-1.241 v -45.961 h -10.93 v -2.111 l 3.727,-4.347 h 7.204 c 0,-8.075 3.48,-13.045 7.95,-18.011 l 9.317,-10.562 h 22.111 l -8.198,9.939 h -14.41 l -2.234,3.105 c -1.616,2.236 -2.734,5.342 -2.734,13.045 v 3.106 h 26.086 v -1.869 c 0,-7.448 2.359,-12.293 6.832,-17.388 l 10.435,-11.8 h 31.303 v 11.8 h -3.105 l -8.698,-1.864 H 170.43 l -2.359,3.105 c -1.739,2.362 -2.734,5.593 -2.734,13.664 v 4.352 h 21.367 l 9.066,-1.12 6.211,-0.498 v 53.414 l 9.317,1.241 -0.623,4.222 -14.283,-0.372 -11.8,0.372 -0.623,-4.594 6.211,-0.869 v -41.861 l 0.623,-4.97 -4.351,0.87 h -21.117 v 45.961 l 9.317,0.869 -0.621,4.594 -14.285,-0.372 -14.287,0.372 -0.618,-4.221 z"
         id="path63"
         style="fill:#333f48" /><path
         d="m 251.549,130.213 c -1.99,-1.492 -3.85,-1.985 -7.206,-1.985 -8.447,0 -14.905,9.438 -14.905,22.977 0,13.296 7.206,23.23 19.378,23.23 4.723,0 9.688,-2.361 14.036,-5.22 l 1.985,4.723 c -5.709,4.101 -12.046,7.206 -20.243,9.814 -15.9,0 -27.7,-10.438 -27.7,-29.563 0,-19.504 14.282,-28.82 29.56,-32.545 5.718,0 13.417,2.855 17.146,6.212 v 12.418 h -9.195 l -2.856,-10.061 z"
         id="path65"
         style="fill:#333f48" /><path
         d="m 284.465,150.209 c 0,14.161 7.578,24.226 20.623,24.226 4.966,0 10.93,-2.361 15.528,-5.22 l 1.99,4.723 c -5.969,4.101 -13.789,7.578 -21.739,9.814 -15.035,0 -28.573,-10.684 -28.573,-30.187 0,-18.383 11.056,-28.197 28.072,-31.922 16.401,0 21.99,10.308 21.99,23.349 v 5.217 h -37.891 z m 24.971,-6.207 c 0,-9.563 -1.864,-16.146 -11.428,-16.146 -7.578,0 -12.422,7.076 -13.413,17.388 l 24.841,-1.242 z"
         id="path67"
         style="fill:#333f48" /><path
         d="m 419.373,151.454 c 0,18.509 -11.306,29.192 -30.562,32.298 -16.519,0 -27.7,-12.795 -27.7,-29.689 0,-18.634 11.307,-29.191 30.559,-32.419 16.518,0 27.703,12.916 27.703,29.81 z m -27.457,26.212 c 9.94,0 15.035,-10.19 15.035,-23.604 0,-15.774 -7.578,-26.337 -18.387,-26.337 -10.061,0 -15.031,10.19 -15.031,23.729 0,14.161 7.327,26.212 18.383,26.212 z"
         id="path69"
         style="fill:#333f48" /><path
         d="m 447.323,124.75 h 15.528 v 5.835 h -15.528 v 45.836 l 14.282,0.873 -0.623,4.715 -19.252,-0.372 -14.286,0.372 -0.619,-4.343 8.694,-1.245 v -45.836 h -10.93 v -2.111 l 3.728,-4.347 h 7.202 v -1.246 c 0,-7.448 2.361,-12.293 6.83,-17.388 l 10.437,-11.8 h 15.653 v 9.936 h -16.15 l -2.362,3.353 c -1.739,2.361 -2.604,5.965 -2.604,14.04 v 3.728 z"
         id="path71"
         style="fill:#333f48" /><path
         d="m 495.767,130.585 v -2.111 l 4.351,-4.347 h 8.071 v -8.075 l 8.071,-8.075 h 3.235 v 17.02 h 18.755 v 5.589 h -18.634 v 36.397 c 0,3.599 1.367,7.452 6.583,7.452 3.604,0 6.337,-1.241 9.814,-2.979 l 2.11,4.222 -14.533,8.075 c -13.914,0 -15.774,-4.97 -15.774,-16.146 v -37.021 h -12.049 z"
         id="path73"
         style="fill:#333f48" /><path
         d="m 560.863,176.421 6.83,1.245 -0.623,4.343 -11.8,-0.372 -14.286,0.372 -0.623,-4.343 8.698,-1.245 v -74.902 l -8.698,0.246 -0.618,-4.222 14.909,-3.85 6.211,-0.497 v 40.247 l 18.133,-11.8 c 15.899,0 18.512,5.961 18.512,21.735 v 33.042 l 9.312,1.245 -0.618,4.343 -14.287,-0.372 -11.674,0.372 -0.623,-4.343 6.086,-1.245 v -35.524 c 0,-6.458 -2.98,-9.317 -7.95,-9.317 -3.724,0 -8.568,2.729 -13.166,5.589 l -3.725,2.361 v 36.892 z"
         id="path75"
         style="fill:#333f48" /><path
         d="m 622.972,150.209 c 0,14.161 7.577,24.226 20.619,24.226 4.97,0 10.934,-2.361 15.527,-5.22 l 1.989,4.723 c -5.96,4.101 -13.789,7.578 -21.738,9.814 -15.031,0 -28.573,-10.684 -28.573,-30.187 0,-18.383 11.056,-28.197 28.075,-31.922 16.397,0 21.986,10.308 21.986,23.349 v 5.217 h -37.885 z m 24.969,-6.207 c 0,-9.563 -1.864,-16.146 -11.428,-16.146 -7.578,0 -12.422,7.076 -13.417,17.388 l 24.845,-1.242 z"
         id="path77"
         style="fill:#333f48" /><path
         d="m 698.994,99.161 0.618,-4.352 16.773,0.372 24.222,-0.372 c 15.528,-0.121 27.328,7.457 27.328,21.99 0,16.644 -15.649,24.469 -31.056,27.699 h -13.664 v 31.55 l 14.909,1.617 -0.623,4.343 -20.744,-0.372 -17.146,0.372 -0.618,-4.343 11.181,-1.617 V 100.77 l -11.18,-1.609 z m 24.222,39.127 h 10.559 c 11.678,0 19.879,-8.075 19.879,-19.879 0,-10.68 -5.718,-18.383 -18.634,-18.383 l -11.804,0.744 v 37.518 z"
         id="path79"
         style="fill:#333f48" /><path
         d="m 790.548,139.654 14.161,-17.392 h 9.936 v 12.422 h -9.191 c -2.984,0.619 -8.447,4.72 -11.8,8.82 l -2.486,2.979 v 29.564 l 13.041,1.245 -0.619,4.715 -18.015,-0.372 -13.91,0.372 -0.623,-4.343 8.698,-1.245 V 131.08 l -8.698,0.744 -0.618,-4.347 14.909,-3.85 4.966,-0.372 0.249,16.399 z"
         id="path81"
         style="fill:#333f48" /><path
         d="m 831.54,150.209 c 0,14.161 7.577,24.226 20.618,24.226 4.971,0 10.935,-2.361 15.528,-5.22 l 1.989,4.723 c -5.96,4.101 -13.789,7.578 -21.738,9.814 -15.031,0 -28.573,-10.684 -28.573,-30.187 0,-18.383 11.056,-28.197 28.075,-31.922 16.397,0 21.986,10.308 21.986,23.349 v 5.217 H 831.54 z m 24.97,-6.207 c 0,-9.563 -1.864,-16.146 -11.428,-16.146 -7.578,0 -12.422,7.076 -13.417,17.388 l 24.845,-1.242 z"
         id="path83"
         style="fill:#333f48" /><path
         d="m 911.286,130.459 c -1.237,-0.744 -4.966,-2.733 -9.438,-2.733 -4.845,0 -9.438,2.612 -9.438,7.331 0,3.976 3.105,6.458 8.694,9.317 l 9.563,4.844 c 8.321,4.227 11.674,8.941 11.674,16.025 0,11.178 -9.066,15.403 -23.349,18.509 -7.578,0 -15.653,-3.729 -18.884,-5.593 l -2.362,-14.036 h 7.95 l 4.226,10.312 c 2.608,1.739 6.212,3.106 10.187,3.106 6.583,0 9.939,-4.227 9.939,-9.442 0,-4.845 -2.612,-6.955 -9.07,-10.312 l -9.813,-5.091 c -5.338,-2.729 -10.434,-7.453 -10.434,-14.408 0,-8.694 8.071,-13.538 22.483,-16.645 6.705,0 13.91,2.977 17.518,5.589 v 12.422 h -6.587 l -2.859,-9.195 z"
         id="path85"
         style="fill:#333f48" /><path
         d="m 945.577,181.637 -14.282,0.372 -0.623,-4.343 8.694,-1.245 v -45.339 l -8.694,0.744 -0.623,-4.347 14.905,-3.85 6.212,-0.498 v 53.289 l 9.316,1.245 -0.623,4.343 -14.282,-0.371 z m -6.211,-85.46 8.944,-0.623 3.478,0.623 0.623,6.955 -1.366,5.965 -8.824,0.743 -3.352,-0.743 -0.744,-6.96 1.241,-5.96 z"
         id="path87"
         style="fill:#333f48" /><path
         d="m 1018.243,165.737 c 0,4.974 0.874,7.206 2.115,9.069 h 6.955 l 0.497,4.599 -16.644,3.105 -3.85,-9.567 -16.029,10.809 c -15.771,0 -25.836,-11.804 -25.836,-28.941 0,-20.126 12.297,-30.684 30.438,-33.167 2.482,0 7.699,1.986 10.554,3.353 v -23.478 l -8.693,0.246 -0.623,-4.222 14.905,-3.85 6.211,-0.497 v 72.541 z m -15.523,2.985 3.724,-2.984 v -32.916 c -2.733,-3.106 -7.076,-4.966 -12.297,-4.966 -9.936,0 -16.271,9.065 -16.271,23.721 0,13.789 5.463,22.24 12.92,22.24 3.35,-0.001 7.576,-1.618 11.924,-5.095 z"
         id="path89"
         style="fill:#333f48" /><path
         d="m 1044.334,150.209 c 0,14.161 7.578,24.226 20.623,24.226 4.966,0 10.93,-2.361 15.527,-5.22 l 1.99,4.723 c -5.969,4.101 -13.789,7.578 -21.739,9.814 -15.035,0 -28.573,-10.684 -28.573,-30.187 0,-18.383 11.056,-28.197 28.071,-31.922 16.401,0 21.99,10.308 21.99,23.349 v 5.217 h -37.889 z m 24.97,-6.207 c 0,-9.563 -1.864,-16.146 -11.428,-16.146 -7.578,0 -12.422,7.076 -13.413,17.388 l 24.841,-1.242 z"
         id="path91"
         style="fill:#333f48" /><path
         d="m 1104.213,181.637 -14.29,0.372 -0.619,-4.343 8.698,-1.245 v -45.339 l -8.698,0.744 -0.618,-4.347 14.905,-3.85 5.338,-0.372 0.622,10.433 18.383,-12.047 c 15.9,0 18.513,5.338 18.513,20.243 v 34.534 l 9.438,1.245 -0.619,4.343 -14.286,-0.372 -11.926,0.372 -0.618,-4.343 6.211,-1.245 v -35.524 c 0,-6.458 -2.858,-9.317 -8.2,-9.317 -4.348,0 -8.694,2.729 -12.916,5.589 l -3.729,2.486 v 36.767 l 6.834,1.245 -0.623,4.343 -11.8,-0.372 z"
         id="path93"
         style="fill:#333f48" /><path
         d="m 1155.517,130.585 v -2.111 l 4.347,-4.347 h 8.075 v -8.075 l 8.075,-8.075 h 3.228 v 17.02 H 1198 v 5.589 h -18.634 v 36.397 c 0,3.599 1.367,7.452 6.583,7.452 3.604,0 6.337,-1.241 9.814,-2.979 l 2.111,4.222 -14.533,8.075 c -13.911,0 -15.775,-4.97 -15.775,-16.146 v -37.021 h -12.049 z"
         id="path95"
         style="fill:#333f48" /></g></g><g
     transform="translate(5,4.9999985)"
     id="layer1" /></svg>