<?xml version="1.0" encoding="utf-8"?>
<!-- Generator: Adobe Illustrator 16.0.4, SVG Export Plug-In . SVG Version: 6.00 Build 0)  -->
<svg version="1.2" baseProfile="tiny" id="Layer_1" xmlns="http://www.w3.org/2000/svg" xmlns:xlink="http://www.w3.org/1999/xlink"
	 x="0px" y="0px" width="1198px" height="185px" viewBox="0 0 1198 185" xml:space="preserve">
<g>
	<g>
		<path fill="#BF5700" d="M76.536,58.979l-7.784,0.25l-0.417-2.903l4.06-0.825V31.808c0-4.306-1.989-6.211-5.301-6.211
			c-2.487,0-5.714,1.824-8.779,3.725l-2.487,1.577V55.5l4.557,0.825l-0.413,2.903l-7.869-0.25l-8.702,0.25l-0.412-2.903l4.97-0.825
			V4.804l-2.98,0.498L28.165,5.051V55.25l9.523,1.075l-0.417,2.903l-13.417-0.25l-13.915,0.25l-0.417-2.903l9.939-1.075V5.051
			L7.04,5.302L3.231,15.653H0V0.995L23.773,1.16l20.376-0.165L53.014,0h2.814v26.838l12.095-7.869
			c10.603,0,12.341,3.979,12.341,14.497V55.5l6.211,0.825l-0.413,2.903L76.536,58.979z"/>
		<path fill="#BF5700" d="M98.053,38.023c0,9.438,5.051,16.15,13.753,16.15c3.308,0,7.287-1.577,10.352-3.478l1.326,3.146
			c-3.979,2.733-9.195,5.055-14.497,6.542c-10.024,0-19.05-7.125-19.05-20.129c0-12.257,7.368-18.804,18.718-21.287
			c10.935,0,14.659,6.875,14.659,15.573v3.481H98.053z M114.701,33.883c0-6.381-1.241-10.772-7.618-10.772
			c-5.055,0-8.282,4.723-8.945,11.597L114.701,33.883z"/>
		<path fill="#BF5700" d="M180.541,3.975l0.417-2.895l10.603,0.246l9.692-0.246l0.413,2.895l-7.044,1.076v33.798
			c0,10.772-4.388,17.979-20.874,21.787c-16.312,0-22.111-8.783-22.111-21.949V5.051l-7.457-1.076l0.413-2.895l11.432,0.246
			l11.351-0.246l0.413,2.895l-7.044,1.076v34.873c0,10.271,4.391,16.155,13.837,16.155c8.613,0,13.417-5.799,13.417-16.402V5.051
			L180.541,3.975z"/>
		<path fill="#BF5700" d="M212.834,58.979l-9.523,0.25l-0.417-2.903l5.799-0.825V25.266l-5.799,0.497l-0.413-2.899l9.939-2.567
			l3.562-0.251l0.417,6.959l12.257-8.035c10.603,0,12.345,3.563,12.345,13.503V55.5l6.292,0.825l-0.413,2.903l-9.527-0.25
			l-7.95,0.25l-0.417-2.903l4.145-0.825V31.808c0-4.306-1.909-6.211-5.467-6.211c-2.903,0-5.799,1.824-8.617,3.725l-2.487,1.658
			V55.5l4.557,0.825l-0.417,2.903L212.834,58.979z"/>
		<path fill="#BF5700" d="M260.292,58.979l-9.527,0.25l-0.412-2.903l5.798-0.825V25.266l-5.798,0.497l-0.417-2.899l9.939-2.567
			l4.145-0.332V55.5l6.211,0.825l-0.413,2.903L260.292,58.979z M256.151,1.989l5.96-0.416l2.321,0.416l0.413,4.639l-0.91,3.975
			l-5.883,0.497l-2.232-0.497l-0.501-4.638L256.151,1.989z"/>
		<path fill="#BF5700" d="M293.499,53.843l10.024-29.988l-3.809-0.825l0.417-2.899l7.287,0.246l6.875-0.246l0.413,2.899
			l-5.297,0.825L295.82,57.902l-6.05,2.482l-14.412-36.53l-5.136-0.825l0.417-2.899l9.523,0.246l8.702-0.246l0.413,2.899
			l-5.467,0.825l9.026,24.271L293.499,53.843z"/>
		<path fill="#BF5700" d="M322.816,38.023c0,9.438,5.055,16.15,13.749,16.15c3.316,0,7.291-1.577,10.356-3.478l1.322,3.146
			c-3.971,2.733-9.191,5.055-14.493,6.542c-10.021,0-19.054-7.125-19.054-20.129c0-12.257,7.376-18.804,18.723-21.287
			c10.934,0,14.663,6.875,14.663,15.573v3.481H322.816z M339.468,33.883c0-6.381-1.246-10.772-7.626-10.772
			c-5.051,0-8.282,4.723-8.945,11.597L339.468,33.883z"/>
		<path fill="#BF5700" d="M366.626,30.979l9.442-11.598h6.627v8.285h-6.13c-1.99,0.417-5.633,3.15-7.869,5.884l-1.658,1.985V55.25
			l8.702,0.829l-0.417,3.149l-12.014-0.25l-9.276,0.25l-0.413-2.903l5.799-0.825V25.266l-5.799,0.497l-0.413-2.899l9.939-2.567
			l3.312-0.251L366.626,30.979z"/>
		<path fill="#BF5700" d="M408.778,24.849c-0.825-0.493-3.312-1.819-6.292-1.819c-3.235,0-6.3,1.738-6.3,4.885
			c0,2.652,2.074,4.311,5.799,6.211l6.381,3.235c5.548,2.814,7.788,5.96,7.788,10.684c0,7.456-6.049,10.271-15.576,12.341
			c-5.051,0-10.433-2.482-12.592-3.728l-1.569-9.357h5.297l2.819,6.874c1.739,1.156,4.141,2.07,6.789,2.07
			c4.392,0,6.632-2.814,6.632-6.296c0-3.23-1.739-4.638-6.049-6.874l-6.543-3.397c-3.562-1.823-6.959-4.97-6.959-9.607
			c0-5.799,5.382-9.029,14.994-11.101c4.472,0,9.276,1.99,11.678,3.729v8.282h-4.387L408.778,24.849z"/>
		<path fill="#BF5700" d="M431.633,58.979l-9.523,0.25l-0.417-2.903l5.799-0.825V25.266l-5.799,0.497l-0.413-2.899l9.939-2.567
			l4.141-0.332V55.5l6.211,0.825l-0.412,2.903L431.633,58.979z M427.493,1.989l5.964-0.416l2.321,0.416l0.413,4.639l-0.91,3.975
			l-5.879,0.497l-2.24-0.497l-0.494-4.638L427.493,1.989z"/>
		<path fill="#BF5700" d="M472.714,78.61v-8.285h7.125l8.201-12.508l-3.312,0.995l-13.918-34.873h-12.507v25.265
			c0,2.402,0.91,4.97,4.388,4.97c2.402,0,4.974-1.16,7.291-2.321l1.411,2.819l-10.441,5.713c-9.276,0-10.518-3.312-10.518-10.764
			V24.934h-8.035v-1.411l2.899-2.896h5.382v-5.386l5.386-5.383h2.151v10.356h26.095l0.416,2.814l-5.467,0.825l9.191,24.271
			l0.663,5.718l10.271-29.988l-3.809-0.825l0.417-2.899l7.287,0.246l6.875-0.246l0.413,2.899l-5.297,0.825l-13.421,33.882
			l-9.276,20.874H472.714z"/>
		<path fill="#BF5700" d="M565.138,38.849c0,12.341-7.537,19.466-20.376,21.536c-11.016,0-18.473-8.532-18.473-19.798
			c0-12.422,7.538-19.467,20.377-21.618C557.686,18.969,565.138,27.582,565.138,38.849z M546.832,56.325
			c6.627,0,10.02-6.789,10.02-15.738c0-10.518-5.05-17.558-12.256-17.558c-6.709,0-10.024,6.793-10.024,15.819
			C534.571,48.295,539.46,56.325,546.832,56.325z"/>
		<path fill="#BF5700" d="M583.768,21.04h10.352v3.894h-10.352V55.5l9.526,0.579l-0.416,3.149l-12.839-0.25l-9.527,0.25
			l-0.412-2.903l5.799-0.825V24.934h-7.291v-1.411l2.486-2.896h4.805v-0.829c0-4.97,1.572-8.2,4.553-11.597l6.959-7.869h10.438
			v6.627h-10.769l-1.573,2.236c-1.16,1.573-1.738,3.976-1.738,9.361V21.04z"/>
		<path fill="#BF5700" d="M657.477,59.229l-13.417-0.25l-13.919,0.25l-0.412-2.903l9.939-1.075V5.051l-12.427,0.17l-3.812,10.518
			h-3.228V1.08l23.773,0.246l23.854-0.246v14.658h-3.227l-3.813-10.518l-12.426-0.17V55.25l9.526,1.075L657.477,59.229z"/>
		<path fill="#BF5700" d="M672.212,38.023c0,9.438,5.055,16.15,13.749,16.15c3.315,0,7.291-1.577,10.355-3.478l1.322,3.146
			c-3.971,2.733-9.191,5.055-14.492,6.542c-10.021,0-19.055-7.125-19.055-20.129c0-12.257,7.376-18.804,18.723-21.287
			c10.935,0,14.663,6.875,14.663,15.573v3.481H672.212z M688.864,33.883c0-6.381-1.245-10.772-7.627-10.772
			c-5.05,0-8.281,4.723-8.944,11.597L688.864,33.883z"/>
		<path fill="#BF5700" d="M716.354,56.325l-0.412,2.903l-6.462-0.25l-8.532,0.25l-0.413-2.903l5.799-0.825l12.257-15.074
			l-12.014-16.486l-5.136-0.829l0.416-2.98l9.527,0.246l7.869-0.246l0.412,2.98l-3.23,0.829l6.13,9.195l0.663,2.155l7.869-11.351
			l-4.06-0.829l0.416-2.98l6.458,0.246l8.532-0.246l0.421,2.98l-5.969,0.829L725.962,37.19l13.004,18.31l5.136,0.825l-0.412,2.903
			l-9.527-0.25l-7.869,0.25l-0.412-2.903l3.396-0.825l-7.376-10.688l-0.663-1.904L712.459,55.5L716.354,56.325z"/>
		<path fill="#BF5700" d="M763.31,18.969c10.44,0,13.086,2.653,13.086,13.171v16.235c0,3.562,0.582,4.885,1.407,6.212h4.148
			l0.332,2.903l-10.692,2.07l-2.563-6.381l-9.858,7.205c-7.125,0-12.18-3.975-12.18-10.603c0-2.979,1.083-5.135,2.903-7.618
			l18.634-6.211v-4.146c0-4.97-0.413-7.953-4.886-7.953c-2.231,0-4.965,0.748-6.793,1.496l-1.407,6.542h-7.125v-6.296L763.31,18.969
			z M768.526,39.265l-12.011,4.97c-1.237,1.241-1.657,2.899-1.657,4.639c0,4.226,2.401,5.714,4.804,5.714
			c2.321,0,4.311-1.407,5.387-2.151l3.478-2.402V39.265z"/>
		<path fill="#BF5700" d="M807.952,24.849c-0.833-0.493-3.315-1.819-6.3-1.819c-3.227,0-6.292,1.738-6.292,4.885
			c0,2.652,2.07,4.311,5.799,6.211l6.373,3.235c5.556,2.814,7.788,5.96,7.788,10.684c0,7.456-6.05,10.271-15.568,12.341
			c-5.055,0-10.441-2.482-12.593-3.728l-1.577-9.357h5.306l2.814,6.874c1.739,1.156,4.141,2.07,6.794,2.07
			c4.392,0,6.623-2.814,6.623-6.296c0-3.23-1.738-4.638-6.049-6.874l-6.543-3.397c-3.559-1.823-6.955-4.97-6.955-9.607
			c0-5.799,5.386-9.029,14.994-11.101c4.473,0,9.276,1.99,11.678,3.729v8.282h-4.391L807.952,24.849z"/>
		<path fill="#BF5700" d="M857.06,18.969c10.433,0,13.086,2.653,13.086,13.171v16.235c0,3.562,0.582,4.885,1.407,6.212h4.141
			l0.331,2.903l-10.683,2.07l-2.572-6.381l-9.858,7.205c-7.117,0-12.172-3.975-12.172-10.603c0-2.979,1.075-5.135,2.896-7.618
			l18.642-6.211v-4.146c0-4.97-0.413-7.953-4.885-7.953c-2.24,0-4.974,0.748-6.794,1.496l-1.407,6.542h-7.125v-6.296L857.06,18.969z
			 M862.276,39.265l-12.01,4.97c-1.246,1.241-1.658,2.899-1.658,4.639c0,4.226,2.401,5.714,4.804,5.714
			c2.321,0,4.311-1.407,5.387-2.151l3.478-2.402V39.265z"/>
		<path fill="#BF5700" d="M875.604,24.934v-1.411l2.903-2.896h5.378v-5.386l5.387-5.383h2.151v11.347h12.511v3.729h-12.422v24.271
			c0,2.402,0.905,4.97,4.383,4.97c2.402,0,4.23-0.829,6.551-1.989l1.407,2.818l-9.696,5.382c-9.276,0-10.514-3.312-10.514-10.764
			V24.934H875.604z"/>
		<path fill="#BF5700" d="M938.881,39.762l-5.387,15.488l7.206,1.075l-0.412,2.903l-9.939-0.25l-8.864,0.25l-0.412-2.903l6.454-0.91
			l20.542-53.672l4.974-1.411l21.618,55.083l6.462,0.91l-0.413,2.903l-11.436-0.25l-10.926,0.25l-0.421-2.903l7.044-1.075
			l-5.637-15.488H938.881z M949.896,13.999l-0.583-4.472l-9.114,26.341h17.646L949.896,13.999z"/>
		<path fill="#BF5700" d="M1016.311,48.375c0,3.562,0.421,4.885,0.995,6.212h4.141l0.331,2.903l-10.684,2.07l-2.32-6.713
			l-12.011,7.537c-10.934,0-12.754-3.89-12.754-13.497V25.266l-5.799,0.416l-0.412-3.234l9.939-2.151l4.141-0.332v27.582
			c0,4.307,1.82,6.216,5.88,6.216c2.572,0,5.88-2.07,9.033-4.141l1.65-1.08V25.266l-4.966,0.416l-0.412-3.234l9.106-2.151
			l4.141-0.332V48.375z"/>
		<path fill="#BF5700" d="M1047.868,24.849c-0.833-0.493-3.316-1.819-6.301-1.819c-3.227,0-6.292,1.738-6.292,4.885
			c0,2.652,2.07,4.311,5.799,6.211l6.373,3.235c5.557,2.814,7.788,5.96,7.788,10.684c0,7.456-6.049,10.271-15.568,12.341
			c-5.055,0-10.44-2.482-12.592-3.728l-1.577-9.357h5.305l2.814,6.874c1.739,1.156,4.142,2.07,6.794,2.07
			c4.392,0,6.624-2.814,6.624-6.296c0-3.23-1.739-4.638-6.05-6.874l-6.543-3.397c-3.559-1.823-6.955-4.97-6.955-9.607
			c0-5.799,5.387-9.029,14.994-11.101c4.473,0,9.276,1.99,11.679,3.729v8.282h-4.392L1047.868,24.849z"/>
		<path fill="#BF5700" d="M1057.88,24.934v-1.411l2.903-2.896h5.379v-5.386l5.386-5.383h2.151v11.347h12.512v3.729h-12.423v24.271
			c0,2.402,0.906,4.97,4.384,4.97c2.402,0,4.229-0.829,6.551-1.989l1.407,2.818l-9.697,5.382c-9.276,0-10.514-3.312-10.514-10.764
			V24.934H1057.88z"/>
		<path fill="#BF5700" d="M1100.865,58.979l-9.527,0.25l-0.412-2.903l5.799-0.825V25.266l-5.799,0.497l-0.421-2.899l9.939-2.567
			l4.149-0.332V55.5l6.211,0.825l-0.412,2.903L1100.865,58.979z M1096.725,1.989l5.96-0.416l2.321,0.416l0.412,4.639l-0.913,3.975
			l-5.88,0.497l-2.232-0.497l-0.501-4.638L1096.725,1.989z"/>
		<path fill="#BF5700" d="M1124.465,58.979l-9.527,0.25l-0.412-2.903l5.799-0.825V25.266l-5.799,0.497l-0.413-2.899l9.939-2.567
			l3.559-0.251l0.413,6.959l12.26-8.035c10.604,0,12.342,3.563,12.342,13.503V55.5l6.301,0.825l-0.421,2.903l-9.52-0.25l-7.958,0.25
			l-0.412-2.903l4.141-0.825V31.808c0-4.306-1.9-6.211-5.467-6.211c-2.896,0-5.799,1.824-8.613,3.725l-2.482,1.658V55.5l4.553,0.825
			l-0.412,2.903L1124.465,58.979z"/>
	</g>
	<g>
		<path fill="#333F48" d="M96.642,136.549c0,27.449-14.038,42.484-44.72,47.575c-25.092,0-42.235-18.759-42.235-43.851
			c0-27.453,14.038-42.479,44.72-47.574C79.498,92.699,96.642,111.454,96.642,136.549z M55.027,177.294
			c19.131,0,27.328-16.522,27.328-36.645c0-18.14-8.073-41.116-30.929-41.116c-19.131,0-27.453,16.393-27.453,36.644
			C23.973,154.682,32.295,177.294,55.027,177.294z"/>
		<path fill="#333F48" d="M144.841,177.787l8.696-1.241v-45.961h-26.086v45.961l10.558,0.869l-0.621,4.594l-15.528-0.372
			l-14.285,0.372l-0.621-4.222l8.694-1.241v-45.961h-10.93v-2.111l3.727-4.347h7.204c0-8.075,3.48-13.045,7.95-18.011l9.317-10.562
			h22.111l-8.198,9.939h-14.41l-2.234,3.105c-1.616,2.236-2.734,5.342-2.734,13.045v3.106h26.086v-1.869
			c0-7.448,2.359-12.293,6.832-17.388l10.435-11.8h31.303v11.8h-3.105l-8.698-1.864H170.43l-2.359,3.105
			c-1.739,2.362-2.734,5.593-2.734,13.664v4.352h21.367l9.066-1.12l6.211-0.498v53.414l9.317,1.241l-0.623,4.222l-14.283-0.372
			l-11.8,0.372l-0.623-4.594l6.211-0.869v-41.861l0.623-4.97l-4.351,0.87h-21.117v45.961l9.317,0.869l-0.621,4.594l-14.285-0.372
			l-14.287,0.372L144.841,177.787z"/>
		<path fill="#333F48" d="M251.549,130.213c-1.99-1.492-3.85-1.985-7.206-1.985c-8.447,0-14.905,9.438-14.905,22.977
			c0,13.296,7.206,23.23,19.378,23.23c4.723,0,9.688-2.361,14.036-5.22l1.985,4.723c-5.709,4.101-12.046,7.206-20.243,9.814
			c-15.9,0-27.7-10.438-27.7-29.563c0-19.504,14.282-28.82,29.56-32.545c5.718,0,13.417,2.855,17.146,6.212v12.418h-9.195
			L251.549,130.213z"/>
		<path fill="#333F48" d="M284.465,150.209c0,14.161,7.578,24.226,20.623,24.226c4.966,0,10.93-2.361,15.528-5.22l1.99,4.723
			c-5.969,4.101-13.789,7.578-21.739,9.814c-15.035,0-28.573-10.684-28.573-30.187c0-18.383,11.056-28.197,28.072-31.922
			c16.401,0,21.99,10.308,21.99,23.349v5.217H284.465z M309.436,144.002c0-9.563-1.864-16.146-11.428-16.146
			c-7.578,0-12.422,7.076-13.413,17.388L309.436,144.002z"/>
		<path fill="#333F48" d="M419.373,151.454c0,18.509-11.306,29.192-30.562,32.298c-16.519,0-27.7-12.795-27.7-29.689
			c0-18.634,11.307-29.191,30.559-32.419C408.188,121.644,419.373,134.56,419.373,151.454z M391.916,177.666
			c9.94,0,15.035-10.19,15.035-23.604c0-15.774-7.578-26.337-18.387-26.337c-10.061,0-15.031,10.19-15.031,23.729
			C373.533,165.615,380.86,177.666,391.916,177.666z"/>
		<path fill="#333F48" d="M447.323,124.75h15.528v5.835h-15.528v45.836l14.282,0.873l-0.623,4.715l-19.252-0.372l-14.286,0.372
			l-0.619-4.343l8.694-1.245v-45.836h-10.93v-2.111l3.728-4.347h7.202v-1.246c0-7.448,2.361-12.293,6.83-17.388l10.437-11.8h15.653
			v9.936h-16.15l-2.362,3.353c-1.739,2.361-2.604,5.965-2.604,14.04V124.75z"/>
		<path fill="#333F48" d="M495.767,130.585v-2.111l4.351-4.347h8.071v-8.075l8.071-8.075h3.235v17.02h18.755v5.589h-18.634v36.397
			c0,3.599,1.367,7.452,6.583,7.452c3.604,0,6.337-1.241,9.814-2.979l2.11,4.222l-14.533,8.075c-13.914,0-15.774-4.97-15.774-16.146
			v-37.021H495.767z"/>
		<path fill="#333F48" d="M560.863,176.421l6.83,1.245l-0.623,4.343l-11.8-0.372l-14.286,0.372l-0.623-4.343l8.698-1.245v-74.902
			l-8.698,0.246l-0.618-4.222l14.909-3.85l6.211-0.497v40.247l18.133-11.8c15.899,0,18.512,5.961,18.512,21.735v33.042l9.312,1.245
			l-0.618,4.343l-14.287-0.372l-11.674,0.372l-0.623-4.343l6.086-1.245v-35.524c0-6.458-2.98-9.317-7.95-9.317
			c-3.724,0-8.568,2.729-13.166,5.589l-3.725,2.361V176.421z"/>
		<path fill="#333F48" d="M622.972,150.209c0,14.161,7.577,24.226,20.619,24.226c4.97,0,10.934-2.361,15.527-5.22l1.989,4.723
			c-5.96,4.101-13.789,7.578-21.738,9.814c-15.031,0-28.573-10.684-28.573-30.187c0-18.383,11.056-28.197,28.075-31.922
			c16.397,0,21.986,10.308,21.986,23.349v5.217H622.972z M647.941,144.002c0-9.563-1.864-16.146-11.428-16.146
			c-7.578,0-12.422,7.076-13.417,17.388L647.941,144.002z"/>
		<path fill="#333F48" d="M698.994,99.161l0.618-4.352l16.773,0.372l24.222-0.372c15.528-0.121,27.328,7.457,27.328,21.99
			c0,16.644-15.649,24.469-31.056,27.699h-13.664v31.55l14.909,1.617l-0.623,4.343l-20.744-0.372l-17.146,0.372l-0.618-4.343
			l11.181-1.617v-75.278L698.994,99.161z M723.216,138.288h10.559c11.678,0,19.879-8.075,19.879-19.879
			c0-10.68-5.718-18.383-18.634-18.383l-11.804,0.744V138.288z"/>
		<path fill="#333F48" d="M790.548,139.654l14.161-17.392h9.936v12.422h-9.191c-2.984,0.619-8.447,4.72-11.8,8.82l-2.486,2.979
			v29.564l13.041,1.245l-0.619,4.715l-18.015-0.372l-13.91,0.372l-0.623-4.343l8.698-1.245v-45.339l-8.698,0.744l-0.618-4.347
			l14.909-3.85l4.966-0.372L790.548,139.654z"/>
		<path fill="#333F48" d="M831.54,150.209c0,14.161,7.577,24.226,20.618,24.226c4.971,0,10.935-2.361,15.528-5.22l1.989,4.723
			c-5.96,4.101-13.789,7.578-21.738,9.814c-15.031,0-28.573-10.684-28.573-30.187c0-18.383,11.056-28.197,28.075-31.922
			c16.397,0,21.986,10.308,21.986,23.349v5.217H831.54z M856.51,144.002c0-9.563-1.864-16.146-11.428-16.146
			c-7.578,0-12.422,7.076-13.417,17.388L856.51,144.002z"/>
		<path fill="#333F48" d="M911.286,130.459c-1.237-0.744-4.966-2.733-9.438-2.733c-4.845,0-9.438,2.612-9.438,7.331
			c0,3.976,3.105,6.458,8.694,9.317l9.563,4.844c8.321,4.227,11.674,8.941,11.674,16.025c0,11.178-9.066,15.403-23.349,18.509
			c-7.578,0-15.653-3.729-18.884-5.593l-2.362-14.036h7.95l4.226,10.312c2.608,1.739,6.212,3.106,10.187,3.106
			c6.583,0,9.939-4.227,9.939-9.442c0-4.845-2.612-6.955-9.07-10.312l-9.813-5.091c-5.338-2.729-10.434-7.453-10.434-14.408
			c0-8.694,8.071-13.538,22.483-16.645c6.705,0,13.91,2.977,17.518,5.589v12.422h-6.587L911.286,130.459z"/>
		<path fill="#333F48" d="M945.577,181.637l-14.282,0.372l-0.623-4.343l8.694-1.245v-45.339l-8.694,0.744l-0.623-4.347l14.905-3.85
			l6.212-0.498v53.289l9.316,1.245l-0.623,4.343L945.577,181.637z M939.366,96.177l8.944-0.623l3.478,0.623l0.623,6.955
			l-1.366,5.965l-8.824,0.743l-3.352-0.743l-0.744-6.96L939.366,96.177z"/>
		<path fill="#333F48" d="M1018.243,165.737c0,4.974,0.874,7.206,2.115,9.069h6.955l0.497,4.599l-16.644,3.105l-3.85-9.567
			l-16.029,10.809c-15.771,0-25.836-11.804-25.836-28.941c0-20.126,12.297-30.684,30.438-33.167c2.482,0,7.699,1.986,10.554,3.353
			v-23.478l-8.693,0.246l-0.623-4.222l14.905-3.85l6.211-0.497V165.737z M1002.72,168.722l3.724-2.984v-32.916
			c-2.733-3.106-7.076-4.966-12.297-4.966c-9.936,0-16.271,9.065-16.271,23.721c0,13.789,5.463,22.24,12.92,22.24
			C994.146,173.816,998.372,172.199,1002.72,168.722z"/>
		<path fill="#333F48" d="M1044.334,150.209c0,14.161,7.578,24.226,20.623,24.226c4.966,0,10.93-2.361,15.527-5.22l1.99,4.723
			c-5.969,4.101-13.789,7.578-21.739,9.814c-15.035,0-28.573-10.684-28.573-30.187c0-18.383,11.056-28.197,28.071-31.922
			c16.401,0,21.99,10.308,21.99,23.349v5.217H1044.334z M1069.304,144.002c0-9.563-1.864-16.146-11.428-16.146
			c-7.578,0-12.422,7.076-13.413,17.388L1069.304,144.002z"/>
		<path fill="#333F48" d="M1104.213,181.637l-14.29,0.372l-0.619-4.343l8.698-1.245v-45.339l-8.698,0.744l-0.618-4.347l14.905-3.85
			l5.338-0.372l0.622,10.433l18.383-12.047c15.9,0,18.513,5.338,18.513,20.243v34.534l9.438,1.245l-0.619,4.343l-14.286-0.372
			l-11.926,0.372l-0.618-4.343l6.211-1.245v-35.524c0-6.458-2.858-9.317-8.2-9.317c-4.348,0-8.694,2.729-12.916,5.589l-3.729,2.486
			v36.767l6.834,1.245l-0.623,4.343L1104.213,181.637z"/>
		<path fill="#333F48" d="M1155.517,130.585v-2.111l4.347-4.347h8.075v-8.075l8.075-8.075h3.228v17.02H1198v5.589h-18.634v36.397
			c0,3.599,1.367,7.452,6.583,7.452c3.604,0,6.337-1.241,9.814-2.979l2.111,4.222l-14.533,8.075
			c-13.911,0-15.775-4.97-15.775-16.146v-37.021H1155.517z"/>
	</g>
</g>
</svg>
