<?xml version="1.0" encoding="utf-8"?>
<!-- Generator: Adobe Illustrator 18.0.0, SVG Export Plug-In . SVG Version: 6.00 Build 0)  -->
<!DOCTYPE svg PUBLIC "-//W3C//DTD SVG 1.1//EN" "http://www.w3.org/Graphics/SVG/1.1/DTD/svg11.dtd">
<svg version="1.1" id="Layer_1" xmlns="http://www.w3.org/2000/svg" xmlns:xlink="http://www.w3.org/1999/xlink" x="0px" y="0px"
	 viewBox="0 0 505.1 219.4" enable-background="new 0 0 505.1 219.4" xml:space="preserve">
<g>
	<path fill="#BE5927" d="M450.3,203.6l52.5,0.5c0,0,0.5,0.2,0.5,0.7c0,0.4-0.5,0.7-0.5,0.7l-52.5,0.5l-52.5,0.5c0,0-1.3-0.3-1.3-1.7
		c0-1.4,1.3-1.7,1.3-1.7L450.3,203.6z"/>
	<path fill="#BE5927" d="M61.4,205.9l-52.5-0.5c0,0-0.5-0.2-0.5-0.7c0-0.4,0.5-0.6,0.5-0.6l52.5-0.5l52.5-0.5c0,0,1.3,0.3,1.3,1.7
		c0,1.4-1.3,1.7-1.3,1.7L61.4,205.9z"/>
	<path fill="#BE5927" d="M17.8,3.1l-6,0.1c-2.3,0-3.3,0.3-3.9,1.2C7.5,5,7.4,5.5,7.3,5.8C7.2,6.1,7.1,6.3,6.8,6.3
		c-0.3,0-0.4-0.2-0.4-0.6C6.4,5,7.2,1.3,7.3,1c0.1-0.5,0.2-0.7,0.5-0.7c0.3,0,0.7,0.3,1.7,0.5c1.2,0.1,2.7,0.2,4,0.2h16.2
		c1.3,0,2.1-0.1,2.7-0.2c0.6-0.1,1-0.2,1.1-0.2c0.3,0,0.3,0.2,0.3,0.8c0,0.8-0.1,3.7-0.1,4.7c0,0.4-0.1,0.6-0.4,0.6
		c-0.3,0-0.4-0.2-0.5-0.8l0-0.4c-0.1-1-1.1-2.2-4.7-2.2l-5-0.1v15.6c0,3.5,0,6.6,0.2,8.3c0.1,1.1,0.4,1.8,1.5,2
		c0.5,0.1,1.5,0.1,2,0.1c0.5,0,0.6,0.2,0.6,0.4c0,0.3-0.3,0.4-0.8,0.4c-2.6,0-5.3-0.1-6.5-0.1c-0.9,0-3.6,0.1-5.2,0.1
		c-0.5,0-0.8-0.1-0.8-0.4c0-0.2,0.1-0.4,0.6-0.4c0.6,0,1.1,0,1.4-0.1c0.8-0.2,1-0.9,1.2-2c0.2-1.6,0.2-4.7,0.2-8.2V3.1z"/>
	<path fill="#BE5927" d="M63.3,13.4c0.1,0,0.2,0,0.2-0.3v-0.8c0-5.9,0-7.3-0.1-8.5C63.4,2.5,63,2,61.7,1.7c-0.3-0.1-1-0.1-1.5-0.1
		c-0.5,0-0.7-0.1-0.7-0.4c0-0.3,0.3-0.4,0.9-0.4c2.1,0,5,0.1,6,0.1c1,0,3.6-0.1,5.1-0.1c0.6,0,0.9,0.1,0.9,0.4
		c0,0.3-0.3,0.4-0.7,0.4c-0.3,0-0.7,0-1.2,0.1c-1,0.2-1.4,0.7-1.5,2.1C68.9,5,68.9,6.1,68.9,12v6.8c0,3.6,0,6.6,0.2,8.3
		c0.1,1.1,0.4,1.8,1.6,2c0.5,0.1,1.4,0.1,2,0.1c0.4,0,0.6,0.2,0.6,0.4c0,0.3-0.3,0.4-0.8,0.4c-2.6,0-5.2-0.1-6.3-0.1
		c-0.9,0-3.7,0.1-5.3,0.1c-0.5,0-0.9-0.1-0.9-0.4c0-0.2,0.2-0.4,0.6-0.4c0.6,0,1.1,0,1.5-0.1c0.8-0.2,1-0.9,1.2-2
		c0.2-1.6,0.2-4.6,0.2-8.1v-3c0-0.1-0.1-0.2-0.2-0.2H48.2c-0.1,0-0.3,0-0.3,0.2v3c0,3.5,0,6.5,0.2,8.2c0.1,1.1,0.4,1.8,1.5,2
		c0.5,0.1,1.5,0.1,2,0.1c0.5,0,0.6,0.2,0.6,0.4c0,0.3-0.3,0.4-0.8,0.4c-2.6,0-5.4-0.1-6.5-0.1c-0.9,0-3.5,0.1-5.1,0.1
		c-0.5,0-0.8-0.1-0.8-0.4c0-0.2,0.1-0.4,0.6-0.4c0.6,0,1,0,1.4-0.1c0.8-0.2,1-0.9,1.2-2c0.2-1.6,0.2-4.7,0.2-8.2V12c0-5.9,0-7,0-8.2
		c-0.1-1.3-0.5-1.7-1.7-2.1c-0.3-0.1-1-0.1-1.6-0.1c-0.4,0-0.7-0.1-0.7-0.4c0-0.3,0.3-0.4,0.9-0.4c2.1,0,4.8,0.1,5.9,0.1
		c1,0,3.7-0.1,5.3-0.1c0.5,0,0.8,0.1,0.8,0.4c0,0.3-0.2,0.4-0.7,0.4c-0.3,0-0.7,0-1.1,0.1c-1.1,0.2-1.4,0.7-1.5,2.1
		C48,5,48,6.4,48,12.3v0.8c0,0.2,0.1,0.3,0.3,0.3H63.3z"/>
	<path fill="#BE5927" d="M82.5,12c0-5.9,0-7,0-8.2C82.3,2.5,82,2,80.7,1.7c-0.3-0.1-1-0.1-1.6-0.1c-0.4,0-0.7-0.1-0.7-0.4
		c0-0.3,0.3-0.4,0.9-0.4c2.1,0,4.6,0.1,5.8,0.1c1.3,0,10.1,0,10.9,0c0.7,0,1.4-0.2,1.7-0.2c0.2,0,0.5-0.2,0.6-0.2
		c0.2,0,0.3,0.2,0.3,0.4c0,0.3-0.2,0.7-0.3,2.5c0,0.4-0.1,2.1-0.2,2.5c0,0.2-0.1,0.6-0.5,0.6c-0.3,0-0.3-0.2-0.3-0.5
		c0-0.3,0-1-0.3-1.4c-0.3-0.7-0.6-1.2-2.6-1.4C93.7,3.1,88.9,3,88.1,3c-0.2,0-0.3,0.1-0.3,0.4v9.5c0,0.2,0,0.4,0.3,0.4
		c0.9,0,6.1,0,7-0.1c1-0.1,1.5-0.2,1.9-0.6c0.3-0.3,0.5-0.5,0.6-0.5c0.2,0,0.3,0.2,0.3,0.4c0,0.2-0.1,0.9-0.3,2.8
		c-0.1,0.8-0.2,2.3-0.2,2.6c0,0.3,0,0.9-0.4,0.9c-0.3,0-0.4-0.1-0.4-0.3c0-0.4,0-0.9-0.1-1.4c-0.2-0.8-0.7-1.4-2.2-1.5
		c-0.7-0.1-5.3-0.2-6.3-0.2c-0.2,0-0.2,0.2-0.2,0.4v3.1c0,1.3,0,4.6,0,5.7c0.1,2.6,1.3,3.2,5.4,3.2c1,0,2.7,0,3.8-0.5
		c1-0.5,1.5-1.3,1.7-2.9c0.1-0.4,0.2-0.6,0.5-0.6c0.3,0,0.4,0.5,0.4,0.9c0,0.9-0.3,3.5-0.5,4.3c-0.3,1-0.6,1-2.1,1
		c-3,0-5.4,0-7.4-0.1c-2,0-3.5-0.1-4.6-0.1c-0.5,0-1.3,0-2.3,0c-1,0-2,0.1-2.8,0.1c-0.5,0-0.8-0.1-0.8-0.4c0-0.2,0.1-0.4,0.6-0.4
		c0.6,0,1,0,1.4-0.1c0.8-0.2,1-0.9,1.2-2c0.2-1.6,0.2-4.7,0.2-8.2V12z"/>
	<path fill="#BE5927" d="M125.3,12c0-5.9,0-7,0-8.2c-0.1-1.4-0.5-1.7-1.7-2.1c-0.3-0.1-1-0.1-1.5-0.1c-0.5,0-0.7-0.1-0.7-0.4
		c0-0.3,0.3-0.4,0.9-0.4c2.1,0,4.8,0.1,6,0.1c1,0,3.7-0.1,5.1-0.1c0.6,0,0.9,0.1,0.9,0.4c0,0.3-0.2,0.4-0.6,0.4
		c-0.5,0-0.7,0-1.2,0.1c-1,0.2-1.4,0.7-1.5,2.1c-0.1,1.2-0.1,2.3-0.1,8.2v5.4c0,5.6,1.1,7.8,3,9.4c1.8,1.4,3.7,1.5,5,1.5
		c1.7,0,3.8-0.5,5.4-2c2.2-2.1,2.3-5.5,2.3-9.4V12c0-5.9,0-7-0.1-8.2c-0.1-1.3-0.4-1.7-1.7-2.1c-0.3-0.1-1-0.1-1.5-0.1
		c-0.5,0-0.7-0.1-0.7-0.4c0-0.3,0.3-0.4,0.8-0.4c2,0,4.7,0.1,4.8,0.1c0.5,0,3.1-0.1,4.7-0.1c0.5,0,0.8,0.1,0.8,0.4
		c0,0.3-0.2,0.4-0.7,0.4c-0.5,0-0.7,0-1.2,0.1c-1.1,0.2-1.4,0.7-1.5,2.1c0,1.2-0.1,2.3-0.1,8.2v4.1c0,4.3-0.5,8.9-3.8,11.6
		c-2.8,2.4-5.9,2.8-8.5,2.8c-2.1,0-6.2-0.1-9.1-2.6c-2-1.8-3.6-4.6-3.6-10.2V12z"/>
	<path fill="#BE5927" d="M165.2,24.7c0.1,3,0.6,3.9,1.4,4.2c0.7,0.2,1.5,0.3,2.1,0.3c0.5,0,0.7,0.2,0.7,0.4c0,0.3-0.4,0.4-0.9,0.4
		c-2.6,0-4.5-0.1-5.2-0.1c-0.4,0-2.3,0.1-4.3,0.1c-0.5,0-0.9,0-0.9-0.4c0-0.2,0.3-0.4,0.6-0.4c0.5,0,1.3,0,1.8-0.2
		c1-0.3,1.2-1.3,1.2-4.7l0.4-22.9c0-0.8,0.3-1.3,0.7-1.3c0.5,0,1,0.6,1.7,1.3C165,1.9,171,8,176.8,13.7c2.7,2.7,8.1,8.1,8.6,8.7h0.2
		l-0.4-17.2c0-2.4-0.4-3-1.4-3.4c-0.6-0.2-1.5-0.2-2.1-0.2c-0.5,0-0.6-0.2-0.6-0.4c0-0.3,0.4-0.4,1-0.4c2.1,0,4.2,0.1,5.1,0.1
		c0.5,0,2-0.1,3.9-0.1c0.5,0,0.9,0,0.9,0.4c0,0.2-0.2,0.4-0.7,0.4c-0.4,0-0.7,0-1.2,0.1c-1.1,0.3-1.4,1-1.5,3.2l-0.5,24.4
		c0,0.9-0.3,1.2-0.6,1.2c-0.7,0-1.2-0.4-1.6-0.8c-2.5-2.3-7.5-7.1-11.7-11.1c-4.4-4.2-8.6-8.9-9.4-9.6h-0.1L165.2,24.7z"/>
	<path fill="#BE5927" d="M203.1,12c0-5.9,0-7,0-8.2c-0.1-1.3-0.5-1.8-1.4-2c-0.5-0.1-1-0.2-1.5-0.2c-0.4,0-0.6-0.1-0.6-0.5
		c0-0.2,0.3-0.3,1-0.3c1.5,0,4.2,0.1,5.4,0.1c1,0,3.6-0.1,5.1-0.1c0.5,0,0.8,0.1,0.8,0.3c0,0.4-0.2,0.5-0.6,0.5
		c-0.4,0-0.7,0-1.2,0.1c-1.1,0.2-1.4,0.7-1.5,2.1c-0.1,1.2-0.1,2.3-0.1,8.2v6.8c0,3.7,0,6.8,0.2,8.5c0.1,1,0.4,1.6,1.6,1.8
		c0.5,0.1,1.5,0.1,2,0.1c0.5,0,0.6,0.2,0.6,0.4c0,0.3-0.3,0.4-0.8,0.4c-2.6,0-5.4-0.1-6.5-0.1c-0.9,0-3.6,0.1-5.2,0.1
		c-0.5,0-0.8-0.1-0.8-0.4c0-0.2,0.1-0.4,0.6-0.4c0.6,0,1,0,1.4-0.1c0.8-0.2,1-0.7,1.2-1.9c0.2-1.6,0.2-4.7,0.2-8.4V12z"/>
	<path fill="#BE5927" d="M222.1,4.6c-0.9-2.1-1.5-2.5-3-2.9c-0.6-0.1-1.2-0.1-1.6-0.1c-0.4,0-0.5-0.2-0.5-0.4c0-0.3,0.4-0.4,1-0.4
		c2.1,0,4.4,0.1,5.8,0.1c1,0,3.1-0.1,5.1-0.1c0.5,0,1,0.1,1,0.4c0,0.3-0.3,0.4-0.6,0.4c-0.6,0-1.2,0-1.5,0.3
		c-0.3,0.2-0.4,0.4-0.4,0.8c0,0.5,0.4,1.5,0.9,2.9l6.7,17.3h0.1c1.7-4,6.9-16.5,7.8-19c0.2-0.5,0.4-1.1,0.4-1.4
		c0-0.4-0.2-0.5-0.5-0.7c-0.5-0.1-1.1-0.2-1.6-0.2c-0.4,0-0.7-0.1-0.7-0.4c0-0.3,0.4-0.4,1.1-0.4c2,0,3.8,0.1,4.3,0.1
		c0.7,0,2.5-0.1,3.8-0.1c0.5,0,0.8,0.1,0.8,0.4c0,0.3-0.2,0.4-0.6,0.4c-0.4,0-1.3,0-2,0.5c-0.5,0.4-1,1-2.1,3.4
		c-1.6,3.6-2.6,5.7-4.8,10.5c-2.5,5.6-4.4,9.9-5.3,11.8c-1,2.2-1.4,2.8-1.9,2.8c-0.5,0-0.9-0.5-1.6-2.3L222.1,4.6z"/>
	<path fill="#BE5927" d="M258,12c0-5.9,0-7,0-8.2c-0.1-1.3-0.5-1.7-1.7-2.1c-0.3-0.1-1-0.1-1.6-0.1c-0.4,0-0.7-0.1-0.7-0.4
		c0-0.3,0.3-0.4,0.9-0.4c2.1,0,4.6,0.1,5.8,0.1c1.3,0,10.1,0,10.9,0c0.7,0,1.4-0.2,1.7-0.2c0.2,0,0.5-0.2,0.6-0.2
		c0.2,0,0.3,0.2,0.3,0.4c0,0.3-0.2,0.7-0.3,2.5c0,0.4-0.1,2.1-0.2,2.5c0,0.2-0.1,0.6-0.5,0.6c-0.3,0-0.3-0.2-0.3-0.5
		c0-0.3,0-1-0.3-1.4c-0.3-0.7-0.6-1.2-2.6-1.4c-0.7-0.1-5.5-0.2-6.3-0.2c-0.2,0-0.3,0.1-0.3,0.4v9.5c0,0.2,0,0.4,0.3,0.4
		c0.9,0,6.1,0,7-0.1c1-0.1,1.5-0.2,1.9-0.6c0.3-0.3,0.5-0.5,0.6-0.5c0.2,0,0.3,0.2,0.3,0.4c0,0.2-0.1,0.9-0.3,2.8
		c-0.1,0.8-0.2,2.3-0.2,2.6c0,0.3,0,0.9-0.4,0.9c-0.3,0-0.4-0.1-0.4-0.3c0-0.4,0-0.9-0.1-1.4c-0.2-0.8-0.7-1.4-2.2-1.5
		c-0.7-0.1-5.3-0.2-6.3-0.2c-0.2,0-0.2,0.2-0.2,0.4v3.1c0,1.3,0,4.6,0,5.7c0.1,2.6,1.3,3.2,5.4,3.2c1,0,2.7,0,3.8-0.5
		c1-0.5,1.5-1.3,1.7-2.9c0.1-0.4,0.2-0.6,0.5-0.6c0.3,0,0.4,0.5,0.4,0.9c0,0.9-0.3,3.5-0.5,4.3c-0.3,1-0.6,1-2.1,1
		c-3,0-5.4,0-7.4-0.1c-2,0-3.5-0.1-4.6-0.1c-0.5,0-1.3,0-2.3,0c-1,0-2,0.1-2.8,0.1c-0.5,0-0.8-0.1-0.8-0.4c0-0.2,0.1-0.4,0.6-0.4
		c0.6,0,1,0,1.4-0.1c0.8-0.2,1-0.9,1.2-2c0.2-1.6,0.2-4.7,0.2-8.2V12z"/>
	<path fill="#BE5927" d="M286.4,12c0-5.9,0-7,0-8.2c-0.1-1.3-0.5-1.7-1.7-2.1c-0.3-0.1-1-0.1-1.6-0.1c-0.4,0-0.7-0.1-0.7-0.4
		c0-0.3,0.3-0.4,0.9-0.4c2.1,0,4.6,0.1,5.5,0.1c1.4,0,5-0.1,6.2-0.1c2.5,0,5.5,0.2,7.6,1.6c1.1,0.8,2.8,2.7,2.8,5.3
		c0,2.9-1.6,5.4-5.5,8.6c3.5,4.4,6.4,7.9,8.8,10.3c2.2,2.2,3.6,2.4,4.3,2.5c0.4,0.1,0.6,0.1,1,0.1c0.3,0,0.5,0.2,0.5,0.4
		c0,0.3-0.3,0.4-0.8,0.4h-3.8c-2.2,0-3.3-0.2-4.4-0.8c-1.7-0.9-3.2-2.7-5.5-5.7c-1.6-2.1-3.3-4.7-3.8-5.3c-0.2-0.2-0.5-0.3-0.7-0.3
		l-3.6-0.1c-0.2,0-0.3,0.1-0.3,0.3v0.5c0,3.6,0,6.6,0.2,8.2c0.1,1.1,0.3,1.9,1.5,2c0.6,0.1,1.5,0.1,2,0.1c0.3,0,0.5,0.2,0.5,0.4
		c0,0.3-0.3,0.4-0.8,0.4c-2.3,0-5.6-0.1-6.2-0.1c-0.8,0-3.3,0.1-4.9,0.1c-0.5,0-0.8-0.1-0.8-0.4c0-0.2,0.1-0.4,0.6-0.4
		c0.6,0,1,0,1.4-0.1c0.8-0.2,1-0.9,1.2-2c0.2-1.6,0.2-4.7,0.2-8.2V12z M291.5,15c0,0.4,0.1,0.5,0.4,0.7c0.9,0.3,2,0.4,3,0.4
		c1.6,0,2.1-0.1,2.8-0.6c1.2-0.9,2.6-2.5,2.6-5.7c0-5.5-3.7-6.9-6.1-6.9c-1,0-2,0-2.4,0.1c-0.3,0.1-0.4,0.2-0.4,0.5V15z"/>
	<path fill="#BE5927" d="M317.3,29.5c-0.6-0.3-0.8-0.5-0.8-1.3c0-2.1,0.2-4.5,0.2-5.1c0-0.6,0.2-1,0.5-1c0.4,0,0.4,0.4,0.4,0.6
		c0,0.5,0.1,1.3,0.4,2c0.9,2.9,3.9,3.8,6.4,3.8c3.5,0,5.6-2.2,5.6-4.9c0-1.7-0.4-3.4-4-5.5l-2.3-1.4c-4.7-2.8-6.3-5.4-6.3-8.8
		c0-4.7,4.6-7.8,10.1-7.8c2.6,0,4.6,0.4,5.7,0.6c0.4,0.1,0.5,0.2,0.5,0.5c0,0.5-0.1,1.6-0.1,4.6c0,0.8-0.2,1.2-0.5,1.2
		c-0.3,0-0.4-0.2-0.4-0.7c0-0.4-0.2-1.5-1-2.5c-0.6-0.7-1.9-1.8-4.5-1.8c-2.9,0-5.5,1.5-5.5,4.1c0,1.7,0.6,3.1,4.2,5.1l1.6,0.9
		c5.3,2.9,6.9,5.9,6.9,9.4c0,2.9-1.1,5.2-4,7.2c-1.9,1.4-4.5,1.6-6.7,1.6C321.5,30.5,319.1,30.3,317.3,29.5"/>
	<path fill="#BE5927" d="M346.2,12c0-5.9,0-7,0-8.2c-0.1-1.3-0.5-1.8-1.4-2c-0.5-0.1-1-0.2-1.5-0.2c-0.4,0-0.6-0.1-0.6-0.5
		c0-0.2,0.3-0.3,1-0.3c1.5,0,4.2,0.1,5.4,0.1c1,0,3.6-0.1,5.1-0.1c0.5,0,0.8,0.1,0.8,0.3c0,0.4-0.2,0.5-0.6,0.5
		c-0.4,0-0.7,0-1.2,0.1c-1.1,0.2-1.4,0.7-1.5,2.1c-0.1,1.2-0.1,2.3-0.1,8.2v6.8c0,3.7,0,6.8,0.2,8.5c0.1,1,0.4,1.6,1.6,1.8
		c0.5,0.1,1.5,0.1,2,0.1c0.5,0,0.6,0.2,0.6,0.4c0,0.3-0.3,0.4-0.8,0.4c-2.6,0-5.4-0.1-6.5-0.1c-0.9,0-3.6,0.1-5.2,0.1
		c-0.5,0-0.8-0.1-0.8-0.4c0-0.2,0.1-0.4,0.6-0.4c0.6,0,1,0,1.4-0.1c0.8-0.2,1-0.7,1.2-1.9c0.2-1.6,0.2-4.7,0.2-8.4V12z"/>
	<path fill="#BE5927" d="M371.9,3.1l-6,0.1c-2.3,0-3.3,0.3-3.9,1.2c-0.4,0.5-0.6,1-0.7,1.3c-0.1,0.3-0.2,0.5-0.5,0.5
		c-0.3,0-0.4-0.2-0.4-0.6c0-0.6,0.8-4.4,0.9-4.7c0.1-0.5,0.2-0.7,0.5-0.7c0.3,0,0.7,0.3,1.7,0.5c1.2,0.1,2.7,0.2,4,0.2h16.2
		c1.3,0,2.1-0.1,2.7-0.2c0.6-0.1,1-0.2,1.1-0.2c0.3,0,0.3,0.2,0.3,0.8c0,0.8-0.1,3.7-0.1,4.7c0,0.4-0.1,0.6-0.4,0.6
		c-0.3,0-0.4-0.2-0.5-0.8l0-0.4c-0.1-1-1.1-2.2-4.7-2.2l-5.1-0.1v15.6c0,3.5,0,6.6,0.2,8.3c0.1,1.1,0.4,1.8,1.5,2
		c0.5,0.1,1.5,0.1,2,0.1c0.5,0,0.6,0.2,0.6,0.4c0,0.3-0.3,0.4-0.8,0.4c-2.6,0-5.3-0.1-6.5-0.1c-0.9,0-3.6,0.1-5.2,0.1
		c-0.5,0-0.8-0.1-0.8-0.4c0-0.2,0.1-0.4,0.6-0.4c0.6,0,1.1,0,1.4-0.1c0.8-0.2,1.1-0.9,1.2-2c0.2-1.6,0.2-4.7,0.2-8.2V3.1z"/>
	<path fill="#BE5927" d="M404,20c0-2.1-0.4-2.9-0.9-4c-0.3-0.6-5.7-9.1-7.1-11.1c-1-1.4-1.8-2.3-2.6-2.7c-0.5-0.3-1.2-0.5-1.7-0.5
		c-0.3,0-0.6-0.1-0.6-0.4c0-0.3,0.3-0.4,0.8-0.4c0.7,0,3.7,0.1,5,0.1c0.9,0,2.7-0.1,4.6-0.1c0.4,0,0.6,0.1,0.6,0.4
		c0,0.3-0.3,0.3-0.9,0.5c-0.3,0.1-0.5,0.3-0.5,0.6c0,0.3,0.2,0.8,0.5,1.3c0.7,1.2,6,10.2,6.6,11.3c0.5-0.9,5.4-9.2,6-10.4
		c0.4-0.9,0.6-1.5,0.6-2c0-0.4-0.2-0.7-0.9-0.9c-0.4-0.1-0.7-0.1-0.7-0.5c0-0.3,0.2-0.4,0.7-0.4c1.3,0,2.7,0.1,3.9,0.1
		c0.9,0,3.5-0.1,4.3-0.1c0.5,0,0.7,0.1,0.7,0.3c0,0.3-0.3,0.5-0.8,0.5c-0.4,0-1.1,0.2-1.7,0.5c-0.9,0.4-1.2,0.8-2.1,1.8
		c-1.3,1.5-7,10.7-7.8,12.4c-0.6,1.4-0.5,2.6-0.5,3.9v3.1c0,0.6,0,2.2,0.1,3.9c0.1,1.1,0.5,1.9,1.6,2c0.6,0.1,1.5,0.1,2,0.1
		c0.5,0,0.7,0.2,0.7,0.4c0,0.3-0.3,0.4-0.9,0.4c-2.5,0-5.2-0.1-6.3-0.1c-1,0-3.7,0.1-5.2,0.1c-0.5,0-0.9-0.1-0.9-0.4
		c0-0.2,0.2-0.4,0.6-0.4c0.6,0,1.1,0,1.4-0.1c0.8-0.2,1.1-0.9,1.2-2c0.1-1.6,0.1-3.2,0.1-3.9V20z"/>
	<path fill="#BE5927" d="M439.7,15.4c0-6.6,4.6-15.1,16.8-15.1c10.1,0,16.4,5.6,16.4,14.5c0,8.9-6.5,15.8-16.8,15.8
		C444.5,30.5,439.7,22.2,439.7,15.4 M466.9,16.1c0-8.6-5.1-13.8-11.6-13.8c-4.5,0-9.7,2.4-9.7,11.9c0,8,4.6,14.2,12.1,14.2
		C460.6,28.4,466.9,27.1,466.9,16.1"/>
	<path fill="#BE5927" d="M486.5,18.9c0,3.7,0,6.5,0.2,8.1c0.1,1.1,0.4,1.9,1.6,2c0.5,0.1,1.4,0.1,2,0.1c0.5,0,0.7,0.2,0.7,0.4
		c0,0.3-0.3,0.4-0.9,0.4c-2.5,0-5.4-0.1-6.4-0.1c-1,0-3.6,0.1-5.1,0.1c-0.5,0-0.8-0.1-0.8-0.4c0-0.2,0.1-0.4,0.6-0.4
		c0.6,0,1,0,1.4-0.1c0.8-0.2,1-0.9,1.2-2c0.2-1.6,0.2-4.5,0.2-8.2V12c0-5.9,0-7,0-8.2c-0.1-1.3-0.5-1.8-1.7-2.1
		c-0.3-0.1-1-0.1-1.6-0.1c-0.4,0-0.7-0.1-0.7-0.4c0-0.3,0.3-0.4,1-0.4c2,0,4.6,0.1,5.7,0.1c1.5,0,10.4,0,11.4,0
		c0.7,0,1.2-0.1,1.6-0.2c0.2,0,0.4-0.2,0.6-0.2c0.1,0,0.3,0.2,0.3,0.4c0,0.3-0.2,0.7-0.3,1.7c0,0.4-0.1,2.7-0.2,3.1
		c0,0.3-0.1,0.8-0.4,0.8c-0.3,0-0.5-0.2-0.5-0.6c0-0.3,0-0.9-0.2-1.5c-0.3-0.5-1-1.1-2.6-1.2L486.9,3c-0.2,0-0.4,0.1-0.4,0.5V13
		c0,0.2,0,0.4,0.3,0.4l5.6,0c0.7,0,1.2,0,1.8,0c0.7,0,1.3-0.2,1.7-0.7c0.2-0.2,0.3-0.4,0.5-0.4c0.1,0,0.2,0.1,0.2,0.4
		c0,0.2-0.2,1.3-0.3,2.5c-0.1,0.8-0.1,2.5-0.1,2.8c0,0.3,0,0.9-0.5,0.9c-0.2,0-0.4-0.3-0.4-0.5c0-0.3-0.1-0.7-0.3-1.2
		c-0.2-0.5-0.7-1.3-1.9-1.4c-1-0.1-5.7-0.1-6.4-0.1c-0.2,0-0.3,0-0.3,0.3V18.9z"/>
	<path fill="#BE5927" d="M43.7,65.3l-21.9,0.5c-8.5,0.2-12,1.1-14.2,4.2c-1.5,1.9-2.2,3.7-2.5,4.7c-0.3,1.1-0.7,1.8-1.7,1.8
		c-1,0-1.3-0.8-1.3-2.3c0-2.3,2.8-15.6,3.2-16.7c0.3-1.8,0.8-2.6,1.7-2.6c1.2,0,2.7,1.1,6.4,1.6c4.3,0.5,9.9,0.6,14.7,0.6h60.9
		c4.7,0,7.9-0.3,10-0.6c2.3-0.3,3.5-0.7,4-0.7c1,0,1.2,0.8,1.2,2.9c0,2.9-0.3,13.1-0.3,16.7c-0.2,1.5-0.5,2.3-1.3,2.3
		c-1.2,0-1.5-0.7-1.7-2.8l-0.2-1.5c-0.3-3.6-5.4-7.8-18.6-8l-18.6-0.3v55.8c0,12.7,0.2,23.5,0.8,29.5c0.5,3.9,1.3,6.5,5.7,7.1
		c2,0.3,5.4,0.5,7.5,0.5c1.7,0,2.3,0.8,2.3,1.5c0,1-1.2,1.5-2.8,1.5c-9.7,0-19.6-0.5-23.8-0.5c-3.3,0-13.4,0.5-19.2,0.5
		c-1.8,0-2.8-0.5-2.8-1.5c0-0.6,0.5-1.5,2.3-1.5c2.2,0,4-0.2,5.2-0.5c3-0.6,3.8-3.2,4.4-7.3c0.7-5.8,0.7-16.7,0.7-29.4V65.3z"/>
	<path fill="#BE5927" d="M126.1,96.7c0-20.9,0-24.8-0.2-29.2c-0.3-4.7-1.7-6.2-6.4-7.5c-1.2-0.3-3.7-0.5-5.9-0.5
		c-1.5,0-2.5-0.5-2.5-1.5c0-1,1.2-1.3,3.3-1.3c7.7,0,17.1,0.3,21.2,0.3c4.7,0,39.4,0.2,42.2,0c2.7-0.2,5-0.6,6.2-0.8
		c0.8-0.2,1.7-0.6,2.3-0.6c0.8,0,1,0.6,1,1.3c0,1-0.8,2.6-1.2,8.9c-0.2,1.5-0.5,7.5-0.8,9.1c-0.2,0.7-0.5,2.3-1.7,2.3
		c-1,0-1.2-0.7-1.2-1.8c0-1-0.2-3.4-1-5c-1.2-2.4-2.3-4.4-9.7-5c-2.5-0.3-22.1-0.6-25.1-0.6c-0.7,0-1,0.5-1,1.3v34.1
		c0,0.8,0.2,1.5,1,1.5c3.3,0,24.5,0,27.8-0.3c3.5-0.3,5.7-0.6,7-2.1c1.2-1,1.7-1.8,2.3-1.8c0.7,0,1.2,0.7,1.2,1.5
		c0,0.8-0.3,3.1-1.2,10.1c-0.3,2.8-0.7,8.3-0.7,9.3c0,1.1-0.2,3.1-1.5,3.1c-1,0-1.3-0.5-1.3-1.1c-0.2-1.5-0.2-3.2-0.5-5
		c-0.8-2.8-2.7-4.9-8.2-5.4c-2.7-0.3-21.5-0.7-25.1-0.7c-0.7,0-0.8,0.7-0.8,1.5v11c0,4.7-0.2,16.4,0,20.5c0.3,9.4,6.9,11.5,22,11.5
		c3.8,0,10-0.2,13.9-1.8c3.7-1.6,5.4-4.5,6.4-10.2c0.3-1.5,0.7-2.1,1.7-2.1c1.2,0,1.3,1.8,1.3,3.2c0,3.1-1.2,12.5-2,15.3
		c-1,3.6-2.3,3.6-7.9,3.6c-11,0-22-0.2-29.2-0.5c-7.2-0.2-12.7-0.3-17.1-0.3c-1.7,0-4.9,0.2-8.4,0.2c-3.5,0.2-7.2,0.3-10.2,0.3
		c-1.8,0-2.8-0.5-2.8-1.5c0-0.6,0.5-1.5,2.3-1.5c2.2,0,3.8-0.2,5.2-0.5c3-0.7,3.8-3.2,4.4-7.3c0.7-5.8,0.7-16.7,0.7-29.4V96.7z"/>
	<path fill="#BE5927" d="M424.7,158.2c-1.7,0-3.3-0.2-5.5-0.5c-2.7-0.5-6.9-2.3-12.5-14.8c-9.4-20.9-34-77.4-37.5-85
		c-1.5-3.1-2.8-3.4-4.3-3.4c-1.2,0.1-2.7,0.6-4.3,4.5L322,145.9c-2.9,6.8-6.5,11-11.1,11.1c-1.8,0-1.9,0.1-3.7-0.1
		c-3-0.3-4.7-1.9-7.2-5c-3.7-4.4-28.1-41.9-32.8-48.7l24.4-32.3c4.5-6,7.2-9.7,10.5-10.5c2-0.5,3.9-0.8,5.4-0.8
		c1.5,0,2.3-0.6,2.3-1.5c0-1-1-1.3-2.7-1.3c-5.5,0-11.5,0.3-14.4,0.3c-2.8,0-9.7-0.3-15.4-0.3c-2.2,0-3.2,0.3-3.2,1.3
		c0,1,1,1.5,1.8,1.5c1.2,0,3.2,0,4.7,0.5c1.5,0.3,2.5,1.3,2.5,2.3c0,1.1-0.5,3.1-1.7,5c-2.5,3.9-15.6,22.6-19.9,28.7
		c-5.9-9.4-11.9-19-18.4-30c-0.8-1.5-1.5-3.2-1.5-4.1c0-0.8,0.7-1.6,2-1.9c1.2-0.3,2.7-0.5,3.5-0.5c1.3,0,2.3-0.5,2.3-1.5
		c0-1-1-1.3-3-1.3c-5.5,0-14.6,0.3-16.6,0.3c-7,0-18.9-0.3-22.4-0.3c-1.8,0-3,0.3-3,1.1c0,1,0.7,1.6,1.5,1.6c1.5,0,3.8,0.3,6.2,1
		c5.2,1.6,8.2,4.5,11.9,10.1l25.9,39.3l-28.8,37.6c-5,6.7-7.4,8.9-11.7,10.1c-2.2,0.5-4.3,0.6-5.4,0.6c-1.2,0-2,0.8-2,1.6
		c0,0.8,0.7,1.3,2.2,1.3h2.5c2.3,0,9.5-0.5,12.4-0.5c3.7,0,13.4,0.5,14.2,0.5h2.7c2,0,3-0.3,3-1.3c0-0.8-1-1.6-1.8-1.6
		c-1.2,0-2.3-0.2-3.2-0.2c-1.3,0-2.7-0.8-2.8-2.1c-0.2-1.5,0.7-3.6,2.2-5.8l21.6-32.5c6.7,10.5,14.7,23.5,23.2,37
		c1.2,1.8,0.2,2.8-0.5,2.9c-1.3,0.3-2,1-2,1.8c0,1.3,0.3,1.5,5.2,1.5c10.5-0.2,23.7-0.1,23.7-0.1c0.1,0,6.4,0.1,8.3,0.1
		c1.9,0.1,9.4,0.1,10.4,0.1c4.7,0,10,0.3,14.9,0.3c1.5,0,2.3-0.3,2.3-1.5c0-0.8-0.3-1.5-2.2-1.5l-0.6,0c-4.5,0-5.9-1.5-5.9-3.9
		c0-1.6,0.7-5,2.2-8.4l7.9-18.5c0.3-0.8,0.5-1,1.3-1H378c0.7,0,1.2,0.2,1.5,1l11.4,27.8c0.7,1.6-0.3,2.9-1.3,3.1
		c-1.5,0.2-1.8,0.7-1.8,1.5c0,1,1.7,1,4.3,1.1c12.4,0.3,23.1,0.3,28.3,0.3c5.5,0,6.4-0.3,6.4-1.5C426.7,158.7,426,158.2,424.7,158.2
		 M374.8,118.8h-28.4c-0.5,0-0.8-0.3-0.5-1l14.2-34.9c0.2-0.5,0.3-1.3,0.8-1.3c0.3,0,0.5,0.8,0.7,1.3l13.9,35.1
		C375.7,118.5,375.5,118.8,374.8,118.8z"/>
	<path fill="#BE5927" d="M433.3,154.7c-1.9-1.3-3.7-2.6-3.8-5.2c-0.3-7.4,0.2-16.4,0.4-18.5c0.2-2.3,0.6-4.7,1.8-4.8
		c1.4-0.1,1.6,0.7,1.7,1.7c0.1,1.8,0.9,5.6,3,9.3c5.2,9,12.7,16.8,28,16.9c16.3,0,22.8-7.3,22.7-17.6c-0.1-6-2.2-11.7-16.9-19.1
		l-9.6-4.9c-19.6-9.9-27.7-18.9-28.6-31c-1.2-16.9,15.2-28,37.4-28c13,0,20.7,2.8,24.8,4c1.4,0.4,2.2,1.1,2.4,2.2
		c0.2,1.8-0.8,3.8,0.3,14.8c0.3,2.9-0.4,4.4-1.7,4.4c-1.1,0-1.7-0.8-1.8-2.4c-0.1-1.3-1.1-5.5-4.8-9.1c-2.6-2.6-7.9-6.5-18.2-6.5
		c-11.4,0-21.4,5.4-20.7,14.8c0.5,6.2,3.4,11,18.2,18.2l6.8,3.2c21.8,10.4,30,20.9,30,33.4c0,21.6-17.8,32.5-39.2,32.5
		C444.8,163.1,435.5,155.9,433.3,154.7z"/>
	<path fill="#BE5927" d="M137,209.1c-0.2,0-0.3,0-0.4,0.3l-2.1,5.2c-0.4,1-0.6,1.9-0.6,2.4c0,0.7,0.4,1.1,1.6,1.1h0.6
		c0.5,0,0.6,0.2,0.6,0.4c0,0.3-0.2,0.4-0.6,0.4c-1.3,0-3.2-0.1-4.5-0.1c-0.4,0-2.5,0.1-4.6,0.1c-0.5,0-0.7-0.1-0.7-0.4
		c0-0.2,0.1-0.4,0.5-0.4c0.4,0,0.8,0,1.2,0c1.8-0.3,2.5-1.5,3.3-3.4l10.5-24.3c0.5-1.1,0.8-1.5,1.2-1.5c0.6,0,0.8,0.4,1.2,1.2
		c1,2.1,7.6,18,10.2,23.8c1.5,3.5,2.7,4,3.4,4.1c0.6,0.1,1,0.1,1.5,0.1c0.4,0,0.5,0.1,0.5,0.4c0,0.3-0.2,0.4-1.7,0.4
		c-1.4,0-4.3,0-7.7-0.1c-0.7,0-1.2,0-1.2-0.3c0-0.2,0.1-0.4,0.5-0.4c0.3,0,0.5-0.4,0.4-0.9l-3.1-7.8c-0.1-0.2-0.2-0.3-0.4-0.3H137z
		 M145.5,206.9c0.2,0,0.2-0.1,0.2-0.2l-3.8-9.8c0-0.1-0.1-0.4-0.2-0.4c-0.1,0-0.2,0.2-0.2,0.4l-3.9,9.8c-0.1,0.2,0,0.3,0.1,0.3
		H145.5z"/>
	<path fill="#BE5927" d="M169.5,191.9l-6,0.1c-2.3,0-3.3,0.3-3.9,1.2c-0.4,0.5-0.6,1-0.7,1.3c-0.1,0.3-0.2,0.5-0.5,0.5
		c-0.3,0-0.4-0.2-0.4-0.6c0-0.6,0.8-4.4,0.9-4.7c0.1-0.5,0.2-0.7,0.5-0.7c0.3,0,0.7,0.3,1.7,0.5c1.2,0.1,2.7,0.2,4,0.2h16.2
		c1.3,0,2.1-0.1,2.7-0.2c0.6-0.1,1-0.2,1.1-0.2c0.3,0,0.3,0.2,0.3,0.8c0,0.8-0.1,3.7-0.1,4.7c0,0.4-0.1,0.6-0.4,0.6
		c-0.3,0-0.4-0.2-0.5-0.8l0-0.4c-0.1-1-1.1-2.2-4.7-2.2l-5.1-0.1v15.6c0,3.5,0,6.6,0.2,8.3c0.1,1.1,0.4,1.8,1.5,2
		c0.5,0.1,1.5,0.1,2,0.1c0.5,0,0.6,0.2,0.6,0.4c0,0.3-0.3,0.4-0.8,0.4c-2.6,0-5.3-0.1-6.5-0.1c-0.9,0-3.6,0.1-5.2,0.1
		c-0.5,0-0.8-0.1-0.8-0.4c0-0.2,0.1-0.4,0.6-0.4c0.6,0,1.1,0,1.4-0.1c0.8-0.2,1-0.9,1.2-2c0.2-1.6,0.2-4.7,0.2-8.2V191.9z"/>
	<path fill="#BE5927" d="M212.5,209.1c-0.2,0-0.3,0-0.4,0.3l-2.1,5.2c-0.4,1-0.6,1.9-0.6,2.4c0,0.7,0.4,1.1,1.6,1.1h0.6
		c0.5,0,0.6,0.2,0.6,0.4c0,0.3-0.2,0.4-0.6,0.4c-1.3,0-3.2-0.1-4.5-0.1c-0.4,0-2.5,0.1-4.6,0.1c-0.5,0-0.7-0.1-0.7-0.4
		c0-0.2,0.1-0.4,0.5-0.4c0.4,0,0.8,0,1.2,0c1.8-0.3,2.5-1.5,3.3-3.4l10.5-24.3c0.5-1.1,0.8-1.5,1.2-1.5c0.6,0,0.8,0.4,1.2,1.2
		c1,2.1,7.6,18,10.2,23.8c1.5,3.5,2.7,4,3.4,4.1c0.6,0.1,1,0.1,1.5,0.1c0.4,0,0.5,0.1,0.5,0.4c0,0.3-0.2,0.4-1.7,0.4
		c-1.4,0-4.3,0-7.7-0.1c-0.7,0-1.2,0-1.2-0.3c0-0.2,0.1-0.4,0.5-0.4c0.3,0,0.5-0.4,0.4-0.9l-3.1-7.8c-0.1-0.2-0.2-0.3-0.4-0.3H212.5
		z M221.1,206.9c0.2,0,0.2-0.1,0.2-0.2l-3.8-9.8c0-0.1-0.1-0.4-0.2-0.4c-0.1,0-0.2,0.2-0.2,0.4l-3.9,9.8c-0.1,0.2,0,0.3,0.1,0.3
		H221.1z"/>
	<path fill="#BE5927" d="M238.4,200.7c0-5.9,0-7,0-8.2c-0.1-1.4-0.5-1.7-1.7-2.1c-0.3-0.1-1-0.1-1.5-0.1c-0.5,0-0.7-0.1-0.7-0.4
		c0-0.3,0.3-0.4,0.9-0.4c2.1,0,4.8,0.1,6,0.1c1,0,3.7-0.1,5.1-0.1c0.6,0,0.9,0.1,0.9,0.4c0,0.3-0.2,0.4-0.6,0.4
		c-0.5,0-0.7,0-1.2,0.1c-1,0.2-1.4,0.7-1.5,2.1c-0.1,1.2-0.1,2.3-0.1,8.2v5.4c0,5.6,1.1,7.8,3,9.4c1.8,1.4,3.7,1.5,5,1.5
		c1.7,0,3.8-0.5,5.4-2c2.2-2.1,2.3-5.5,2.3-9.4v-4.9c0-5.9,0-7-0.1-8.2c-0.1-1.3-0.4-1.7-1.7-2.1c-0.3-0.1-1-0.1-1.5-0.1
		s-0.7-0.1-0.7-0.4c0-0.3,0.3-0.4,0.8-0.4c2,0,4.7,0.1,4.8,0.1c0.5,0,3.1-0.1,4.7-0.1c0.5,0,0.8,0.1,0.8,0.4c0,0.3-0.2,0.4-0.7,0.4
		c-0.5,0-0.7,0-1.2,0.1c-1.1,0.2-1.4,0.7-1.5,2.1c0,1.2-0.1,2.3-0.1,8.2v4.1c0,4.3-0.5,8.9-3.8,11.6c-2.8,2.4-5.9,2.8-8.5,2.8
		c-2.1,0-6.2-0.1-9.1-2.6c-2-1.8-3.6-4.6-3.6-10.2V200.7z"/>
	<path fill="#BE5927" d="M273.8,218.3c-0.6-0.3-0.8-0.5-0.8-1.3c0-2.1,0.2-4.5,0.2-5.1c0-0.6,0.2-1,0.5-1c0.4,0,0.4,0.4,0.4,0.6
		c0,0.5,0.1,1.3,0.4,2c0.9,2.9,3.9,3.8,6.4,3.8c3.5,0,5.5-2.2,5.5-4.9c0-1.7-0.4-3.4-4-5.5l-2.3-1.4c-4.7-2.8-6.3-5.4-6.3-8.8
		c0-4.7,4.5-7.8,10.1-7.8c2.6,0,4.6,0.4,5.7,0.6c0.4,0.1,0.5,0.2,0.5,0.5c0,0.5-0.1,1.6-0.1,4.6c0,0.8-0.2,1.2-0.5,1.2
		c-0.3,0-0.4-0.2-0.4-0.7c0-0.4-0.2-1.5-1-2.5c-0.6-0.7-1.9-1.8-4.5-1.8c-2.9,0-5.5,1.5-5.5,4.1c0,1.7,0.6,3.1,4.2,5.1l1.6,0.9
		c5.3,2.9,6.9,5.9,6.9,9.4c0,2.9-1.1,5.2-4,7.2c-1.9,1.4-4.6,1.6-6.7,1.6C278,219.3,275.5,219.1,273.8,218.3"/>
	<path fill="#BE5927" d="M308.1,191.9l-6,0.1c-2.3,0-3.3,0.3-3.9,1.2c-0.4,0.5-0.6,1-0.7,1.3c-0.1,0.3-0.2,0.5-0.5,0.5
		c-0.3,0-0.4-0.2-0.4-0.6c0-0.6,0.8-4.4,0.9-4.7c0.1-0.5,0.2-0.7,0.5-0.7c0.3,0,0.7,0.3,1.7,0.5c1.2,0.1,2.7,0.2,4,0.2h16.2
		c1.3,0,2.1-0.1,2.7-0.2c0.6-0.1,1-0.2,1.1-0.2c0.3,0,0.3,0.2,0.3,0.8c0,0.8-0.1,3.7-0.1,4.7c0,0.4-0.1,0.6-0.4,0.6
		c-0.3,0-0.4-0.2-0.5-0.8l0-0.4c-0.1-1-1.1-2.2-4.7-2.2l-5-0.1v15.6c0,3.5,0,6.6,0.2,8.3c0.1,1.1,0.4,1.8,1.5,2
		c0.5,0.1,1.5,0.1,2,0.1c0.5,0,0.6,0.2,0.6,0.4c0,0.3-0.3,0.4-0.8,0.4c-2.6,0-5.3-0.1-6.5-0.1c-0.9,0-3.6,0.1-5.2,0.1
		c-0.5,0-0.8-0.1-0.8-0.4c0-0.2,0.1-0.4,0.6-0.4c0.6,0,1.1,0,1.4-0.1c0.8-0.2,1-0.9,1.2-2c0.2-1.6,0.2-4.7,0.2-8.2V191.9z"/>
	<path fill="#BE5927" d="M333.5,200.7c0-5.9,0-7,0-8.2c-0.1-1.3-0.5-1.8-1.4-2c-0.5-0.1-1-0.2-1.5-0.2c-0.4,0-0.6-0.1-0.6-0.5
		c0-0.2,0.3-0.3,1-0.3c1.5,0,4.2,0.1,5.4,0.1c1,0,3.6-0.1,5.1-0.1c0.5,0,0.8,0.1,0.8,0.3c0,0.4-0.2,0.5-0.6,0.5
		c-0.4,0-0.7,0-1.2,0.1c-1.1,0.2-1.4,0.7-1.5,2.1c-0.1,1.2-0.1,2.3-0.1,8.2v6.8c0,3.7,0,6.8,0.2,8.5c0.1,1,0.4,1.6,1.6,1.8
		c0.5,0.1,1.5,0.1,2,0.1c0.5,0,0.6,0.2,0.6,0.4c0,0.3-0.3,0.4-0.8,0.4c-2.6,0-5.4-0.1-6.5-0.1c-0.9,0-3.6,0.1-5.2,0.1
		c-0.5,0-0.8-0.1-0.8-0.4c0-0.2,0.1-0.4,0.6-0.4c0.6,0,1,0,1.4-0.1c0.8-0.2,1-0.7,1.2-1.9c0.2-1.6,0.2-4.7,0.2-8.4V200.7z"/>
	<path fill="#BE5927" d="M355.7,213.5c0.1,3,0.6,3.9,1.4,4.2c0.7,0.2,1.5,0.3,2.1,0.3c0.5,0,0.7,0.2,0.7,0.4c0,0.3-0.4,0.4-0.9,0.4
		c-2.6,0-4.5-0.1-5.2-0.1c-0.4,0-2.3,0.1-4.3,0.1c-0.5,0-0.9,0-0.9-0.4c0-0.2,0.3-0.4,0.6-0.4c0.5,0,1.3,0,1.8-0.2
		c1-0.3,1.2-1.3,1.2-4.7l0.4-22.9c0-0.8,0.3-1.3,0.7-1.3c0.5,0,1,0.6,1.7,1.3c0.5,0.5,6.5,6.6,12.3,12.3c2.7,2.7,8.1,8.1,8.6,8.7
		h0.2l-0.4-17.2c0-2.4-0.4-3-1.4-3.4c-0.6-0.2-1.5-0.2-2.1-0.2c-0.5,0-0.6-0.2-0.6-0.4c0-0.3,0.4-0.4,1-0.4c2.1,0,4.2,0.1,5.1,0.1
		c0.5,0,2-0.1,3.9-0.1c0.5,0,0.9,0,0.9,0.4c0,0.2-0.2,0.4-0.7,0.4c-0.4,0-0.7,0-1.2,0.1c-1.1,0.3-1.4,1-1.5,3.2l-0.5,24.4
		c0,0.9-0.3,1.2-0.6,1.2c-0.7,0-1.2-0.4-1.6-0.8c-2.5-2.3-7.5-7.1-11.7-11.1c-4.4-4.2-8.6-8.9-9.4-9.6h-0.1L355.7,213.5z"/>
</g>
</svg>
